<svg xmlns:xlink="http://www.w3.org/1999/xlink" xmlns="http://www.w3.org/2000/svg" id="exportSvg" width="600" height="400"><defs/><g><g id="header-svg"/><g id="chart-svg"><g id="map-svg"><g id="regions-svg"><path d="M311.9102869494487,319.03404985438056L302.55311278908584,307.17956389167875L300.1086597551805,304.0826078524969L299.30954766893495,303.0701860014808L298.95093335160846,302.75518221897914L298.81402639704766,302.6349242953636L298.72607293245306,302.56096653341444L298.42231964054605,302.29811262536657L296.8188253221624,302.65710274164354L296.37195641784325,302.3199257859556L295.85179547739745,301.9113078699476L294.55847604392534,300.8175738979199L294.00387550804686,299.37454577795984L287.5795207369355,293.3878080245277L287.8405037568644,293.4256669204885L287.9865675793003,293.4728920499997L288.49208062899686,293.7152729867843L288.73223353865296,293.8015308502546L288.97450446158496,293.83389640514486L292.05156881375484,293.80042106390636L293.47973302432524,293.4911699909269L293.5959990239509,293.49128801826356L293.7358577238105,293.5120865296723L293.8541461776087,293.5467794273292L293.94864056007833,293.5860692713137L294.02879152263165,293.6369976313824L294.68815210080317,291.88148208149477L295.03477666619233,291.47723793539535L296.25095412068816,290.41737738497756L296.5988131709637,290.0530524128113L298.2494427703407,290.01027558122826L299.1025770756115,289.1781851511041L299.7041874428079,288.591414680933L299.72896658607516,288.5119694557346L299.757020123191,288.4599891436498L300.2601345917391,287.84426596683807L300.8650734110154,287.16660925047887L301.03479564159164,286.9745037495676L301.3700850414767,286.6124963258271L301.5580917235913,286.56047279553377L301.21713022429594,286.2684796646622L300.74143849576933,285.8268166722592L300.41318717536603,285.5269121241169L299.8911296807719,285.03762354713615L299.58748162149885,280.94292034935484L299.5554293540251,280.45949767781417L299.6020387241577,277.9113954177827L299.65004992091633,275.286756549146L305.255123360268,274.31224322602054L305.23338917854556,274.26804453035544L305.1847144409968,274.15737655739946L305.14079773265416,274.0447236730935L305.1107282531192,273.9566703043975L305.0675516607661,273.81428794029335L305.04576071976294,273.72880093027766L305.0310514940817,273.6616884312357L305.0166370977739,273.5744539761165L305.00735171926937,273.4865205365271L305.0035386833114,273.40489786003695L305.0026240172486,273.3481002835281L304.99946975644656,273.07363287080733L305.0083530635118,272.670456585749L305.01090904761463,272.1645034196081L305.01271615681463,272.0038973969928L305.00749709243854,271.8586205041838L305.00975400877985,271.2670035770449L305.0113466977005,271.0083292003038L305.0136152404246,270.63987170589854L305.01974748553835,270.2372909382598L305.02126816368957,270.1374585930355L305.0234309628226,269.9954713875995L305.02357354731976,269.7007713207156L305.023613409988,269.6183900537107L305.02374017069565,269.35812154557277L305.0256758497778,268.71993751427726L305.0285360562949,268.55748044783604L305.0372728141162,268.06124325073176L305.0343898887936,267.4048795749731L305.03774234602696,266.98532675196395L305.0353606777239,266.87792251666815L305.03593307323126,266.64927140334726L305.03269883482375,266.51450793270305L305.0307678885523,266.4660480544865L305.02365871792404,266.40548249192216L305.01138697813957,266.3457538365138L304.9940412769363,266.28730375970395L304.9717511507375,266.2305680172233L304.9446814868439,266.175962293088L304.9130317482331,266.1238937179642L304.8770386790791,266.0747480928327L304.66562184880365,265.8864005872736L304.43800383494835,265.79729000976505L304.36515071087024,265.7765209816713L304.20431403067016,265.7306695286924L303.9239758394201,265.5858020016292L303.44761305047285,265.21742957127304L303.14517732754877,264.95869020532496L302.7544209466127,264.468361880315L302.57198715854355,264.2394038497641L302.26683976118784,263.8564377425402L302.0833807442857,263.71379971934863L301.37655041603335,263.4008470628726L301.2505982571998,263.31511405697336L301.1869525869156,263.25772203578833L301.1082226176175,263.1867278553555L300.8710630032172,262.91227254707087L300.80239640213176,262.22141110128644L301.19277593523077,261.4313022389L305.0141013899006,260.5733546351197L310.1597413370663,259.4180800730573L315.2115439685053,258.28387617400784L317.4304809253468,257.7856931003698L317.465575488464,257.73971752338946L321.36586767468833,252.630154233216L321.4004858896342,252.5848028434537L319.44050713864823,245.13858246575268L316.4361974499684,241.70884324135247L318.42887423140996,239.78375712882612L321.11692143013994,237.18689100579957L330.43897955302157,231.9586238000157L330.52769235356635,231.9089392095909L328.5236171571621,229.76317667293944L330.4381765860862,226.70452752210537L324.28442100975303,221.44572235682364L322.3016059140179,216.51020159145003L314.0012928987963,195.84930266257342L311.92160808528837,190.67256406759145L310.36811781902816,186.8056134346044L309.82379769967207,185.450688390019L316.5706018035091,180.00841469466766L317.0779781093271,164.89280939581323L317.1544783128676,162.61389993945602L309.90410124848523,154.54367965418214L310.22432266270266,142.85978896169902L326.8221869556395,119.08383205872389L330.8761433009295,113.27672052877048L344.2030150546066,94.18674869569944L336.89248753710405,92.191710315591L336.9759115384808,70.05803876059954L337.00604404716466,62.072170387892186L337.24002072766626,0.2193837964552472L348.60705037193,0.17419215536972388L392.43798549921377,0.0005041204237841157L392.39998642310974,33.431224017103986L392.5926237356904,39.38147231415137L391.99158715948147,110.45857414463343L392.164926427821,144.3277491897098L392.18154339229636,164.78532599124557L392.19764203065097,175.0500638144285L392.20647127070606,177.59100718149446L392.2336311839411,185.35468791664093L392.2941398742449,190.4753597532234L392.324913089295,193.08645460836004L392.3392715670883,194.29429585032747L392.37348320170224,200.80337784783285L392.32011135649833,203.04533480630013L392.3912505179005,205.92033607280365L392.43053411276577,216.1271827579005L392.4759106651131,219.7475320848102L392.48654091243804,220.68001186879127L393.0551141438493,221.31123872503798L392.50642299945594,222.3004725154236L392.52996227331846,224.18673740480375L392.5516599646271,225.95771700394442L392.5419355974939,230.20497177952782L392.51454152586416,233.0061024723466L371.7631837126882,250.42847076661008L362.58641844525386,258.1332893381935L350.9077903024762,267.22018600468385L338.6475851293305,276.7597329352759L336.8512168605865,278.1576071403898L334.30853219089903,280.1359896907801L325.1281206301174,287.2791980574366L321.07520656595483,290.43285904636195L319.2538873797401,291.8501702087559L348.5292068894943,348.70588856940685L340.7451546463907,353.4267052843598L313.415450391539,320.8293424807866Z" stroke="null" id="EAST HS" transform="translate(0, 1) translate(0,0) scale(1)" style="fill: rgb(128, 173, 173); mix-blend-mode: normal;"/><path d="M317.4310609201761,257.80174728060535L315.2115439685053,258.28387617400784L310.1597413370601,259.4180800730573L305.0141013899068,260.5733546351197L301.19277593523077,261.4313022389158L300.80239640212557,262.22141110129326L300.8710630032172,262.91227254707087L301.1045258371841,263.1824497199483L301.18695258691554,263.2577220358064L301.2505982571998,263.3151140570005L301.3765504160209,263.4008470628997L302.0833807442857,263.7137997193373L302.26683976118164,263.8564377425402L302.57198715853735,264.2394038497754L302.7544209466003,264.468361880315L303.1451773275487,264.9586902053476L303.44761305047285,265.21742957125264L303.9239758394201,265.5858020016292L304.20431403065777,265.7306695286924L304.36515071087024,265.7765209816713L304.43800383494215,265.7972900097831L304.6593612866933,265.8823237970479L304.78391617415775,265.97610188040346L304.9130317482455,266.1238937179642L304.9421142899565,266.1717388685882L304.9717511507375,266.2305680172233L304.9940412769239,266.28730375970395L305.0113869781334,266.3457538365138L305.02365871792404,266.40548249192216L305.0307678885399,266.4660480544865L305.03269883482375,266.5145079327098L305.03594386321083,266.6449172635792L305.0353606777239,266.87792251668395L305.03774234602696,266.98532675196395L305.0343898887874,267.40487957500477L305.0372728141162,268.06124325073176L305.0285360562825,268.55748044783604L305.02567584975924,268.71993751427726L305.02374017069565,269.35812154557277L305.023613409988,269.6183900537107L305.02357354731356,269.7007713207156L305.0234309628102,269.9954713875836L305.02126816368957,270.1374585930355L305.01974748552595,270.2372909382598L305.0136152404246,270.63987170592344L305.0113466977005,271.0083292003197L305.00975400877985,271.2670035770449L305.00749709243854,271.8586205041725L305.0118473951476,271.97876239393423L305.0109090476208,272.1645034196081L305.0083530634993,272.6704565857739L304.99946975643417,273.07363287080733L305.0026240172486,273.3481002835439L305.00309713118025,273.3892680505107L305.00735171926937,273.4865205365271L305.0166370977739,273.5744539761165L305.0310514940693,273.6616884312538L305.04576071976294,273.72880093027766L305.0675516607661,273.81428794028204L305.1017202441076,273.9302917840177L305.14079773264797,274.0447236731093L305.1847144409968,274.1573765574266L305.23338917853937,274.2680445303758L305.25512336025554,274.3122432260341L299.65004992091633,275.28675654916185L299.6020387241577,277.9113954178076L299.55549921519207,280.45567834288806L299.58748162149885,280.94292034937973L299.85684343458814,285.00548495460436L300.410331241108,285.52430281938433L300.7414384957631,285.82681667226603L301.2171302242897,286.26847966467125L301.53332751187315,286.5392651833066L301.3700850414767,286.6124963258271L301.03479564159164,286.97450374958566L300.8650734110092,287.16660925047887L300.2601345917391,287.84426596684943L299.7570201231786,288.45998914365885L299.7289665860751,288.5119694557527L299.7041874428079,288.591414680933L299.1025770756115,289.1781851511041L298.2494427703407,290.01027558125315L296.5988131709575,290.05305241281815L296.2674611030689,290.4030049934498L295.03799795853763,291.47348116643184L294.68815210079697,291.88148208149477L294.02879152263165,293.6369976313824L293.94864056005974,293.5860692713205L293.8541461776087,293.5467794273609L293.7358577237981,293.51208652967455L293.59599902395087,293.49128801828846L293.47973302432524,293.4911699909269L292.05156881374864,293.80042106390863L288.97450446159115,293.8338964051267L288.73223353865296,293.8015308502546L288.49208062899066,293.71527298680695L287.98656757929416,293.47289204998384L287.8405037568644,293.4256669204885L287.5830500691514,293.3883199989233L294.00387550803447,299.37454577796893L294.55847604391914,300.8175738979199L295.8517954773912,301.9113078699703L296.37195641784325,302.3199257859556L296.8188253221624,302.65710274164354L298.42231964053366,302.29811262536657L298.726072932453,302.56096653343934L298.81402639704766,302.6349242953704L298.950933351596,302.75518221900404L299.30954766892876,303.0701860014808L300.1086597551805,304.08260785251275L302.55311278908584,307.17956389167875L311.9102869494487,319.03404985438056L310.3286423563077,319.9308032526585L298.43005758329343,320.20846342787365L296.1952986599449,320.92155600160856L293.3595368461678,322.6864768541368L286.72095352189075,326.8185319885817L284.30957719438464,330.0051358212335L284.03056776727357,334.9301937631281L285.05101515605793,336.999247520787L282.60696684805566,343.61019104673494L281.434820766556,344.1790172063947L272.3637615463374,340.75026734587146L268.11137747036327,342.80042800801095L261.725161238141,342.44577913846587L260.4052544958222,344.0789780131487L257.66373441676274,349.4837527585348L254.09684781135417,352.0381263789705L253.8455447073178,356.10338733805713L257.1130314516947,357.67469665878895L264.62885313147245,358.32719629904466L267.84580290980404,361.89010131880013L267.3014470703013,366.7207957913468L260.44360358354686,371.1994160770004L254.3430034453811,378.44021516148575L255.54974781594427,385.7751574362977L250.2664685823797,390.5315286991389L244.8473032060255,388.6002237137823L243.48619285297298,388.4786077142735L235.56048073356857,391L228.68929443689828,384.2224543649924L224.08348191681154,389.6914343461806L221.83627924643503,389.89835420361226L220.76545470269565,388.3996538935266L219.99306473287942,385.1239773119446L217.9922906968442,384.2646515303102L215.45331604632406,384.1160299103826L214.234214822218,383.04444273973206L213.66312150071712,378.0612994170582L211.75917932695108,377.4879380156676L211.3101351299827,380.97298320933055L208.92218083872314,379.19613491261805L206.97171484006654,378.33633060608554L206.94792388504573,377.330021264806L206.94488585615062,371.00618872121856L226.73208454415905,370.916392223001L237.65752254624417,370.6592878572219L237.56249822082032,368.6760867624397L238.2352579830266,368.6228022228995L238.38737162367931,340.30591640179273L244.60147077630313,337.3867208346677L246.38282454626187,336.2577769840307L248.07275277360543,336.25087732846055L248.07698011081334,335.9269787900038L248.08175411796196,335.69649467385887L255.11204368844437,333.82945384852917L256.2666618363532,331.80104330752846L258.9864621762983,328.91246251678393L261.6548260124961,326.0785184652008L262.79459349259037,324.8681518668497L263.65944207925065,322.49683266647287L263.69926327423804,320.13012731516824L263.7297516518673,318.07486197149865L263.7540441241749,314.7858155789512L263.79520062894215,309.2289635422329L269.245773984637,309.1665759410987L269.1334146245518,308.73831981093383L268.78891094697445,306.73393233604503L268.79576965131946,304.1774949457656L268.79114221105874,303.763504750229L268.78869751195697,302.3694109010521L268.7732197759366,299.01373120718324L268.76801919926606,297.06443952486575L268.764908245734,296.4406221072057L268.75986135741306,293.8631612672019L268.7683254209994,291.4264114913384L268.7755622880737,288.707673597133L268.8117787027977,278.3781310401745L268.8108544774249,277.0124651672103L268.81007658583144,275.80677190177875L268.8020539366196,274.5721018595101L268.7971376885313,273.32165816309987L268.7972121958818,273.1103495227536L268.7971645408463,269.97340778725254L268.80433278142914,269.3692365567232L268.79806910782304,268.08491015907214L268.78514165515423,263.680550241524L268.7891869381713,262.921448047231L268.79259002584035,260.388126149074L268.8152376462342,257.76650968419955L268.8127380059203,253.1403376742366L268.7814171802236,237.13297014121588L268.84212769275763,200.99370928380054L268.8361014169525,195.81884404681497L268.84225085959196,191.68299100069635L268.5251515211454,175.19233932394826L268.7282848653667,164.9416793203387L268.7668981037717,157.1932144153204L268.77950864525934,154.6633646658356L268.7528804319022,135.90958684980603L268.5236974591984,118.89531736099656L268.5997805071227,117.66130918698772L268.5070165149935,86.17101620841119L265.24612391165067,82.29068915856719L265.4833007321513,62.38883804126618L265.57523103428696,0L304.3377533289388,0.6972994247522593L337.2400207276724,0.2193837964552472L337.00604404716466,62.072170387892186L336.9759115384808,70.05803876058823L336.89248753711024,92.191710315591L344.20301505461896,94.18674869568132L330.8761433009295,113.27672052874334L326.8221869556457,119.08383205870578L310.22432266270266,142.85978896169902L309.9043134821847,154.5359354971496L317.1544783128738,162.61389993945602L317.0779781093333,164.89280939582457L316.57060180352147,180.00841469466766L309.8237976996659,185.45068839002352L310.36811781902196,186.80561343457495L311.92160808528837,190.67256406759145L314.0012928987901,195.84930266257342L322.3016059140303,216.51020159145003L324.28442100975303,221.44572235682364L330.43817658609237,226.70452752210537L328.5236171571621,229.76317667293944L330.5276923535664,231.908939209609L330.4389795530216,231.95862380003155L321.13498249909156,237.1694426455693L318.42887423140996,239.78375712882612L316.4361974499746,241.70884324135247L319.44050713864823,245.13858246575268L321.4004858896342,252.5848028434537L321.36586767468833,252.630154233216L317.4655754884702,257.73971752338946Z" stroke="null" id="DENFELD HS" transform="translate(0, 1) translate(0,0) scale(1)" style="fill: rgb(128, 173, 173); mix-blend-mode: normal;"/></g><path d="M311.9102869494487,319.03404985438056L302.55311278908584,307.17956389167875M296.8188253221624,302.65710274164354L296.37195641784325,302.3199257859556M299.1025770756115,289.1781851511041L299.7041874428079,288.591414680933M305.0166370977739,273.5744539761165L305.00735171926937,273.4865205365271M305.0032255671603,273.3981939579333M305.023613409988,269.6183900537107L305.02374017069565,269.35812154557277M304.8056987341003,265.9959297143224M301.1045258371841,263.1824497199483L300.8710630032172,262.91227254707087M321.36586767468833,252.630154233216L321.4004858896342,252.5848028434537L319.44050713864823,245.13858246575268M309.9043134821847,154.5359354971496L310.22432266270266,142.85978896169902" stroke="rgb(255,255,255)" transform="translate(0, 1) translate(0,0) scale(1)" style="stroke-width: 0.45; stroke-linejoin: round; stroke-linecap: round; fill: none; mix-blend-mode: normal;"/><g id="labels-svg"><g id="DENFELD-svg HS-svg"><text transform="translate(259.0690612792969, 157.1143341064453)" fill="undefined" style="stroke: rgb(255, 255, 255); stroke-width: 4; stroke-linejoin: round; stroke-linecap: butt; opacity: 0.5; font-family: BentonSans; font-weight: 400; font-size: 10px;"><tspan x="1.90625" dy="10">DENFELD HS</tspan></text><text transform="translate(259.0690612792969, 157.1143341064453)" fill="rgb(14, 60, 61)" style="opacity: 1; font-family: BentonSans; font-weight: 400; font-size: 10px;"><tspan x="1.90625" dy="10">DENFELD HS</tspan></text></g><g id="EAST-svg HS-svg"><text transform="translate(331.1841735839844, 150.36871337890625)" fill="undefined" style="stroke: rgb(255, 255, 255); stroke-width: 4; stroke-linejoin: round; stroke-linecap: butt; opacity: 0.5; font-family: BentonSans; font-weight: 400; font-size: 10px;"><tspan x="2.0234375" dy="10">EAST HS</tspan></text><text transform="translate(331.1841735839844, 150.36871337890625)" fill="rgb(14, 60, 61)" style="opacity: 1; font-family: BentonSans; font-weight: 400; font-size: 10px;"><tspan x="2.0234375" dy="10">EAST HS</tspan></text></g></g></g></g><g id="footer-svg"><g id="footer-inner-svg"><g id="footer-main-svg"/></g></g></g></svg>