<svg xmlns:xlink="http://www.w3.org/1999/xlink" xmlns="http://www.w3.org/2000/svg" id="exportSvg" width="600" height="400"><defs/><g><g id="header-svg"/><g id="chart-svg"><g id="map-svg"><g id="regions-svg"><path d="M316.4280975576261,284.48844054964246L316.5199718798761,284.4228891727038L316.77476333340474,284.2411025714319L317.2019285880024,283.9294130277366L317.159904531505,283.860153891423L316.70957219291586,283.27785600773393L316.2845269286282,282.70379081648605L315.7895499383359,282.2487748943704L315.2632102852558,281.775666632601L314.7312807081025,281.2979285496175L314.2033404400205,280.8242970194774L313.6623633811446,280.3387477621633L314.26463681103564,279.6649049511295L314.87214800118335,278.98474054453084L315.43908457457405,278.35065646358066L315.47975359987527,278.3051706413638L314.9589504264448,277.8406664361164L314.43210525874787,277.36518614120473L314.2947035672952,277.24118013252564L313.8955610840755,276.88095259111753L313.3662727555778,276.4032668165639L312.83264857796934,275.92319358832583L312.67421008329563,275.78030441910335L312.3714519025481,275.5087388187287L311.94947913634917,275.1257986936446L311.45753713418395,274.68469698316545L310.97725826635434,274.2510845716082L309.8552496962052,273.23753504922615L309.85353874811295,273.1745997664778L310.0460222727436,273.1827737051768L310.81912795788736,273.21560415217505L311.97582859095024,273.1937820869724L312.699320043828,273.1929487960791L313.32438213791954,273.20023291686675L314.79436251492467,273.21736328655294L315.80724796025845,273.2294502619859L315.80940191577605,272.5473407095993L315.82851241160176,271.986068866433L315.90047360802873,271.48867377390053L316.0382046031695,271.00787449217006L316.19475739188283,270.6381750227764L316.5460489185415,270.06184127279096L316.59294687914974,269.98489984491516L317.5300935756013,268.67983552614055L317.83322276878727,268.07709550800126L318.26522518416414,267.19706909394694L318.4708124985563,266.7864752133744L319.1752769478945,265.4783340308369L318.48068395378783,265.4798908517082L318.1755507413436,265.4813704410119L317.97017549833606,265.48115236730933L317.3116656222433,265.48414864687L316.6560557855098,265.48624261580744L316.54724820527935,265.48708362135477L315.94527567182627,265.5002170234799L315.63478977282256,265.48291439640974L315.26280608720134,265.43580308262017L314.29589479208795,265.4232181759454L312.58367001033355,265.4209012880168L312.4895806991014,265.4236990020813L312.42773044606463,265.43210801577493L312.36196174145687,265.4378688505311L312.3039462364647,265.44559482845466L310.6752959180814,265.7228233770279L310.1831407847956,265.8110739382968L310.10124117895367,265.8257597288777L309.9794031302094,265.85477069459705L309.86347782645754,265.88778445236426L309.7490644303064,265.9257372976354L309.6363718631587,265.96856191801726L309.5256066678977,266.016176242539L309.41697095720514,266.06849494547737L309.33018097836833,266.114528575182L309.2162240430373,266.18369681439907L309.10897058204665,266.25489900730764L309.02415474282725,266.31620349659465L308.9033477927596,266.4098458944128L308.82208026394926,266.478576866519L308.3820047622346,266.9092263263993L307.85632244421606,267.4084399015085L307.757199317236,267.49464452102063L307.6686216529162,267.5642598445048L307.57695599545474,267.6297293364946L307.4823948818357,267.6909137599624L307.3851377414736,267.7476848474083L307.2853870891651,267.7999233341958L307.18335426227674,267.84751966727356L307.0792536987804,267.89037201568476L306.9733041454087,267.92839204883023L306.8657280801375,267.96149980627456L306.75675232015124,267.989626266483L306.6466055141295,268.01270947454606L306.5355199584832,268.03070288937084L306.42372911987474,268.04356894974467L306.3398587118033,268.0451841641058L305.74039125368256,268.0525753555253L305.0372728132449,268.061243248889L301.02927982479576,268.06519307753024L299.88823021852096,268.06883207829526L298.93642032674484,268.0777222441692L297.31642322257085,268.09285458667887L296.64476065095516,268.09876899614324L295.98500178093917,268.105175157545L294.7428917258155,268.1137853096408L294.0985045908201,268.11177335662626L293.6648718388259,268.10977628047283L292.80489143159207,268.10581337033705L292.14311514235425,268.1090130001461L291.85315338412977,268.1029720909633L290.6311079985034,268.0775126754598L289.5811837096142,268.07964885756905L286.90597507906784,268.0640026497636L284.42397504670134,268.0643827373828L280.926951669495,268.1306729802034L279.23655991453415,268.13965094484047L276.9591474486795,268.1391167051133L274.1187890984956,268.13762691720666L273.87649193111776,268.13484937164134L268.8146828462407,268.07672064401277L268.7851416542338,263.6805502408317L268.78918693722767,262.9214480465111L268.7925900248128,260.3881261483556L268.81523764513236,257.7665096834918L268.81273800467653,253.14033767353988L268.78141717848865,237.1329701405775L268.84212768991307,200.99370928322745L268.83610141394905,195.8188440462564L268.8422508564614,191.68299100014303L268.525151517509,175.19233932346344L268.72828486139633,164.941679319851L268.76689809958174,157.19321441485332L268.77950864099154,154.6633646653745L268.752880427058,135.90958684938937L268.5236974538316,118.89531736062469L268.5997805017054,117.66130918664366L268.5070165086201,86.1710162081213L265.2461239051655,82.29068915838384L265.483300725053,62.38883804112545L265.57523102525465,0L304.33775331983685,0.6972994235861165L337.2400207184905,0.21938379424813093L348.6070503627198,0.17419215282060918L392.43798548988224,0.0005041165247803292L392.39998641480815,33.43122401313123L392.59262372758394,39.38147231016464L391.99158715356384,110.45857414048916L392.1649264229443,144.32774918548384L392.18154338804226,164.78532598699422L392.1976420267183,175.05006381013948L392.2064712668514,177.59100717718815L392.2336311803187,185.35468791231415L392.29413987077965,190.47535974888459L392.3249130859161,193.08645460401962L392.33927156373403,194.2942958459797L392.37348319856017,200.803377843463L392.320111353419,203.0453348019318L392.3912505149093,205.9203360684218L392.4305341100941,216.12718275349692L392.4759106625524,219.74753208039587L392.486540909906,220.68001186438832L393.0551141413353,221.31123872060186L392.5064229969736,222.30047251100325L392.5299622708878,224.18673740039483L392.5516599622445,225.9577169994974L392.5419355952541,230.20497177511155L392.51454152371036,233.00610246790114L371.7631837111183,250.42847076276388L362.586418443942,258.13328933460065L350.90779030146456,267.2201860014383L338.647585128628,276.75973293238565L336.8512168599497,278.15760713754827L334.30853219032275,280.13598968801307L325.12812062978185,287.27919805494224L321.0752065657317,290.4328590439777L319.2538873795709,291.8501702064633L316.4072396610184,286.32159981531925L315.7983804637261,285.1391113468866L315.7089519559959,284.96542878621625L315.66327575110114,284.91033681403206L315.840984475153,284.82944117524056L315.9773249602069,284.7604976343488L316.1112800803001,284.6869978134328L316.24269753586,284.609025713414L316.37143009611304,284.5266685980067Z" stroke="null" id="EAST HS" transform="translate(0, 1) translate(0,0) scale(1)" style="fill: rgb(179, 120, 98); mix-blend-mode: normal;"/><path d="M318.4708124985563,266.7864752133744L318.26522518416414,267.1970690939311L317.8417803414479,268.06007969268353L317.5300935756075,268.67983552613146L316.59294687915593,269.98489984491516L316.5460489185477,270.0618412727638L316.194757391889,270.63817502275833L316.0382046031695,271.00787449218365L315.90047360802873,271.48867377391184L315.82851241160176,271.98606886640584L315.80940191578225,272.5473407095857L315.8073079963301,273.21043764321774L314.79436251492467,273.21736328655294L313.32438213792574,273.20023291686675L312.699320043828,273.1929487960678L311.9882203116885,273.1937678144375L310.81912795788736,273.21560415216373L310.0460222727498,273.1827737051768L309.85353874811295,273.17459976648456L309.8552496962052,273.23753504922615L310.97725826636673,274.25108457159683L311.45753713420254,274.6846969831564L311.94947913634917,275.1257986936446L312.3714519025419,275.5087388187038L312.6621684563201,275.7694445700966L312.83264857798173,275.92319358831L313.3662727555778,276.4032668165639L313.8955610840755,276.88095259111753L314.2947035672952,277.24118013252564L314.43210525874787,277.36518614120473L314.9589504264448,277.8406664361164L315.47975359988766,278.3051706413593L315.43908457457405,278.3506564635648L314.87214800118335,278.98474054452174L314.26463681103564,279.6649049511295L313.6623633811446,280.33874776215873L314.2033404400267,280.8242970194593L314.72771670346305,281.294729997178L315.2632102852558,281.7756666325761L315.7895499383421,282.2487748943704L316.2845269286406,282.7037908164951L316.70957219291586,283.2778560077226L317.159904531505,283.860153891423L317.2019285880024,283.9294130277434L316.7747633334171,284.24110257142513L316.5199718798761,284.4228891727038L316.4506689543844,284.4723360916873L316.37143009611924,284.5266685979818L316.24269753587237,284.609025713414L316.1112800803001,284.68699781340564L315.9773249602131,284.76049763433974L315.840984475153,284.8294411752315L315.70241211790363,284.8937514939293L315.7089519559959,284.96542878619584L315.7983804637323,285.139111346873L316.4072396610308,286.3215998153125L319.25388737956473,291.8501702064475L348.5292068909922,348.7058885660822L340.7451546480516,353.42670528125007L313.41545039226577,320.82934247856116L311.910286950124,319.0340498522023L310.3286423570142,319.9308032505438L298.4300575840303,320.20846342610866L296.1952986607089,320.9215559999279L293.35953684699876,322.68647685252427L286.72095352285777,326.81853198717204L284.30957719545495,330.00513581987957L284.03056776850167,334.93019376177153L285.051015157347,336.9992475193916L282.6069668495531,343.610191045403L281.43482076807356,344.1790172050976L272.3637615477713,340.7502673448606L268.11137747186996,342.8004280071174L261.72516123965187,342.4457791377765L260.4052544973799,344.0789780125166L257.66373441848623,349.48375275796445L254.09684781317677,352.0381263784981L253.84554470925926,356.10338733759545L257.1130314536829,357.67469665820363L264.6288531334629,358.32719629822725L267.84580291189604,361.8901013178724L267.3014470725425,366.7207957904303L260.44360358594133,371.19941607630165L254.34300344801164,378.4402151609348L255.54974781878406,385.77515743570666L250.26646858538993,390.5315286986857L244.84730320898313,388.6002237135168L243.48619285593006,388.4786077140558L235.56048073662146,391L228.68929443976606,384.22245436520075L224.08348191984504,389.69143434656127L221.83627924949258,389.898354204049L220.7654547057099,388.39965389398265L219.99306473579514,385.1239773124379L217.9922906997383,384.2646515308755L215.45331604921964,384.1160299110184L214.23421482508354,383.0444427404043L213.6631215034315,378.06129941776265L211.75917932964612,377.48793801643L211.3101351327855,380.9729832101072L208.92218084147098,379.1961349134532L206.9717148427988,378.3363306069815L206.94792388774724,377.33002126571796L206.9448858586647,371.00618872214113L226.73208454661778,370.91639222331565L237.65752254867567,370.65928785718893L237.5624982231851,368.67608676243634L238.2352579853943,368.622802222876L238.38737162517936,340.305916401832L244.6014707776992,337.3867208345173L246.38282454761918,336.25777698382416L248.07275277495856,336.25087732818383L248.07698011215652,335.92697878975054L248.08175411929807,335.6964946736039L255.1120436897005,333.82945384807965L256.2666618375507,331.8010433070431L258.9864621774009,328.91246251621044L261.6548260135056,326.07851846457066L262.7945934935601,324.86815186617497L263.6594420801395,322.49683266576994L263.69926327506045,320.13012731448896L263.7297516526142,318.07486197082204L263.7540441248334,314.78581557826874L263.7952006294302,309.2289635415659L269.24577398509797,309.1665759402622L269.1334146250123,308.738319810103L268.7889109473743,306.7339323352393L268.7957696516409,304.17749494494774L268.79114221137377,303.7635047494099L268.78869751221066,302.36941090023856L268.7732197760998,299.01373120639124L268.7680191993695,297.0644395240716L268.7649082458245,296.440622106404L268.7598613574246,293.86316126640634L268.76832542093007,291.42641149055083L268.7755622879209,288.7076735963768L268.81177870232807,278.3781310394405L268.81085447690725,277.01246516645915L268.81007658527676,275.80677190102824L268.80205393603325,274.57210185876255L268.79713768790657,273.3216581623734L268.79721219525067,273.1103495220118L268.7971645401127,269.97340778652494L268.804332780677,269.3692365559948L268.79806910703775,268.08491015835125L273.8604615156578,268.1346652804632L274.11833610828904,268.13762667968757L276.95914744869185,268.1391167051133L279.2365599145279,268.1396509448495L280.926951669495,268.1306729802193L284.42387233037493,268.0643846844738L286.9059750790616,268.0640026497749L289.5806071110266,268.07964988143175L290.63110799849727,268.07751267545075L291.85315338412977,268.1029720909633L292.14311514235425,268.1090130001597L292.80489143159207,268.10581337033705L293.6648718388259,268.10977628047283L294.09850459081383,268.11177335664433L294.7428917258155,268.1137853096408L295.98500178093917,268.10517515755856L296.64476065094277,268.09876899614324L297.31642322257704,268.09285458670604L298.93642032673864,268.0777222441692L299.88823021850857,268.06883207828173L301.02927982480196,268.06519307753933L305.0291452136209,268.0612512579614L305.74039125368256,268.0525753555321L306.3398587118033,268.0451841641058L306.41438085546423,268.0442656047626L306.5355199584832,268.03070288937084L306.6466055141233,268.01270947454606L306.75675232015124,267.989626266483L306.8657280801313,267.96149980627456L306.9733041454025,267.92839204884154L307.0792536987804,267.89037201568476L307.18335426227674,267.84751966727356L307.28538708916506,267.79992333420944L307.3851377414736,267.74768484742646L307.4823948818295,267.6909137599624L307.57695599544854,267.6297293365105L307.66862165291,267.56425984451164L307.757199317236,267.49464452100926L307.84250150489373,267.42102714619944L308.3820047622222,266.90922632641286L308.82208026395546,266.478576866519L308.9033477927596,266.4098458944128L309.00462483390106,266.33032109987124L309.10897058204046,266.2548990072895L309.2162240430373,266.18369681439907L309.3262153091996,266.11682969103686L309.41697095720514,266.06849494548413L309.5256066678977,266.0161762425458L309.6363718631525,265.96856191801726L309.7490644303064,265.92573729765354L309.86347782645134,265.88778445236426L309.9794031302032,265.85477069459705L310.09662832725525,265.82675497439783L310.18314078478943,265.8110739382968L310.6752959180814,265.7228233770279L312.3039462364585,265.44559482845466L312.36196174145687,265.4378688505311L312.4228539012634,265.43299828461323L312.4895806991014,265.42369900206324L312.5519174210456,265.42051078634177L314.29589479207556,265.4232181759454L315.26280608720134,265.43580308262017L315.63478977282256,265.4829143964482L315.9287694091441,265.4931751456223L316.54724820527935,265.48708362135477L316.6560557855098,265.48624261579835L317.31166562224945,265.4841486468881L317.97017549833606,265.48115236729126L318.1755507413374,265.4813704410142L318.48068395378783,265.47989085169013L319.17588319809994,265.4772082671874Z" stroke="null" id="DENFELD HS" transform="translate(0, 1) translate(0,0) scale(1)" style="fill: rgb(222, 163, 129); mix-blend-mode: normal;"/></g><path d="M316.4280975576261,284.48844054964246M314.2947035672952,277.24118013252564L313.8955610840755,276.88095259111753L313.3662727555778,276.4032668165639M316.54724820527935,265.48708362135477L315.94527567182627,265.5002170234799M312.58367001033355,265.4209012880168M309.00462483390106,266.33032109987124L308.9033477927596,266.4098458944128M307.18335426227674,267.84751966727356L307.0792536987804,267.89037201568476M306.5355199584832,268.03070288937084L306.42372911987474,268.04356894974467M293.6648718388259,268.10977628047283L292.80489143159207,268.10581337033705M289.5811837096142,268.07964885756905M274.1187890984956,268.13762691720666M268.8146828462407,268.07672064401277" stroke="rgb(255,255,255)" transform="translate(0, 1) translate(0,0) scale(1)" style="stroke-width: 0.45; stroke-linejoin: round; stroke-linecap: round; fill: none; mix-blend-mode: normal;"/><g id="labels-svg"><g id="EAST-svg HS-svg"><text transform="translate(306.7380676269531, 126.64524841308594)" fill="undefined" style="stroke: rgb(255, 255, 255); stroke-width: 4; stroke-linejoin: round; stroke-linecap: butt; opacity: 0.5; font-family: BentonSans; font-weight: 400; font-size: 10px;"><tspan x="2.0234375" dy="10">EAST HS</tspan></text><text transform="translate(306.7380676269531, 126.64524841308594)" fill="rgb(60, 14, 0)" style="opacity: 1; font-family: BentonSans; font-weight: 400; font-size: 10px;"><tspan x="2.0234375" dy="10">EAST HS</tspan></text></g><g id="DENFELD-svg HS-svg"><text transform="translate(248.80160522460938, 317.4888610839844)" fill="undefined" style="stroke: rgb(255, 255, 255); stroke-width: 4; stroke-linejoin: round; stroke-linecap: butt; opacity: 0.5; font-family: BentonSans; font-weight: 400; font-size: 10px;"><tspan x="1.90625" dy="10">DENFELD HS</tspan></text><text transform="translate(248.80160522460938, 317.4888610839844)" fill="rgb(97, 51, 23)" style="opacity: 1; font-family: BentonSans; font-weight: 400; font-size: 10px;"><tspan x="1.90625" dy="10">DENFELD HS</tspan></text></g></g></g></g><g id="footer-svg"><g id="footer-inner-svg"><g id="footer-main-svg"/></g></g></g></svg>