<svg xmlns:xlink="http://www.w3.org/1999/xlink" xmlns="http://www.w3.org/2000/svg" id="exportSvg" width="600" height="400"><defs/><g><g id="header-svg"/><g id="chart-svg"><g id="map-svg"><g id="regions-svg"><path d="M328.44354185027055,255.81131622198626L328.1283169032929,256.18602202256716L327.7856771930192,256.61425141347314L326.9221944791972,257.720493691012L330.6107838698494,262.00161817744606L331.1593406434807,262.62591652928023L331.39248757377027,262.91131172772333L333.2988962727682,265.1052064903429L333.2714892400523,265.1587366171324L332.9151000082972,265.533493895486L332.901962960047,267.56733739103805L333.3134497804787,267.9775549006793L332.9708739301793,268.7983260968257L333.09437503844487,269.10158263678L335.5784917062107,275.0774209424632L336.8551686640067,278.16338988270996L334.30462114672827,280.14460697394065L330.0668393776751,283.44625395108534L325.1286946394706,287.28271315692297L321.0814208198677,290.4406217574185L319.2565003290031,291.849944002294L316.40337190789023,286.31901046731446L315.7039326671247,284.96300704644943L315.6627863109058,284.9094780527739L315.7039446014029,284.89164427436236L315.84113765274344,284.8381449237691L315.9783331760654,284.7668043874353L316.11552818779484,284.69546335840306L316.23900708871747,284.6062790405956L316.3762010388689,284.53493707539985L316.43108217810817,284.48142318087696L316.5133996898415,284.4279132310482L316.77407153382165,284.24954353964404L317.19937686015567,283.9284680036444L317.15823183075725,283.8570999259524L316.7056164399664,283.2861364644682L316.2804525730518,282.6973311319092L315.78669107548683,282.25123533546844L315.2655128251589,281.7694468657553L314.7306271279553,281.3054893314055L314.2094750637929,280.82368644636546L313.6609025323913,280.341870395187L314.26458055239584,279.6640526029203L314.86823718535686,278.98622526434946L315.4444340820579,278.34406499861575L315.48558849957067,278.3083907583523L314.96446444657744,277.84443884023085L314.4296408791979,277.36263636078854L314.2925090818791,277.23772369543826L313.89483078674954,276.8808263889484L313.36003416952144,276.39900892496223L312.8389662392261,275.91718729779524L312.674418884986,275.7744214619243L312.3727534393115,275.50673535549004L311.94768592449844,275.1319700724641L311.45407263316946,274.68581821619097L310.9741802788763,274.25750467137686L309.8499075577115,273.24024077613467L309.8499304214271,273.1688779911111L310.8236246762034,273.22270003900763L311.9756307252308,273.1873414704471L312.70248505081884,273.18752727967956L313.3196214218676,273.2055148809054L314.8007558415501,273.223667464761L315.80189577282385,273.2238457454513L315.81572147278723,272.54590152395315L315.8295262012258,271.99284216987724L315.8981762734392,271.4933138486442L316.0353889541489,271.0116370521865L316.20000821615866,270.63700819352573L316.5977869040219,269.99480247290467L317.5304347464329,268.6747138521274L317.8321780216912,268.0860057367979L318.2710643249765,267.1940173606265L318.47678449204614,266.78370137443574L319.17619293802596,265.4813903484294L319.3681803059932,265.10674989453776L319.423036900545,264.9461874890989L319.4504681196157,264.82130450819557L319.477901609596,264.66074010846376L319.5327690980631,264.3217705491238L319.5328350676425,263.3405320668305L319.4506018061057,262.8945089440293L319.19020619825557,261.52075605028693L319.05316407395395,260.78927662830887L319.01204481383445,260.6643884170909L318.943509378467,260.5038165010176L318.82013754615707,260.3253990849818L318.69676527588405,260.1648219704442L318.5733923948806,260.02208515753796L317.92910966514177,259.4332770263001L317.7098039298361,259.0585976973082L317.47683665275275,258.3271014264612L317.4357382656997,258.0951673059608L317.4357731241261,257.80971608673093L321.3976890001266,252.58266917246033L323.042487302015,251.65494757991462L328.19663567902694,254.79443640467264L328.292649814294,255.16907570629346L328.81354821962435,255.18682839162938Z" stroke="null" id="Congdon" transform="translate(0, 1) translate(0,0) scale(1)" style="fill: rgb(179, 120, 98); mix-blend-mode: normal;"/><path d="M277.7852994850648,155.94942057460406L277.786795606107,154.66488983135463L278.265304616375,154.6654441269288L278.2648318457517,155.0757803411274L278.5109248511672,155.07606306664482L279.08514187240456,155.0767165699668L279.11004650176386,157.2354728184775L279.2604452084169,157.2356424416221L279.90305787325855,157.23636049924508L280.0944744145568,157.23657229108753L280.2312005162823,157.23672298147054L280.3269087878906,157.2368281724441L280.6960692670649,157.2372316541793L280.81912276117964,157.2373653522615L280.9968859704055,157.21971706310447L281.325028472111,157.22007011309955L281.6394983730429,157.22040579744868L281.9129504635482,157.2206955844818L282.2684381849821,157.22106936991727L282.4461820472859,157.2212550173053L282.77432456508234,157.2215955697686L282.9247232202572,157.22175071064842L283.0887944813057,157.22191927731447L283.23919313804174,157.2220731753171L283.4169370060486,157.22225428842128L283.676716507278,157.22251749877208L283.84080571135166,157.20484211595766L283.96385910303,157.20496564496068L284.0595672968859,157.20506144797469L284.1689480902309,157.20517064237401L284.20996588782367,157.20521150921996L284.21064099714766,156.52726463072415L284.26527719819734,156.58084117235262L284.31994898289014,156.59873622076742L284.37458544061093,156.6523126054046L284.44287681502635,156.7237431526813L284.49754888854443,156.741637945877L284.56587585314736,156.77738685748744L284.606893189717,156.77742729658272L284.66154786286575,156.81316256158487L284.7025477027523,156.831043605061L284.7845824916844,156.8311241443754L284.7847749569221,156.63487636147835L284.83956936174167,156.52788571056544L284.8532941121993,156.47437697418417L284.88069114169554,156.42088160930228L284.97651921438404,156.29609015360433L285.086001531198,156.1891524670482L285.12701823380525,156.1891923456388L285.1680176189565,156.20707288768907L285.2090170426342,156.22495338555004L285.2225682468253,156.34985159293203L285.1677059047136,156.52820562573902L285.16763663511523,156.59956845642012L285.30410165341317,156.86731153530317L285.34508461915175,156.90303259412508L285.42703358613653,156.9923152870615L285.5908299640855,157.2779243902298L285.6181067924302,157.3493134492768L285.65900514110484,157.4742377090035L285.6726265972653,157.52777292437983L285.6999208264012,157.58132121686938L285.71354237883963,157.634856417578L285.7817528900476,157.7954881004729L285.80904746566455,157.84903631462115L286.09592369460177,158.11691969814555L286.13695933725097,158.09911777968367L286.17797809889333,158.09915652501866L286.21899686059885,158.09919522613498L286.2600156223552,158.09923388303946L286.301017599264,158.1171132038116L286.34201961469614,158.13499248040455L286.6288352294916,158.47423467762L286.77923883877173,158.47437458335855L289.2950965087097,158.45878598225394L289.3498040640448,158.44099238485765L289.3508943039335,157.17430203982974L289.3527984417246,154.96205411498335L289.4483631948006,155.12270274719975L289.5979610437749,156.05054838742262L289.80240775394947,156.80003280821293L289.91147043579,157.17478039002472L291.92134102616996,157.17642756890623L292.5639665827329,157.15909111159718L293.2065779990296,157.15958451233234L294.4918008614991,157.16053875836442L295.77703610513277,157.14360888623392L297.06225843995634,157.1444763174527L297.0631037465025,155.85994510937107L298.11586798841705,155.84278259362347L298.36196597902574,155.84293693271312L298.36276745631875,154.55840570362648L298.6772153857568,154.55860059333776L299.6342413706349,154.54133703465985L301.5619430664113,154.54242651287922L301.5619045397556,154.61378936163774L301.5612399623736,155.84479850331786L302.20383853362785,155.82729925708625L302.2033253788811,156.808538435515L302.20315743920503,157.1296712576502L303.488379327527,157.1303216524575L303.8028485169713,157.13047418178832L304.77360124170707,157.13092864004898L304.77477936574684,154.5440252853593L309.90164610097594,154.54601467595376L317.16024255306957,162.61165282600166L317.0778938231903,164.89525348903112L316.5697099385752,180.00626797075176L309.8233259005556,185.446108102723L310.3702181815031,186.8021747864792L313.9943504263657,195.84836040873876L322.3021523334323,216.50876643073514L324.2880505600157,221.4505808875178L330.4385566381469,226.71274163472378L328.52141114779204,229.76387357777787L330.52188695716126,231.90436944102944L321.13764861909067,237.16829479000685L318.4245361486138,239.79071345549403L316.4374235892118,241.71726634617332L319.4381294897198,245.14300924743435L321.3976890001266,252.58266917246033L321.37027428860034,252.6361907640968L317.43577530278344,257.7918753854958L317.4357382656997,258.0951673059608L317.47683665275275,258.3271014264612L317.7098039298361,259.0585976973082L317.92910966514177,259.4332770263001L318.5733923948806,260.02208515753796L318.69676527588405,260.1648219704442L318.82013754615707,260.3253990849818L318.943509378467,260.5038165010176L319.01204481383445,260.6643884170909L319.05316407395395,260.78927662830887L319.19020619825557,261.52075605028693L319.4506018061057,262.8945089440293L319.5328350676425,263.3405320668305L319.5327690980631,264.3217705491238L319.4504681196157,264.82130450819557L319.423036900545,264.9461874890989L319.3681803059932,265.10674989453776L319.18990576652664,265.4635506976999L318.47690801325166,265.4813303476857L318.1752556931965,265.48130051147103L317.9695836569667,265.48127880233767L317.3114331420505,265.48120188882973L316.65328262886095,265.4811136316672L316.5435908768448,265.4810978192839L315.94028336601014,265.4988459178026L315.63863392497984,265.4809553440339L315.2684306427253,265.44520947924195L314.2949209052974,265.42718212804726L312.5809897117307,265.4267932027462L312.4850095655396,265.42676914829383L312.4301637677457,265.42675529457813L312.3616019747598,265.4445785654543L312.3067561514395,265.44456453448544L310.6750075949014,265.7295622583278L310.1813636923981,265.8186148341708L310.0990941528516,265.81858906099876L309.97567852550924,265.8542314657907L309.865974283474,265.88987786817495L309.74255820855876,265.9255195195183L309.63284772548764,265.9790059505167L309.52314280563286,266.01465136795645L309.41343175979773,266.06813716852207L309.3311438041375,266.1216318357911L309.221426171753,266.19295778293986L309.11170813003434,266.26428341478754L309.0294193301287,266.31777743175576L308.9059826195073,266.4069384737504L308.82368702831906,266.47827274544284L308.3847549538074,266.9062943926551L307.84980151824254,267.405638078581L307.7537829280009,267.4948056210153L307.6714828468288,267.56613740867994L307.5754702164963,267.6374638049712L307.4794640513518,267.69094926221936L307.3834576176281,267.7444344780903L307.28745091531397,267.79791945256625L307.17773162553095,267.8513988288837L307.08173137573715,267.88704258864226L306.97201860248276,267.92268067643363L306.86230562464857,267.95831844900823L306.75259244224833,267.9939559064003L306.64288626885946,268.01175235120536L306.53317999325805,268.0295484808539L306.4234736154515,268.04734429534847L306.34119928079076,268.047310426414L305.7378541626557,268.0470566380999L305.0385143652434,268.06459124377693L301.0344950733461,268.0625921494539L299.8826539570539,268.06193931210976L298.93648796340034,268.07921775893294L297.3184131954924,268.0960426032433L296.6465052962096,268.0956006211259L295.98829762741497,268.11299689184875L294.74046813311793,268.11212319664105L294.09598478176537,268.11165597982244L293.6709000234108,268.11134186275234L292.8070181084108,268.11068891664667L292.1625347868557,268.11018907028915L290.6267741594593,268.07327271865734L289.584631952393,268.0723995328373L286.9107145845694,268.07002902477694L284.42877095898064,268.0676611626016L280.93203354146124,268.1354142760234L279.23169360946457,268.13354329576543L276.95541118481543,268.14876077097045L274.1169396450868,268.145299571003L268.8103074623868,268.08474064844546L268.7890279562191,263.6780530355876L268.79007295129423,262.92874421189333L268.79360612970635,260.3953666962455L268.81097257952365,257.7728047839362L268.8174408069143,253.13422580526202L268.7985898910652,246.99699026638524L268.7890684671488,243.99973507039778L268.78495497047254,237.13104955167228L268.7993300333049,226.83696933076536L268.84910425082484,201.0036597571076L268.84257020740085,195.88336012266174L268.8426449941987,195.829838026032L268.8484287148989,191.69079584122377L268.77126284752137,188.15822249629306L268.52951644504367,175.18766885214703L268.73537927146987,164.94737580391973L268.77358068942607,157.20455010512063L270.05880489343417,157.20632955309912L271.3577017688056,157.20808382895473L273.9281505326214,157.211424764874L275.21335303188783,157.23087082554696L276.49857818277525,157.2324327758331L277.7838033970128,157.23395131880324L277.78455143691497,156.59168594659903Z" stroke="null" id="Homecroft" transform="translate(0, 1) translate(0,0) scale(1)" style="fill: rgb(179, 120, 98); mix-blend-mode: normal;"/><path d="M309.90164610097594,154.54601467595376L304.77477936574684,154.5440252853593L304.77360124170707,157.13092864004898L303.8028485169713,157.13047418178832L303.488379327527,157.1303216524575L302.20315743920503,157.1296712576502L302.2033253788811,156.808538435515L302.20383853362785,155.82729925708625L301.5612399623736,155.84479850331786L301.5619045397556,154.61378936163774L301.5619430664113,154.54242651287922L299.6342413706349,154.54133703465985L298.6772153857568,154.55860059333776L298.36276745631875,154.55840570362648L298.36196597902574,155.84293693271312L298.11586798841705,155.84278259362347L297.0631037465025,155.85994510937107L297.06225843995634,157.1444763174527L295.77703610513277,157.14360888623392L294.4918008614991,157.16053875836442L293.2065779990296,157.15958451233234L292.5639665827329,157.15909111159718L291.92134102616996,157.17642756890623L289.91147043579,157.17478039002472L289.80240775394947,156.80003280821293L289.5979610437749,156.05054838742262L289.4483631948006,155.12270274719975L289.3801113420675,154.99775905779228L289.3508943039335,157.17430203982974L289.3498040640448,158.44099238485765L289.2950965087097,158.45878598225394L286.7929118941953,158.47438727258447L286.7382196725405,158.47433648619952L286.6288352294916,158.47423467762L286.5057777314937,158.47411976715105L286.301017599264,158.1171132038116L286.2600156223552,158.09923388303946L286.21899686059885,158.09919522613498L286.17797809889333,158.09915652501866L286.13695933725097,158.09911777968367L286.09592369460177,158.11691969814555L286.05492181410045,158.09904015637812L285.7817528900476,157.7954881004729L285.71354237883963,157.634856417578L285.6999208264012,157.58132121686938L285.6726265972653,157.52777292437983L285.65900514110484,157.4742377090035L285.6181067924302,157.3493134492768L285.5908299640855,157.2779243902298L285.57720871330304,157.22438914553945L285.34508461915175,156.90303259412508L285.30410165341317,156.86731153530317L285.26313603712845,156.81374972462723L285.1677059047136,156.52820562573902L285.154102844019,156.45682952177222L285.2226201223138,156.29632946987235L285.1680176189565,156.20707288768907L285.12701823380525,156.1891923456388L285.086001531198,156.1891524670482L285.04496745344085,156.20695325187967L284.9354849701214,156.31389082040573L284.8532941121993,156.47437697418417L284.83956936174167,156.52788571056544L284.8395169479863,156.5814078332279L284.7710150462724,156.72406648824563L284.7025477027523,156.831043605061L284.66154786286575,156.81316256158487L284.62054806149973,156.79528147393316L284.56587585314736,156.77738685748744L284.5248761352508,156.75950566673447L284.44287681502635,156.7237431526813L284.40191256538645,156.67018041459042L284.31994898289014,156.59873622076742L284.26527719819734,156.58084117235262L284.21064099714766,156.52726463072415L284.20996588782367,157.20521150921996L284.1689480902309,157.20517064237401L284.0595672968859,157.20506144797469L283.96385910303,157.20496564496068L283.86815090945555,157.20486960123264L283.676716507278,157.22251749877208L283.4169370060486,157.22225428842128L283.2528657432312,157.22208713657358L283.0887944813057,157.22191927731447L282.9247232202572,157.22175071064842L282.77432456508234,157.2215955697686L282.4461820472859,157.2212550173053L282.2821107897386,157.221083679961L281.9129504635482,157.2206955844818L281.6394983730429,157.22040579744868L281.325028472111,157.22007011309955L280.9968859704055,157.21971706310447L280.81912276117964,157.2373653522615L280.6960692670649,157.2372316541793L280.3269087878906,157.2368281724441L280.2312005162823,157.23672298147054L280.0944744145568,157.23657229108753L279.90305787325855,157.23636049924508L279.2604452084169,157.2356424416221L279.13739172109683,157.2355037032605L279.112485540384,155.0767474730333L278.5109248511672,155.07606306664482L278.2648318457517,155.0757803411274L278.265304616375,154.6654441269288L277.786795606107,154.66488983135463L277.7852994850648,155.94942057460406L277.78455143691497,156.59168594659903L277.7838033970128,157.23395131880324L276.49857818277525,157.2324327758331L275.21335303188783,157.23087082554696L273.9281505326214,157.211424764874L271.3577017688056,157.20808382895473L270.05880489343417,157.20632955309912L268.77358068942607,157.20455010512063L268.77713121826014,154.67117062929026L268.74875513844717,135.9205180347572L268.60067503928894,124.62712498294286L268.5267859067026,118.9001453301232L268.59681395233184,117.66923336893701L268.5047083357208,86.1802128253866L265.248890409579,82.28619761551728L265.4832911062065,62.394136024207356L265.5765550535091,0.005291714025133842L304.34113239120967,0.7034264576750502L337.2379048553703,0.2228692232755236L348.60733838654306,0.18093605789798062L392.4373101550292,0L392.4041165720976,33.43357873483204L392.5923770295385,39.392033397223145L391.9872251107605,110.47066557254817L392.0058064694936,113.14674358667223L392.1588648078892,144.33209229678462L392.182877469025,164.795389491899L392.1876728333189,167.40013031257644L392.2017620805285,175.05378650567633L392.2064252462576,177.58716452028284L392.23442457892986,185.36568015792795L392.23570535079557,186.061467056388L392.29858758908233,190.48585723012638L392.3170710000938,193.09057263268156L392.332991933826,194.3037142603184L392.37233386977545,200.79767445149054L392.32172081240583,203.04570209015856L392.39546097750133,205.91792665809413L392.4279641880212,216.12277436583219L392.47572524174086,219.74435781660668L392.47608718893804,219.9406053588958L392.49116455169025,220.68988887475604L393.05383672736383,221.3132721888835L392.26070452754675,221.9748473053092L392.50782240017975,222.29552527481238L392.52500805738197,224.18661260307744L392.5556617562789,225.95278979669763L392.54295226242596,226.4880356342154L392.5361018748349,230.19892323808307L392.5138701962587,232.99996114184324L372.0413770565098,250.19503256966442L372.0003057054771,250.23076773001327L371.83711099950307,240.68619402499522L371.83659986720704,240.29369876443172L371.2610977460322,240.29444457512102L371.0967830044679,240.38385953972895L370.93196565380583,240.08077852543056L371.1512033326579,240.08049732149595L371.0413330090633,239.8843904453077L370.93146381074905,239.68828325260745L371.109386544858,239.5274886244394L371.8485360556965,238.9377881691098L371.8613546203757,238.2598239274488L371.860866432215,237.8851693499891L371.55940884781137,237.86772059819214L371.3538854338774,237.86798646616217L371.17576514038973,237.86821598950314L371.1755129422472,237.67196834943138L371.17528367046975,237.49356140352114L371.2984586009874,237.3863584251584L371.4490585939615,237.29696030943254L371.76393455334403,237.10030376674015L371.8734053138107,236.9931167633141L371.5582766303249,236.99352657054092L371.1749626887992,237.24379167861412L371.09282333312706,237.29741941472656L370.53152024594465,237.65495052824804L370.3931742135222,236.6025231973848L356.9802108294929,237.08100190879253L344.45740614329793,237.375846261682L342.82818048337447,239.66037687612845L332.3910425423402,254.31183740670792L326.9221944791972,257.720493691012L327.7856771930192,256.61425141347314L328.1283169032929,256.18602202256716L328.44354185027055,255.81131622198626L328.81354821962435,255.18682839162938L328.292649814294,255.16907570629346L328.19663567902694,254.79443640467264L323.042487302015,251.65494757991462L321.3976890001266,252.58266917246033L319.4381294897198,245.14300924743435L316.4374235892118,241.71726634617332L321.13764861909067,237.16829479000685L330.4397021041323,231.95790961491446L330.52188695716126,231.90436944102944L328.52141114779204,229.76387357777787L330.4385566381469,226.71274163472378L324.2880505600157,221.4505808875178L311.9153884355247,190.6740543212332L311.19061944849994,188.87194149381432L310.3702181815031,186.8021747864792L309.8233259005556,185.446108102723L316.5697099385752,180.00626797075176L317.0778938231903,164.89525348903112L317.16024255306957,162.61165282600166Z" stroke="null" id="Lakewood" transform="translate(0, 1) translate(0,0) scale(1)" style="fill: rgb(179, 120, 98); mix-blend-mode: normal;"/><path d="M370.3931742135222,236.6025231973848L370.53152024594465,237.65495052824804L371.09282333312706,237.29741941472656L371.1749626887992,237.24379167861412L371.5582766303249,236.99352657054092L371.8734053138107,236.9931167633141L371.76393455334403,237.10030376674015L371.4490585939615,237.29696030943254L371.2984586009874,237.3863584251584L371.17523781602983,237.4578800142923L371.1755129422472,237.67196834943138L371.17576514038973,237.86821598950314L371.3538854338774,237.86798646616217L371.55940884781137,237.86772059819214L371.860866432215,237.8851693499891L371.8613546203757,238.2598239274488L371.8485360556965,238.9377881691098L371.1230658004978,239.5096303281187L370.91773879185394,239.67046009160833L371.0413330090633,239.8843904453077L371.1512033326579,240.08049732149595L370.93196565380583,240.08077852543056L371.0967830044679,240.38385953972895L371.2610977460322,240.29444457512102L371.83659986720704,240.29369876443172L371.83711099950307,240.68619402499522L372.0003057054771,250.23076773001327L371.7675588667508,250.42731923930614L362.57893017688207,258.12751772484035L356.2635593004607,263.0577268940625L350.90584639519733,267.2190287552671L346.067836994059,270.9867595716688L338.65135707951833,276.7532388947722L336.8551686640067,278.16338988270996L332.9708739301793,268.7983260968257L333.3134497804787,267.9775549006793L332.90196799890055,267.58517808912893L332.9019428046172,267.4959745986349L332.9151000082972,265.533493895486L333.2714892400523,265.1587366171324L333.2988962727682,265.1052064903429L331.39248757377027,262.91131172772333L331.1593406434807,262.62591652928023L330.6107838698494,262.00161817744606L326.9221967288267,257.7383343922651L332.3910425423402,254.31183740670792L340.93857819751,242.30178130450182L344.45740614329793,237.375846261682L351.23946941025685,237.21070312642865L356.9802108294929,237.08100190879253Z" stroke="null" id="Lester Park" transform="translate(0, 1) translate(0,0) scale(1)" style="fill: rgb(179, 120, 98); mix-blend-mode: normal;"/><path d="M274.0328356194018,313.3000261735232L277.63072564464187,312.44802580593114L280.5949764468454,313.43259630198213L280.9658226135352,313.27243074673004L281.2404897630296,313.18352173419595L281.41901798953677,313.1301899869609L281.5014081926196,313.1124368513401L281.7348310203473,313.07700256567074L281.9819632490064,313.0594219354282L282.3937819860826,313.0955331453391L282.53106735550784,313.0956754463006L282.7643975270431,313.14943825284854L282.8330037337664,313.18519015034633L282.9977101419295,313.22104031095546L283.4642660130172,313.4356028579276L283.5877342649844,313.524930869572L283.7661001321709,313.63215424542904L283.95814247694307,313.7929125109488L284.0267332189555,313.8465029413785L284.0678665022594,313.90006595111805L284.2324713270128,314.0429548448906L284.3147566035711,314.1322397012988L284.575378691445,314.3644253297117L284.65770033225687,314.41802809641285L284.9045973510308,314.6501980345622L285.1103442833771,314.84664520992794L285.37097605946343,315.07882541075196L285.6178476878009,315.3466720896544L285.6727141733159,315.40024646531265L285.82358513060694,315.56095609859153L285.89219851197095,315.59670250447607L287.0856320534488,316.72177730083956L287.2228167370681,316.8467874840171L293.35569828059107,322.6857929926224L286.71933471942634,326.8192697595674L284.3128323969963,330.01045140865745L284.1592447738631,332.54367674577463L284.0332518137802,334.9342033139004L285.0477429123216,337.0047182490342L282.6094795020706,343.6033322211165L281.4410197492642,344.17301069503543L272.36351779438525,340.7547210251569L268.11545104341764,342.80064461003656L267.85672787940837,341.15893523023635L268.04911841646145,341.1235260158596L268.17276560859347,341.12370042555585L268.2689356473844,341.1238358014017L268.37886925173774,341.10614956438945L268.4888276913571,341.07062235518754L268.5438566575716,341.0171773190944L268.58519673553826,340.9280316844715L268.59905967212205,340.838847607514L268.59920898799265,340.73180366746186L268.5444794459471,340.57116090299064L268.47588732506125,340.4997020978695L268.43472219026285,340.46396301838814L268.4073204357113,340.4104025128546L268.31125226694996,340.3389048572301L268.17409506745895,340.1781456297817L267.9134466290337,339.9101671199148L267.85867068026045,339.7852046837123L267.87250967816186,339.7138615235732L267.8588977638844,339.6246387723411L267.8041981755382,339.4461542862151L267.81806240566345,339.35697048816513L267.77715181406205,339.14282412949683L267.77722762439714,339.08930215831606L267.832305240237,339.00017682869253L267.9148581695618,338.91109032849533L267.95609670992496,338.8933079974849L267.9837736610838,338.750621598529L267.9291503538107,338.51861531422327L267.9019271951738,338.34016984103016L267.8882904926434,338.26878775434506L267.8610677057857,338.09034225078176L267.8611938669649,338.0011389627099L267.86126956376563,337.94761698975447L267.8613957252555,337.8584137013307L267.8614714222425,337.8048917281747L267.8615471192995,337.75136975494127L267.8479359441831,337.6621469948715L267.84801166059776,337.60862502146017L267.84808737708227,337.55510304796655L267.834476304655,337.465880282621L267.8623293263129,337.1983093603857L267.8624050241618,337.14478738628014L267.86248072208053,337.0912654121098L267.9038938278311,336.9485985303538L267.97265477995086,336.8951737622631L267.97273032482286,336.84165178756905L267.9040451092214,336.8415545812406L267.86288444549416,336.80581488187715L267.8217491105275,336.75223447998343L267.7943508826471,336.69867352921824L267.76695273155735,336.6451125587281L267.71213135655364,336.55583121687L267.698546273398,336.44876774229687L267.69877406027285,336.28820181733187L267.6439786925229,336.18107971837054L267.6441053691052,336.0918764263224L267.6852144281457,336.1632976788059L267.76758467346934,336.19909610023774L267.79513409440176,336.14561312024915L267.7952351545272,336.0742504862416L267.75407541830674,336.0385106688402L267.6991283966654,336.03843259935525L267.6993055654341,335.91354798975624L267.7131940969985,335.806523563007L267.6859485992764,335.6459185810928L267.7134977396482,335.59243565917086L267.7273608214393,335.5032518851726L267.7411985486332,335.4319087647555L267.7412997122536,335.36054612952466L267.7414261669542,335.27134283528136L267.74150203986795,335.2178208586374L267.74157791285177,335.1642988819193L267.74170436798033,335.075095587218L267.7418308233035,334.98589229230896L267.7419572788212,334.8966889971829L267.7420584433754,334.8253263609379L267.7421848992433,334.736123065441L267.7010266533311,334.70038318927084L267.57740016883827,334.7002072492853L267.4400119773068,334.71785195099324L267.28888737020844,334.7354764873498L267.0690811490897,334.75300172098355L266.849274725696,334.77052569219103L266.7805674816641,334.7882671270894L266.698123860135,334.80598855442935L266.5882075219579,334.82366996182583L266.2584578973212,334.8767122899687L266.1485151199627,334.9122330928856L266.05233458037395,334.9299330427564L265.8049753666566,335.00093274398034L265.6263235556954,335.0541916070731L265.48890685193874,335.0896699626958L265.43393482618404,335.1074292983447L265.26899200173534,335.17854748916864L265.2140197465248,335.1963065089624L265.11783806094866,335.21400411047966L264.92547442273127,335.24939858840673L264.81552933914554,335.2849155622639L264.7193205495343,335.320452819622L264.6509053491737,335.141943201215L264.19824959300587,334.7130842376628L263.62042795734635,335.30094863641887L263.56556369561923,335.2473426619165L263.5658087996545,335.0867767518123L263.5667075202576,334.49803507559955L263.5680964700475,333.58816155810734L263.56902244868235,332.9815792010936L263.569158622828,332.89237591248815L263.5694854416323,332.678288018995L263.638163198033,332.678393006839L263.6382448070577,332.624871033163L263.638435228408,332.4999864276342L263.51481584223745,332.49979736145735L263.26757707214296,332.4994180310698L262.9928673310975,332.49899467939235L262.8692479488307,332.49880352774505L262.7456285673288,332.4986119767486L262.6220091865747,332.49842002640753L262.52586077983415,332.4982704556087L262.3472994542703,332.4979920403395L262.2236800759502,332.4977988032217L261.9764413215997,332.497411130943L261.70173159813766,332.4969785104935L261.57811222380707,332.49678318789597L261.33087347746635,332.4963913446715L261.0561637629294,332.4959540898402L260.93254439263734,332.49575668177204L260.68530565437965,332.4953606676016L260.41059594886923,332.49491877837926L260.28694782016976,332.51255994089223L260.0397089750549,332.51215975563105L259.7649991508459,332.51171323186395L259.696321695404,332.5116012927839L259.6413797312278,332.51151165277975L259.3941408943673,332.51110729656824L259.1194310793751,332.51065613841945L259.0507536262437,332.510543040745L258.99581166391783,332.5104524738555L258.7485728354097,332.5100439467025L258.4738630297295,332.50958815416266L258.3502436184758,332.50938240413245L258.10300479839333,332.50896970602884L257.8282950021203,332.50850927910693L257.7046755951131,332.50830144360134L257.4574367835543,332.50788457455144L257.18275720363516,332.4895788590647L257.0454023756861,332.48934558896303L256.8118991705127,332.4889478983172L256.5371895211598,332.4884782027952L256.45477662715393,332.48833690958156L256.20753794736186,332.4879119650227L256.1663315010644,332.48784098562936L255.9053573432837,332.4873904190515L256.263644014784,331.8100616919818L256.8553523016512,331.1688097655242L257.07550582106074,330.9372553432444L258.9880090218265,328.90661728836415L261.6569169342505,326.0742547592799L262.79864831541175,324.8628737218562L263.0330948887147,324.2209710937411L263.28132070303116,323.54340681474696L263.6536974729139,322.4913760359567L263.69848214592866,320.1364714408511L263.72909684053354,318.06699634137635L263.74782685339324,314.78433491404707L263.7974595261251,309.2359503134L269.2472380095722,309.1725088496166L269.3156277964779,309.3510103703203L269.3977945769826,309.4938493488251L269.6033120238439,309.7795833361945L269.72671178574603,309.88679678175396L269.87754276387113,310.0118880057016L272.5799324559688,311.49626153634676L273.0462491210475,311.835835899775L273.18334771029333,311.97873713195077L273.2792854998041,312.10374464203386L273.3751785314609,312.2644332543901L273.49832524707404,312.5857225765752L273.55310300501947,312.6928363593784L273.63531535975824,312.81782554258126Z" stroke="null" id="MacArthur" transform="translate(0, 1) translate(0,0) scale(1)" style="fill: rgb(179, 120, 98); mix-blend-mode: normal;"/><path d="M319.2565003290031,291.849944002294L320.39523831209766,294.06225746791193L348.5349739469813,348.6991710120901L340.7459573066979,353.43153296110995L311.908571373643,319.0378964927012L302.55030334983115,307.18804240670727L300.1087832613645,304.0824360130175L299.31332059132666,303.06505077747227L298.9566553893938,302.76154476286007L298.81948297821015,302.6365766316312L298.72345302014946,302.5651552625061L298.4216737080414,302.2973591548696L296.81565194117144,302.6531444212419L296.3766862178783,302.31387840663166L295.85541764884897,301.9210288479291L294.55238289252014,300.8139890477827L294.0044779510001,299.3684940673884L287.5734926550612,293.38659217418467L287.8341687076868,293.42250819227434L287.98505735283993,293.4761652829303L288.3965297154625,293.67277806791174L288.7257386496943,293.7979518725174L288.9726969462913,293.8338481387209L292.04637107998235,293.80070751278026L293.4736466540598,293.4985114539572L293.59714027990816,293.4986037605797L293.73434219813134,293.5165465419037L293.8578095533594,293.5523193790183L293.95383404699766,293.58807161494985L294.02240251440463,293.6416441429912L294.68230296533955,291.87589437174574L295.0393247356387,291.48365354412147L296.2612100159696,290.396216833798L296.60444590322726,290.0574741626505L298.25091295909704,290.00501518469895L299.10206242314234,289.18486495576434L299.70608556391585,288.5964807850559L299.73357721876096,288.5072934094633L299.76104791498875,288.45378739323974L300.2553036242504,287.84748951690904L300.8593374694728,287.16988365639816L301.0377956915833,286.97373479881117L301.3672492466644,286.6171010832476L301.559344644823,286.56368275586516L301.2165247425577,286.2780457705496L300.73661138102386,285.8317630244615L300.4075329608041,285.52828575348474L299.8590874460919,285.0105902046692L299.55996173005207,280.4610369747587L299.64530048333927,275.2872844474616L305.25516190551303,274.3089323291137L309.699021860543,273.32939556381234L309.82250196973985,273.1688691820995L309.8499075577115,273.24024077613467L310.9741802788763,274.25750467137686L311.45407263316946,274.68581821619097L311.94768592449844,275.1319700724641L312.3727534393115,275.50673535549004L312.6607037247645,275.77441807409105L312.8389662392261,275.91718729779524L313.36003416952144,276.39900892496223L313.89483078674954,276.8808263889484L314.2925090818791,277.23772369543826L314.4296408791979,277.36263636078854L314.96446444657744,277.84443884023085L315.48558849957067,278.3083907583523L315.4444340820579,278.34406499861575L314.86823718535686,278.98622526434946L314.26458055239584,279.6640526029203L313.6609025323913,280.341870395187L314.2094750637929,280.82368644636546L314.7306305658747,281.2876486372435L315.2655128251589,281.7694468657553L315.78669107548683,282.25123533546844L316.2804525730518,282.6973311319092L316.7056164399664,283.2861364644682L317.15823183075725,283.8570999259524L317.19937686015567,283.9284680036444L316.77407153382165,284.24954353964404L316.5133996898415,284.4279132310482L316.4448004602852,284.48142521483123L316.3762010388689,284.53493707539985L316.23900708871747,284.6062790405956L316.11552818779484,284.69546335840306L315.9783331760654,284.7668043874353L315.84113765274344,284.8381449237691L315.7039446014029,284.89164427436236L315.6627863109058,284.9094780527739L315.7039326671247,284.96300704644943L315.7999324630697,285.1414299380606Z" stroke="null" id="Myers-Wilkins" transform="translate(0, 1) translate(0,0) scale(1)" style="fill: rgb(179, 120, 98); mix-blend-mode: normal;"/><path d="M289.55782159546914,283.4689042762627L289.54352677893166,284.1468387532232L289.54305615625543,284.699900091518L289.5284113557535,285.7881703700268L289.51423679386767,286.3233793053804L289.4728822026103,286.5552731210919L289.39038504114234,286.7692909911321L289.30790224893116,286.9654679949643L288.95060101670947,287.66094699321474L288.5383299069006,288.445577913698L288.18100092668413,289.1410497012758L287.9748357422254,289.5512022448652L287.7961706084594,289.8900155741444L287.71362486081966,290.13971118499427L287.6447823764855,290.40725967601304L287.63082093948003,290.6748575865911L287.6440756351129,291.1922498397546L287.64354558535535,291.78099245456815L287.642903108008,292.4946198572358L287.6425336871098,292.90495560916975L287.6286035011974,293.13687213644323L287.5872302156913,293.3687638838452L294.0044779510001,299.3684940673884L294.55238289252014,300.8139890477827L295.85541764884897,301.9210288479291L296.3766862178783,302.31387840663166L296.81565194117144,302.6531444212419L298.4216737080414,302.2973591548696L298.72345302014946,302.5651552625061L298.81948297821015,302.6365766316312L298.9566553893938,302.76154476286007L299.31332059132666,303.06505077747227L302.55030334983115,307.18804240670727L311.908571373643,319.0378964927012L310.32927053158414,319.92947703197586L298.42432920705204,320.20941111788466L296.1994108025424,320.92159653091414L293.35569828059107,322.6857929926224L287.8538491159771,317.45394119749164L287.2228167370681,316.8467874840171L285.89219851197095,315.59670250447607L285.82358513060694,315.56095609859153L285.6727141733159,315.40024646531265L285.6178476878009,315.3466720896544L285.37097605946343,315.07882541075196L285.1103442833771,314.84664520992794L284.91830913012853,314.668052060852L284.6714119129906,314.4358822113662L284.575378691445,314.3644253297117L284.3147566035711,314.1322397012988L284.2324713270128,314.0429548448906L284.0678665022594,313.90006595111805L284.0267332189555,313.8465029413785L283.95814247694307,313.7929125109488L283.7661001321709,313.63215424542904L283.5877342649844,313.524930869572L283.4642660130172,313.4356028579276L282.9977101419295,313.22104031095546L282.8330037337664,313.18519015034633L282.7643975270431,313.14943825284854L282.53106735550784,313.0956754463006L282.3937819860826,313.0955331453391L281.9819632490064,313.0594219354282L281.7348310203473,313.07700256567074L281.5014081926196,313.1124368513401L281.41901798953677,313.1301899869609L281.2404897630296,313.18352173419595L280.9658226135352,313.27243074673004L280.5949764468454,313.43259630198213L279.30496099478637,313.0029977132147L277.63072564464187,312.44802580593114L274.0328356194018,313.3000261735232L273.63531535975824,312.81782554258126L273.55310300501947,312.6928363593784L273.49832524707404,312.5857225765752L273.3888613974292,312.3001320876937L273.2792854998041,312.10374464203386L273.18334771029333,311.97873713195077L273.0462491210475,311.835835899775L272.5799324559688,311.49626153634676L270.57713778913933,310.3874918473242L269.87754276387113,310.0118880057016L269.72671178574603,309.88679678175396L269.6033120238439,309.7795833361945L269.3977945769826,309.4938493488251L269.3156277964779,309.3510103703203L269.2472380095722,309.1725088496166L269.1380130386352,308.7441807915965L268.7839181513219,306.72768890900454L268.8011952106416,304.17649191873375L268.78804114164706,303.7661373067307L268.78997852301967,302.37456480131846L268.76720131733356,299.02047979400066L268.76993516555814,297.0580055405187L268.7708050457424,296.4335818977074L268.76066243672693,293.8645053921284L268.7640685131951,291.4203326450084L268.78094605370796,289.1545857086707L268.78154262319003,288.7264094296007L268.8096771482747,278.37883410335246L268.81159102030267,277.0051015872328L268.8132563743593,275.8097758643079L268.80125674765515,274.5787496145686L268.8029971911247,273.3299017917097L268.78943213129384,273.2228385510492L271.3098202282645,275.50988505477864L274.3237693219114,278.20772157384494L274.98150147432443,278.7259192039182L275.4749808223491,278.9762946813164L277.517712469555,279.83508743414905L278.1071986105521,280.1212222030484L279.025535643323,280.72885283419845L278.99804146934434,280.78234394808106L279.05286913399345,280.81808718655526L279.4503827125967,281.06830296797733L280.10831186075893,281.51504952438404L280.1494243837101,281.5507761078088L280.31391421799117,281.65800062676306L280.4921416849677,281.74739869358757L280.670350664113,281.8546366146854L280.73889878019185,281.89039230563367L280.971959497202,282.01552887170715L281.17760594013146,282.12279395124244L281.36955505707624,282.2122026146258L281.49295544946443,282.2658560988816L282.04141205072176,282.4983643096395L282.3704855044905,282.64143359299686L282.7955484664214,282.82028032548305L282.97380538988637,282.8918261241937L283.6730860951503,283.2136685778656L283.7553572903088,283.2494326498922L283.8650465130952,283.3030646991895L283.9747538219541,283.3388557466465L284.04330768417014,283.3746055064278L284.13931516977794,283.3925417270589L284.2353050881835,283.4283183932885L284.2764411598677,283.4461998459605L284.38618443675864,283.4463083380294L284.5096280946049,283.46427070178504L284.6056535073405,283.4643650635063L284.64680725574937,283.46440543036965L285.20925902545775,283.4471119809837L286.08720527637104,283.44794965667234L287.0200068347413,283.4666582703138L287.2669293439428,283.4668842033041L287.45898018565873,283.4670588257003L287.59615935896664,283.4671829649541L288.02141479965417,283.4675646666302L288.62500317588825,283.4680983100467Z" stroke="null" id="Piedmont" transform="translate(0, 1) translate(0,0) scale(1)" style="fill: rgb(179, 120, 98); mix-blend-mode: normal;"/><path d="M263.5658087996545,335.0867767518123L263.56556369561923,335.2473426619165L263.62042795734635,335.30094863641887L264.19824959300587,334.7130842376628L264.59603987709664,335.0883387041995L264.7193205495343,335.320452819622L264.81552933914554,335.2849155622639L264.92547442273127,335.24939858840673L265.11783806094866,335.21400411047966L265.2140197465248,335.1963065089624L265.26899200173534,335.17854748916864L265.43393482618404,335.1074292983447L265.48890685193874,335.0896699626958L265.6263235556954,335.0541916070731L265.8049753666566,335.00093274398034L266.01109940967854,334.9477133233494L266.1485151199627,334.9122330928856L266.2584578973212,334.8767122899687L266.5882075219579,334.82366996182583L266.698123860135,334.80598855442935L266.7805674816641,334.7882671270894L266.849274725696,334.77052569219103L267.0690811490897,334.75300172098355L267.28888737020844,334.7354764873498L267.4262756949952,334.71783232814323L267.57740016883827,334.7002072492853L267.7010266533311,334.70038318927084L267.7421848992433,334.736123065441L267.7420584433754,334.8253263609379L267.7419572788212,334.8966889971829L267.7418308233035,334.98589229230896L267.74170436798033,335.075095587218L267.7416284948798,335.1286175640628L267.74150203986795,335.2178208586374L267.7414261669542,335.27134283528136L267.74135029411053,335.324864811849L267.7412238395266,335.4140681059614L267.7273608214393,335.5032518851726L267.71352304325296,335.5745950004624L267.6859485992764,335.6459185810928L267.74074331388215,335.7530406216731L267.6993055654341,335.91354798975624L267.6991283966654,336.03843259935525L267.75407541830674,336.0385106688402L267.7952351545272,336.0742504862416L267.79513409440176,336.14561312024915L267.76758467346934,336.19909610023774L267.6852144281457,336.1632976788059L267.6441053691052,336.0918764263224L267.6302672277377,336.16321951051475L267.6987993699646,336.2703611589538L267.71233378224616,336.4131059506179L267.71213135655364,336.55583121687L267.7395293668724,336.6093922267694L267.7943508826471,336.69867352921824L267.8217491105275,336.75223447998343L267.86288444549416,336.80581488187715L267.9040451092214,336.8415545812406L267.97273032482286,336.84165178756905L267.97265477995086,336.8951737622631L267.9176561164278,336.93077732335576L267.8900810866237,337.00210104867733L267.8624050241618,337.14478738628014L267.8623293263129,337.1983093603857L267.8483397658688,337.37669646910564L267.8344005688826,337.5194022562195L267.84801166059776,337.60862502146017L267.8479359441831,337.6621469948715L267.8615975840429,337.71568843941185L267.8614714222425,337.8048917281747L267.8613957252555,337.8584137013307L267.86132002833824,337.9119356744136L267.8611938669649,338.0011389627099L267.8611181702341,338.05466093558346L267.87460338983146,338.23308697774735L267.9019524081143,338.3223291835303L267.9430391598953,338.4115908113988L267.9427368356396,338.62567870059013L267.9699352110025,338.8219648005712L267.9148581695618,338.91109032849533L267.8598565683411,338.9466938055143L267.7909654726173,339.08932165471066L267.77715181406205,339.14282412949683L267.81806240566345,339.35697048816513L267.8041981755382,339.4461542862151L267.8588977638844,339.6246387723411L267.87250967816186,339.7138615235732L267.85867068026045,339.7852046837123L267.9134466290337,339.9101671199148L268.17409506745895,340.1781456297817L268.2975389978493,340.3210448909709L268.4073204357113,340.4104025128546L268.43472219026285,340.46396301838814L268.47588732506125,340.4997020978695L268.5444794459471,340.57116090299064L268.59920898799265,340.73180366746186L268.59905967212205,340.838847607514L268.58519673553826,340.9280316844715L268.5438566575716,341.0171773190944L268.4888276913571,341.07062235518754L268.3926328041101,341.08832818819707L268.2689356473844,341.1238358014017L268.17276560859347,341.12370042555585L268.04911841646145,341.1235260158596L267.8704664689338,341.15895469786614L268.11545104341764,342.80064461003656L261.7272679496835,342.4521287647242L260.4057079172728,344.0735249691206L259.7716557782342,345.3213466190326L257.66241248290146,349.49257753075517L255.07575607142553,351.3435693134661L254.09882438620554,352.03763397511955L253.84422549256675,356.1048601154372L257.1126253779281,357.6805272916985L264.6299094341136,358.3348109030678L267.84116085146064,361.8897910295605L267.2981657161686,366.7238423036648L260.44460104921774,371.1914360281546L254.34083553587695,378.44228635785356L255.5520596831729,385.7769286129063L250.2614052800551,390.53084015394984L244.84531119340502,388.5935140126897L243.4837288434892,388.4837016748651L235.55484178179523,391L228.69306360507605,384.22226682196913L224.0852604635894,389.6878604281883L221.84248122714547,389.89614916588334L220.7734616093246,388.39471807429106L219.9980724955907,385.1278085416552L217.99226128350858,384.26605818111153L215.44816480632653,384.116337705374L214.24082088726428,383.04251521243145L213.66346591984714,378.06332085421855L211.75360647063198,377.48696531234935L211.3172762775045,380.96465073883417L208.92948627702089,379.19144054009723L206.9792405013625,378.32927577791696L206.95473120789632,377.33012023539595L206.94616327263617,371.0144688113759L226.73177863623596,370.9082615660916L237.6630140951078,370.66630179044006L237.77003298995825,365.76034266906254L238.2077110990805,347.9205895669337L238.38922865990367,340.3029992387219L244.60484428033786,337.39021125294863L246.37920244875738,336.2519572503777L248.06883250843745,336.2552630418751L248.0831891789233,335.9341579756068L248.08363684328936,335.70222956946327L255.10636154573677,333.82405293924364L255.89165266902043,332.46952600233874L256.1388605369033,332.48779364138073L256.20753794736186,332.4879119650227L256.3998346980246,332.4882426155042L256.5371895211598,332.4884782027952L256.7844282053966,332.4889010175091L257.0454023756861,332.48934558896303L257.18275720363516,332.4895788590647L257.4299958965054,332.48999750283167L257.7046755951131,332.50830144360134L257.8282950021203,332.50850927910693L258.07553381858884,332.50892375207945L258.3502436184758,332.50938240413245L258.44639204937823,332.5095424664461L258.72110185466005,332.509998456189L258.99581166391783,332.5104524738555L259.0507536262437,332.510543040745L259.1194310793751,332.51065613841945L259.3666699126945,332.5110622694952L259.6413797312278,332.51151165277975L259.696321695404,332.5116012927839L259.7649991508459,332.51171323186395L260.01223799245605,332.51211519199387L260.28694782016976,332.51255994089223L260.41059594886923,332.49491877837926L260.6578346836587,332.495316567423L260.93254439263734,332.49575668177204L261.0424282773079,332.4959321753274L261.30340250583833,332.4963477079334L261.57811222380707,332.49678318789597L261.70173159813766,332.4969785104935L261.9489703490866,332.4973679576408L262.2236800759502,332.4977988032217L262.3472994542703,332.4979920403395L262.52586077983415,332.4982704556087L262.5945382131674,332.49837731654566L262.7456285673288,332.4986119767486L262.8692479488307,332.49880352774505L262.9928673310975,332.49899467939235L263.24010609786956,332.49937578464846L263.51481584223745,332.49979736145735L263.62469974101833,332.49996544000226L263.6382448070577,332.624871033163L263.638163198033,332.678393006839L263.5694854416323,332.678288018995L263.569158622828,332.89237591248815L263.56902244868235,332.9815792010936L263.5680964700475,333.58816155810734L263.5667075202576,334.49803507559955Z" stroke="null" id="Stowe" transform="translate(0, 1) translate(0,0) scale(1)" style="fill: rgb(179, 120, 98); mix-blend-mode: normal;"/><path d="M318.2710643249765,267.1940173606265L317.84589241123217,268.06816656944363L317.5304347464329,268.6747138521274L316.5977869040219,269.99480247290467L316.5429241768291,270.06615731770313L316.20000821615866,270.63700819352573L316.0353889541489,271.0116370521865L315.8981762734392,271.4933138486442L315.8295262012258,271.99284216987724L315.81572147278723,272.54590152395315L315.80189577282385,273.2238457454513L314.8007558415501,273.223667464761L312.70248505081884,273.18752727967956L311.9756307252308,273.1873414704471L310.8236246762034,273.22270003900763L310.04192395711124,273.18677979897643L309.8499304214271,273.1688779911111L309.699021860543,273.32939556381234L305.26887654003167,274.3089383759948L299.64530048333927,275.2872844474616L299.55996173005207,280.4610369747587L299.5871119120126,280.9427518421196L299.8590874460919,285.0105902046692L300.4075329608041,285.52828575348474L300.73661138102386,285.8317630244615L301.2165247425577,286.2780457705496L301.559344644823,286.56368275586516L301.3672492466644,286.6171010832476L301.0377956915833,286.97373479881117L300.8593374694728,287.16988365639816L300.2553036242504,287.84748951690904L299.76104791498875,288.45378739323974L299.73357721876096,288.5072934094633L299.70608556391585,288.5964807850559L298.25091295909704,290.00501518469895L296.60444590322726,290.0574741626505L296.2612100159696,290.396216833798L295.0393247356387,291.48365354412147L294.68230296533955,291.87589437174574L294.02240251440463,293.6416441429912L293.95383404699766,293.58807161494985L293.8578095533594,293.5523193790183L293.73434219813134,293.5165465419037L293.59714027990816,293.4986037605797L293.4736466540598,293.4985114539572L292.04637107998235,293.80070751278026L288.9726969462913,293.8338481387209L288.7257386496943,293.7979518725174L288.602275288526,293.7621624561765L287.98505735283993,293.4761652829303L287.8341687076868,293.42250819227434L287.5872141285194,293.3866045684538L287.6286035011974,293.13687213644323L287.6425336871098,292.90495560916975L287.642903108008,292.4946198572358L287.64354558535535,291.78099245456815L287.6440756351129,291.1922498397546L287.63082093948003,290.6748575865911L287.6447823764855,290.40725967601304L287.71362486081966,290.13971118499427L287.7961706084594,289.8900155741444L287.9748357422254,289.5512022448652L288.18100092668413,289.1410497012758L288.5383299069006,288.445577913698L288.95060101670947,287.66094699321474L289.30790224893116,286.9654679949643L289.39038504114234,286.7692909911321L289.4728822026103,286.5552731210919L289.51423679386767,286.3233793053804L289.5284113557535,285.7881703700268L289.54305615625543,284.699900091518L289.54349641604307,284.1825201300662L289.55782159546914,283.4689042762627L288.62500317588825,283.4680983100467L288.02141479965417,283.4675646666302L287.59615935896664,283.4671829649541L287.45898018565873,283.4670588257003L287.2669293439428,283.4668842033041L287.0200068347413,283.4666582703138L286.08720527637104,283.44794965667234L285.20925902545775,283.4471119809837L284.64680725574937,283.46440543036965L284.6056535073405,283.4643650635063L284.5096280946049,283.46427070178504L284.4136026821522,283.46417609872265L284.303876979058,283.44622699852846L284.2353050881835,283.4283183932885L284.16673326142734,283.41040966495956L284.04330768417014,283.3746055064278L283.9747538219541,283.3388557466465L283.8650465130952,283.3030646991895L283.7553572903088,283.2494326498922L283.6730860951503,283.2136685778656L282.97380538988637,282.8918261241937L282.7955484664214,282.82028032548305L282.3704855044905,282.64143359299686L282.04141205072176,282.4983643096395L281.49295544946443,282.2658560988816L281.36955505707624,282.2122026146258L281.17760594013146,282.12279395124244L280.971959497202,282.01552887170715L280.766314207322,281.9082626847754L280.670350664113,281.8546366146854L280.4921416849677,281.74739869358757L280.31391421799117,281.65800062676306L280.1494243837101,281.5507761078088L280.10831186075893,281.51504952438404L279.4503827125967,281.06830296797733L279.05286913399345,280.81808718655526L278.99804146934434,280.78234394808106L278.98442505436617,280.69312504035184L278.1071986105521,280.1212222030484L277.517712469555,279.83508743414905L275.4749808223491,278.9762946813164L274.98150147432443,278.7259192039182L274.61151802277044,278.4400096455666L274.3237693219114,278.20772157384494L271.3098202282645,275.50988505477864L268.78943213129384,273.2228385510492L268.78950674189474,273.16931650083154L268.80329555662024,273.1158135908222L268.7939586321954,269.9758340832068L268.8085171308323,269.36926995026147L268.796595062521,268.08472151014115L273.8564036259227,268.1449713050663L274.1169396450868,268.145299571003L276.95541118481543,268.14876077097045L279.23169360946457,268.13354329576543L280.93203354146124,268.1354142760234L284.42877095898064,268.0676611626016L286.9107145845694,268.07002902477694L289.584631952393,268.0723995328373L290.6267741594593,268.07327271865734L291.84714933539965,268.10994050101897L292.1488223758696,268.11017831708745L292.8070181084108,268.11068891664667L293.6709000234108,268.11134186275234L294.09598478176537,268.11165597982244L294.74046813311793,268.11212319664105L295.98829762741497,268.11299689184875L296.6465052962096,268.0956006211259L297.3184131954924,268.0960426032433L298.93648796340034,268.07921775893294L299.8826539570539,268.06193931210976L301.0344950733461,268.0625921494539L305.0248019699866,268.0645851139627L305.7378541626557,268.0470566380999L306.34119928079076,268.047310426414L306.4097612263393,268.0473386628345L306.53317999325805,268.0295484808539L306.64288626885946,268.01175235120536L306.75259244224833,267.9939559064003L306.86230562464857,267.95831844900823L306.97201860248276,267.92268067643363L307.08173137573715,267.88704258864226L307.17773162553095,267.8513988288837L307.28745091531397,267.79791945256625L307.3834576176281,267.7444344780903L307.4794640513518,267.69094926221936L307.5754702164963,267.6374638049712L307.6714828468288,267.56613740867994L307.7537829280009,267.4948056210153L307.83608270218645,267.42347365591843L308.3847549538074,266.9062943926551L308.82368702831906,266.47827274544284L308.9059826195073,266.4069384737504L309.0019896789958,266.3356087313416L309.11170813003434,266.26428341478754L309.221426171753,266.19295778293986L309.3311438041375,266.1216318357911L309.41343175979773,266.06813716852207L309.52314280563286,266.01465136795645L309.63284772548764,265.9790059505167L309.74255820855876,265.9255195195183L309.865974283474,265.88987786817495L309.97567852550924,265.8542314657907L310.0990885513673,265.8364297594629L310.1813636923981,265.8186148341708L310.6750075949014,265.7295622583278L312.3067561514395,265.44456453448544L312.3616019747598,265.4445785654543L312.4164523183072,265.4267518188402L312.4850095655396,265.42676914829383L312.55356681280347,265.4267863546644L314.2949209052974,265.42718212804726L315.2684306427253,265.44520947924195L315.63863392497984,265.4809553440339L315.92657189065955,265.49884370246906L316.5435908768448,265.4810978192839L316.65328262886095,265.4811136316672L317.3114331420505,265.48120188882973L317.9695836569667,265.48127880233767L318.1752556931965,265.48130051147103L318.47690801325166,265.4813303476857L319.17619293802596,265.4813903484294L318.47678449204614,266.78370137443574Z" stroke="null" id="Lowell" transform="translate(0, 1) translate(0,0) scale(1)" style="fill: rgb(179, 120, 98); mix-blend-mode: normal;"/></g><path d="M331.1593406434807,262.62591652928023L331.39248757377027,262.91131172772333L333.2988962727682,265.1052064903429M333.3134497804787,267.9775549006793L332.9708739301793,268.7983260968257M315.84113765274344,284.8381449237691L315.9783331760654,284.7668043874353M316.5133996898415,284.4279132310482L316.77407153382165,284.24954353964404M317.15823183075725,283.8570999259524L316.7056164399664,283.2861364644682L316.2804525730518,282.6973311319092L315.78669107548683,282.25123533546844L315.2655128251589,281.7694468657553L314.7306271279553,281.3054893314055L314.2094750637929,280.82368644636546L313.6609025323913,280.341870395187M315.4444340820579,278.34406499861575L315.48558849957067,278.3083907583523M313.36003416952144,276.39900892496223L312.8389662392261,275.91718729779524L312.674418884986,275.7744214619243L312.3727534393115,275.50673535549004L311.94768592449844,275.1319700724641L311.45407263316946,274.68581821619097L310.9741802788763,274.25750467137686L309.8499075577115,273.24024077613467L309.8499304214271,273.1688779911111M316.5977869040219,269.99480247290467L317.5304347464329,268.6747138521274M317.84589241123217,268.06816656944363L318.2710643249765,267.1940173606265M285.8500149681889,157.9025975372233M289.5979610437749,156.05054838742262L289.80240775394947,156.80003280821293M291.92134102616996,157.17642756890623L292.5639665827329,157.15909111159718M294.4918008614991,157.16053875836442L295.77703610513277,157.14360888623392M371.83659986720704,240.29369876443172L371.2610977460322,240.29444457512102M371.09282333312706,237.29741941472656L370.53152024594465,237.65495052824804L370.3931742135222,236.6025231973848M280.9658226135352,313.27243074673004L281.2404897630296,313.18352173419595L281.41901798953677,313.1301899869609L281.5014081926196,313.1124368513401L281.7348310203473,313.07700256567074L281.9819632490064,313.0594219354282L282.3937819860826,313.0955331453391L282.53106735550784,313.0956754463006L282.7643975270431,313.14943825284854L282.8330037337664,313.18519015034633L282.9977101419295,313.22104031095546L283.4642660130172,313.4356028579276L283.5877342649844,313.524930869572L283.7661001321709,313.63215424542904L283.95814247694307,313.7929125109488L284.0267332189555,313.8465029413785L284.0678665022594,313.90006595111805L284.2324713270128,314.0429548448906L284.3147566035711,314.1322397012988L284.575378691445,314.3644253297117L284.65770033225687,314.41802809641285L284.9045973510308,314.6501980345622L285.1103442833771,314.84664520992794L285.37097605946343,315.07882541075196L285.6178476878009,315.3466720896544L285.6727141733159,315.40024646531265L285.82358513060694,315.56095609859153L285.89219851197095,315.59670250447607M268.11545104341764,342.80064461003656L267.85672787940837,341.15893523023635M268.3926328041101,341.08832818819707L268.4888276913571,341.07062235518754M267.8610677057857,338.09034225078176M267.6991283966654,336.03843259935525L267.6993055654341,335.91354798975624M267.7010266533311,334.70038318927084L267.57740016883827,334.7002072492853L267.4400119773068,334.71785195099324M267.28888737020844,334.7354764873498L267.0690811490897,334.75300172098355L266.849274725696,334.77052569219103L266.7805674816641,334.7882671270894L266.698123860135,334.80598855442935L266.5882075219579,334.82366996182583L266.2584578973212,334.8767122899687L266.1485151199627,334.9122330928856M266.01109940967854,334.9477133233494L265.8049753666566,335.00093274398034L265.6263235556954,335.0541916070731L265.48890685193874,335.0896699626958L265.43393482618404,335.1074292983447L265.26899200173534,335.17854748916864L265.2140197465248,335.1963065089624L265.11783806094866,335.21400411047966L264.92547442273127,335.24939858840673L264.81552933914554,335.2849155622639L264.7193205495343,335.320452819622L264.6509053491737,335.141943201215L264.19824959300587,334.7130842376628M263.5658087996545,335.0867767518123L263.5667075202576,334.49803507559955L263.5680964700475,333.58816155810734L263.56902244868235,332.9815792010936L263.569158622828,332.89237591248815L263.5694854416323,332.678288018995L263.638163198033,332.678393006839L263.6382448070577,332.624871033163L263.638435228408,332.4999864276342L263.51481584223745,332.49979736145735L263.26757707214296,332.4994180310698L262.9928673310975,332.49899467939235L262.8692479488307,332.49880352774505L262.7456285673288,332.4986119767486L262.6220091865747,332.49842002640753L262.52586077983415,332.4982704556087L262.3472994542703,332.4979920403395L262.2236800759502,332.4977988032217L261.9764413215997,332.497411130943L261.70173159813766,332.4969785104935L261.57811222380707,332.49678318789597L261.33087347746635,332.4963913446715L261.0561637629294,332.4959540898402L260.93254439263734,332.49575668177204L260.68530565437965,332.4953606676016L260.41059594886923,332.49491877837926L260.28694782016976,332.51255994089223L260.0397089750549,332.51215975563105L259.7649991508459,332.51171323186395L259.696321695404,332.5116012927839L259.6413797312278,332.51151165277975L259.3941408943673,332.51110729656824L259.1194310793751,332.51065613841945L259.0507536262437,332.510543040745L258.99581166391783,332.5104524738555L258.7485728354097,332.5100439467025L258.4738630297295,332.50958815416266L258.3502436184758,332.50938240413245L258.10300479839333,332.50896970602884L257.8282950021203,332.50850927910693L257.7046755951131,332.50830144360134L257.4574367835543,332.50788457455144L257.18275720363516,332.4895788590647L257.0454023756861,332.48934558896303L256.8118991705127,332.4889478983172L256.5371895211598,332.4884782027952L256.45477662715393,332.48833690958156L256.20753794736186,332.4879119650227L256.1663315010644,332.48784098562936L255.9053573432837,332.4873904190515M269.2472380095722,309.1725088496166L269.3156277964779,309.3510103703203L269.3977945769826,309.4938493488251M269.72671178574603,309.88679678175396L269.87754276387113,310.0118880057016M272.5799324559688,311.49626153634676L273.0462491210475,311.835835899775L273.18334771029333,311.97873713195077L273.2792854998041,312.10374464203386L273.3751785314609,312.2644332543901M273.49832524707404,312.5857225765752L273.55310300501947,312.6928363593784L273.63531535975824,312.81782554258126L274.0328356194018,313.3000261735232M311.908571373643,319.0378964927012L302.55030334983115,307.18804240670727M293.59714027990816,293.4986037605797L293.73434219813134,293.5165465419037L293.8578095533594,293.5523193790183L293.95383404699766,293.58807161494985M299.73357721876096,288.5072934094633L299.76104791498875,288.45378739323974M299.64530048333927,275.2872844474616L305.25516190551303,274.3089323291137M289.4728822026103,286.5552731210919L289.39038504114234,286.7692909911321M279.05286913399345,280.81808718655526L279.4503827125967,281.06830296797733L280.10831186075893,281.51504952438404L280.1494243837101,281.5507761078088L280.31391421799117,281.65800062676306L280.4921416849677,281.74739869358757L280.670350664113,281.8546366146854L280.73889878019185,281.89039230563367L280.971959497202,282.01552887170715L281.17760594013146,282.12279395124244L281.36955505707624,282.2122026146258L281.49295544946443,282.2658560988816L282.04141205072176,282.4983643096395L282.3704855044905,282.64143359299686L282.7955484664214,282.82028032548305L282.97380538988637,282.8918261241937L283.6730860951503,283.2136685778656L283.7553572903088,283.2494326498922L283.8650465130952,283.3030646991895L283.9747538219541,283.3388557466465L284.04330768417014,283.3746055064278L284.13931516977794,283.3925417270589L284.2353050881835,283.4283183932885L284.2764411598677,283.4461998459605L284.38618443675864,283.4463083380294L284.5096280946049,283.46427070178504L284.6056535073405,283.4643650635063L284.64680725574937,283.46440543036965L285.20925902545775,283.4471119809837L286.08720527637104,283.44794965667234L287.0200068347413,283.4666582703138L287.2669293439428,283.4668842033041L287.45898018565873,283.4670588257003L287.59615935896664,283.4671829649541L288.02141479965417,283.4675646666302L288.62500317588825,283.4680983100467L289.55782159546914,283.4689042762627" stroke="rgb(255,255,255)" transform="translate(0, 1) translate(0,0) scale(1)" style="stroke-width: 0.45; stroke-linejoin: round; stroke-linecap: round; fill: none; mix-blend-mode: normal;"/><g id="labels-svg"><g id="Lakewood-svg"><text transform="translate(310.7059020996094, 101.60687255859375)" fill="undefined" style="stroke: rgb(255, 255, 255); stroke-width: 4; stroke-linejoin: round; stroke-linecap: butt; opacity: 0.5; font-family: BentonSans; font-weight: 400; font-size: 10px;"><tspan x="3.828125" dy="10">Lakewood</tspan></text><text transform="translate(310.7059020996094, 101.60687255859375)" fill="rgb(60, 14, 0)" style="opacity: 1; font-family: BentonSans; font-weight: 400; font-size: 10px;"><tspan x="3.828125" dy="10">Lakewood</tspan></text></g><g id="Homecroft-svg"><text transform="translate(267.4808349609375, 207.7022705078125)" fill="undefined" style="stroke: rgb(255, 255, 255); stroke-width: 4; stroke-linejoin: round; stroke-linecap: butt; opacity: 0.5; font-family: BentonSans; font-weight: 400; font-size: 10px;"><tspan x="4.8203125" dy="10">Homecroft</tspan></text><text transform="translate(267.4808349609375, 207.7022705078125)" fill="rgb(60, 14, 0)" style="opacity: 1; font-family: BentonSans; font-weight: 400; font-size: 10px;"><tspan x="4.8203125" dy="10">Homecroft</tspan></text></g><g id="Stowe-svg"><text transform="translate(227.3297576904297, 359.4405212402344)" fill="undefined" style="stroke: rgb(255, 255, 255); stroke-width: 4; stroke-linejoin: round; stroke-linecap: butt; opacity: 0.5; font-family: BentonSans; font-weight: 400; font-size: 10px;"><tspan x="3.4218826293945312" dy="10">Stowe</tspan></text><text transform="translate(227.3297576904297, 359.4405212402344)" fill="rgb(60, 14, 0)" style="opacity: 1; font-family: BentonSans; font-weight: 400; font-size: 10px;"><tspan x="3.4218826293945312" dy="10">Stowe</tspan></text></g><g id="Myers-Wilkins-svg"><text transform="translate(284.75775146484375, 304.67584228515625)" fill="undefined" style="stroke: rgb(255, 255, 255); stroke-width: 4; stroke-linejoin: round; stroke-linecap: butt; opacity: 0.5; font-family: BentonSans; font-weight: 400; font-size: 10px;"><tspan x="3.625" dy="10">Myers-Wilkins</tspan></text><text transform="translate(284.75775146484375, 304.67584228515625)" fill="rgb(60, 14, 0)" style="opacity: 1; font-family: BentonSans; font-weight: 400; font-size: 10px;"><tspan x="3.625" dy="10">Myers-Wilkins</tspan></text></g><g id="Lester-svg Park-svg"><text transform="translate(322.19195556640625, 247.6038360595703)" fill="undefined" style="stroke: rgb(255, 255, 255); stroke-width: 4; stroke-linejoin: round; stroke-linecap: butt; opacity: 0.5; font-family: BentonSans; font-weight: 400; font-size: 10px;"><tspan x="4.8046875" dy="10">Lester Park</tspan></text><text transform="translate(322.19195556640625, 247.6038360595703)" fill="rgb(60, 14, 0)" style="opacity: 1; font-family: BentonSans; font-weight: 400; font-size: 10px;"><tspan x="4.8046875" dy="10">Lester Park</tspan></text></g><g id="Piedmont-svg"><text transform="translate(260.7228698730469, 295.709228515625)" fill="undefined" style="stroke: rgb(255, 255, 255); stroke-width: 4; stroke-linejoin: round; stroke-linecap: butt; opacity: 0.5; font-family: BentonSans; font-weight: 400; font-size: 10px;"><tspan x="4.8984375" dy="10">Piedmont</tspan></text><text transform="translate(260.7228698730469, 295.709228515625)" fill="rgb(60, 14, 0)" style="opacity: 1; font-family: BentonSans; font-weight: 400; font-size: 10px;"><tspan x="4.8984375" dy="10">Piedmont</tspan></text></g><g id="MacArthur-svg"><text transform="translate(248.27374267578125, 320.17449951171875)" fill="undefined" style="stroke: rgb(255, 255, 255); stroke-width: 4; stroke-linejoin: round; stroke-linecap: butt; opacity: 0.5; font-family: BentonSans; font-weight: 400; font-size: 10px;"><tspan x="4.234375" dy="10">MacArthur</tspan></text><text transform="translate(248.27374267578125, 320.17449951171875)" fill="rgb(60, 14, 0)" style="opacity: 1; font-family: BentonSans; font-weight: 400; font-size: 10px;"><tspan x="4.234375" dy="10">MacArthur</tspan></text></g><g id="Lowell-svg"><text transform="translate(275.7195129394531, 270.26123046875)" fill="undefined" style="stroke: rgb(255, 255, 255); stroke-width: 4; stroke-linejoin: round; stroke-linecap: butt; opacity: 0.5; font-family: BentonSans; font-weight: 400; font-size: 10px;"><tspan x="1.8046875" dy="10">Lowell</tspan></text><text transform="translate(275.7195129394531, 270.26123046875)" fill="rgb(60, 14, 0)" style="opacity: 1; font-family: BentonSans; font-weight: 400; font-size: 10px;"><tspan x="1.8046875" dy="10">Lowell</tspan></text></g><g id="Congdon-svg"><text transform="translate(301.71771240234375, 266.5732727050781)" fill="undefined" style="stroke: rgb(255, 255, 255); stroke-width: 4; stroke-linejoin: round; stroke-linecap: butt; opacity: 0.5; font-family: BentonSans; font-weight: 400; font-size: 10px;"><tspan x="4.1328125" dy="10">Congdon</tspan></text><text transform="translate(301.71771240234375, 266.5732727050781)" fill="rgb(60, 14, 0)" style="opacity: 1; font-family: BentonSans; font-weight: 400; font-size: 10px;"><tspan x="4.1328125" dy="10">Congdon</tspan></text></g></g></g></g><g id="footer-svg"><g id="footer-inner-svg"><g id="footer-main-svg"/></g></g></g></svg>