<svg xmlns:xlink="http://www.w3.org/1999/xlink" xmlns="http://www.w3.org/2000/svg" id="exportSvg" width="600" height="400"><defs/><g><g id="header-svg"/><g id="chart-svg"><g id="map-svg"><g id="regions-svg"><path d="M331.3903678790435,262.91073852394817L331.49618210359955,262.91071263920304L331.76071766460944,262.9106466444298L331.95471040898764,262.91059708345415L333.2597445646532,262.88305121256485L333.3126516384694,262.8830357165844L333.3831944035169,262.8830149412454L333.3831141799479,262.61114650987486L333.47129200908455,262.61112035757134L333.5771054039511,262.61108870600464L333.66528323292465,262.61106210570597L333.77109662759375,262.61102991653695L333.85927445640755,262.61100286822966L333.96508785087593,262.6109701414629L334.0532656795149,262.61094264516043L334.1590790737791,262.6109093807913L334.2825280336115,262.610870201752L334.3883414276365,262.6108363020388L334.58233264970517,262.6107733909671L334.6705104777827,262.6107444692067L334.77632387137544,262.6107094942979L334.86450169928514,262.6106801245378L334.97031509265986,262.61064461202676L335.0584929203803,262.610614794267L335.19957744455775,262.610566662288L335.2877552720645,262.6105363150741L335.39356866494586,262.61049962961664L335.4817464922634,262.6104688344076L335.5875598849224,262.61043161134785L335.71100884286517,262.6103878138339L335.81682223524973,262.61034995542553L335.97554232359204,262.6102926180088L336.02844901963323,262.6102733589149L336.028567863701,262.9365154705988L336.0288352604135,263.6705602158346L336.0290927503505,264.3774181106948L336.02936014043047,265.11146283934244L336.0471852592866,265.62800639207353L335.9942941430081,265.6823993596261L335.8885016559887,265.76399823338136L335.81796332772694,265.7912104782617L335.7474248990718,265.81842259281484L335.6769056746532,265.9000082598295L334.72468268963445,266.4440717607904L334.67177962501887,266.4712760542814L334.56597326995575,266.52568442134026L334.46016661377405,266.5800924951657L334.4072719219697,266.6344832634165L334.3367396327043,266.6888796128326L333.84297459614226,266.96090304446517L333.384477929561,267.23290968510094L333.3315728199071,267.26011212141253L333.2610299119574,267.28731964207276L332.9083292327148,267.4777289727692L332.90835996506036,267.5864763373698L333.3141423689717,267.96697517079593L332.97925166836967,268.78267730692187L336.8456791449969,278.16084084027744L334.3057578512611,280.14637581680034L325.13162115969055,287.27115528545727L321.0727400608611,290.42493391040256L319.2548502565947,291.83855686192527L315.7085413445408,284.9598594710143L315.6556128835853,284.9054769085424L315.708550430792,284.90548580418556L315.8497305519181,284.823948666967L315.9732599424098,284.7695950148556L316.114438998083,284.68805689939575L316.2379717408576,284.6065155577635L316.3791496307722,284.52497646401775L316.43209068072565,284.4977975235616L316.39681557539274,284.38904493466214L315.9734080162299,283.8452426671621L315.532372054171,283.2742458372823L315.19717900445505,282.9207578673078L314.65027608287767,282.4584789014027L314.1210365579595,281.96900895815173L314.068108782854,281.94181102815423L313.5918045288181,281.5067185138225L313.1155111100286,281.0716200575876L313.06259171548805,281.01723389898416L312.533385646134,280.5549287838648L312.0394724763404,280.1198124805925L312.0041995455525,280.0654294983687L311.93361785133044,280.09259761315775L311.8630433337183,280.09257876216844L311.81011976002077,280.06537770298775L311.3691513872651,279.6302669526821L311.33390282040745,279.4943228442928L311.33391812662165,279.43994917309556L311.31630546086194,279.3311968530258L310.9988684981014,278.8417428215501L310.98124915751146,278.76017718167304L311.0694720731908,278.733015925521L311.1400440826004,278.7330362426526L311.210623833032,278.7058695934632L311.316497103573,278.65152595717785L311.3694336260292,278.62435402898933L311.56355853243343,278.4341002109011L312.07507332549795,278.9236009891031L312.62189458207126,279.385916850763L313.1510855408097,279.8482207505525L313.6626395638184,280.33770025698936L314.2626661012723,279.65815718337524L314.88031444298247,278.978608018264L315.4450029755443,278.35341334569574L315.48029804358924,278.299045805662L315.63911542101636,278.10876514502473L315.79792673780855,277.9456706604384L315.78030207256813,277.8369203968413L315.78037846280273,277.3747441668078L315.78045485364527,276.9125679329996L315.7982269680473,276.1241525589009L315.798276260479,275.82509734262675L315.79828522276654,275.77072366676776L315.79831210967967,275.60760263889483L315.7984734327442,274.6288764619396L315.8162173228122,274.00358208106155L315.8162307290492,273.9220215646902L315.8339205309892,273.62296923633676L315.8163469172256,273.21516375128954L315.81645863795956,272.53549276881813L315.8341879086667,271.9917588764527L315.90483119950625,271.4752204352084L316.046021639762,271.01306679386437L316.1871960527645,270.63247314826185L316.59299318956784,269.9800496603305L317.5280144775435,268.6752047201036L317.8455746387946,268.0499440785501L318.2689729447032,267.2071968254195L318.46302631449714,266.7994131784782L319.1862653603157,265.46731997177045L319.36265952760385,265.1139040771866L319.4155811549473,264.9507867791136L319.45086387489266,264.8148550296357L319.52144324801293,264.32549668562115L319.53914523950993,263.34677150588163L319.45099777331035,262.8845891379922L319.18656609528483,261.52522763791353L319.0631790118926,260.79117320379123L319.0102858305885,260.65523473107237L318.93976067440434,260.49210788296955L318.8339670940606,260.3289779008071L318.69290554110233,260.1658444913994L318.58711141695744,260.02990066949724L317.93470476065255,259.43172441751744L317.70550526057684,259.0510828664938L317.4763531081711,258.31701094362325L317.4411124663404,258.0995118873018L317.4235155958514,257.8004544253835L317.51168232865035,257.800465130205L317.6880157943246,257.8004859289995L317.776182527205,257.80049602297254L317.89961595327844,257.80050981245813L318.00541603282414,257.8005213143782L318.1112161124019,257.80053252308755L318.217016192017,257.80054343859075L318.3228162716685,257.80055406088775L318.4286163513553,257.80056438997406L318.5167830844601,257.80057277356866L318.6225831642091,257.8005825651103L318.7107498973582,257.80059050075175L318.8165499771661,257.8005997547442L318.9047167103629,257.8006072424326L319.0105167902264,257.8006159588758L319.1692169100818,257.8006284837826L319.32791702999265,257.80064034897316L319.50425049662863,257.80065275877547L319.7158506566805,257.8006665754435L319.89218412346514,257.8006771934197L320.01561755023823,257.80068414139623L320.1390509770504,257.8006906902873L320.2801177505733,257.8006976860547L320.3330177906524,257.8007001750813L320.4740857228005,257.7735196080324L320.84438574012154,257.7735336104505L320.8972857426149,257.7735353175897L322.46665222502054,257.7463657723754L322.51955218991446,257.7463652315911L322.766418692709,257.74636173871477L322.83695197922225,257.74636044754584L322.88985194409435,257.74635939364833L323.47175155761335,257.7463429628589L324.1241830192834,257.71912714704376L324.22998287362236,257.7191213985966L324.77661545400883,257.71908702733447L325.4643121146406,257.6918458225813L325.76407815434266,257.6918182509314L326.152013556237,257.7189659219388L326.2578134100163,257.7189545536904L326.6986461336671,257.7189040299437L326.9102458407651,257.718877970433L331.16103930509195,262.6389251670455Z" stroke="null" id="Congdon" transform="translate(0, 1) translate(0,0) scale(1)" style="fill: rgb(128, 173, 173); mix-blend-mode: normal;"/><path d="M316.4384348597683,241.7057060627866L319.43460196930226,245.1315765024076L321.4087467523877,252.58086023948385L317.4235189244101,257.77326757944127L301.19884558319205,261.4380560402334L300.81043589848247,262.2262600495686L300.8629644274337,262.9059605377222L295.87377743583926,260.4016688392176L289.84368102342734,259.3095757504869L279.318077271591,257.58645852834934L279.12398928265765,257.69498798617417L278.96522825315765,257.74918265817496L278.80649757121483,257.776189837572L278.6124999737437,257.80315619788746L274.64496381077555,257.8256171298663L270.3424623350491,257.7928393058403L268.80839975761063,257.76354169935513L268.81484474109095,253.1417812220225L268.80578521348053,246.99753339348516L268.7843072667333,237.1286644317795L268.83477346554923,200.99735726747892L268.84199090860346,195.83185729859312L268.84780331526827,191.67227037559186L268.5189249881078,175.1965494259191L268.72684276511114,164.947380884376L268.7764253859089,154.67080283940527L268.7499895794586,135.91180625892596L268.5279083649699,118.89249683972885L268.5999081415898,117.66918798296147L268.50386676779397,86.15944511498898L265.2446033134206,82.2941655415027L265.48495723236124,62.39372349560347L265.57822422833965,0L304.33673106556034,0.6905078946810477L337.2462213016989,0.2294717941356339L336.89679392029876,92.202691479895L344.2015928863929,94.18378411578726L310.2296956132334,142.85284339235133L309.9095041735613,154.54309499516052L317.15374807015206,162.61922602374506L316.5707705888898,180.0187398630575L309.8292009025778,185.4545370872126L324.28081345465284,221.45185722404017L330.4301415587156,226.69807377738027L328.52780739584625,229.7705564946976L330.5370087697735,231.91792677475985L321.12704560025924,237.16590961091714Z" stroke="null" id="Homecroft" transform="translate(0, 1) translate(0,0) scale(1)" style="fill: rgb(128, 173, 173); mix-blend-mode: normal;"/><path d="M370.93571259143914,240.0708527050636L371.147249451536,240.09776826181815L371.041219695183,239.88040936656472L370.9352259052611,239.69023701175422L371.11126643716955,239.52689001851127L371.85073354133795,238.92782164106058L371.8498481280317,238.2481507661439L371.86697643733123,237.86751208972223L371.56736596592754,237.86790171178546L371.3558762191742,237.8681753225319L371.1796347621447,237.86840243593673L371.17939018057893,237.67809458575277L371.1791455982124,237.4877867351416L371.3023732755629,237.37888049943916L371.4608831297041,237.29711511612425L371.7602416404725,237.106418480493L371.8658426842493,236.99753335841274L371.56623903873253,236.9979229735393L371.17883113399324,237.24310521230552L371.0907816035359,237.29759213419575L370.5272655522592,237.65174098699038L370.3849668984067,236.61881989366452L370.36727460177417,236.5644685199165L356.9738495468725,237.09561202321606L344.46111533892736,237.37686553512765L332.3932824039059,254.29225091734082L326.9278791496752,257.7188757458637L326.6986461336671,257.7189040299437L326.2578134100163,257.7189545536904L326.152013556237,257.7189659219388L325.76407815434266,257.6918182509314L325.48194541110087,257.69184426587657L324.77661545400883,257.71908702733447L324.22998287362236,257.7191213985966L324.1241830192834,257.71912714704376L323.4893848792297,257.7463423264973L322.92511858734554,257.74635865032616L322.83695197922225,257.74636044754584L322.766418692709,257.74636173871477L322.5548188331724,257.74636483034743L322.46665222502054,257.7463657723754L320.96781907926885,257.77353747974917L320.84438574012154,257.7735336104505L320.4740857228005,257.7735196080324L320.3330177906524,257.8007001750813L320.2801177505733,257.8006976860547L320.1390509770504,257.8006906902873L320.01561755023823,257.80068414139623L319.89218412346514,257.8006771934197L319.7158506566805,257.8006665754435L319.50425049662863,257.80065275877547L319.32791702999265,257.80064034897316L319.1692169100818,257.8006284837826L319.0105167902264,257.8006159588758L318.9047167103629,257.8006072424326L318.8165499771661,257.8005997547442L318.7107498973582,257.80059050075175L318.6225831642091,257.8005825651103L318.5167830844601,257.80057277356866L318.4286163513553,257.80056438997406L318.3228162716685,257.80055406088775L318.2346495386231,257.8005452293355L318.1112161124019,257.80053252308755L318.00541603282414,257.8005213143782L317.89961595327844,257.80050981245813L317.79381587378447,257.8004980173319L317.6880157943246,257.8004859289995L317.5469490217758,257.8004693551229L317.4587822889649,257.8004587317446L321.4087467523877,252.58086023948385L319.43460196930226,245.1315765024076L316.4384348597683,241.7057060627866L321.12704560025924,237.16590961091714L330.5370087697735,231.91792677475985L328.52780739584625,229.7705564946976L330.4301415587156,226.69807377738027L324.28081345465284,221.45185722404017L309.8292009025778,185.4545370872126L316.5707705888898,180.0187398630575L317.15374807015206,162.61922602374506L309.9095041735613,154.54309499516052L310.2296956132334,142.85284339235133L344.2015928863929,94.18378411578726L336.89679392029876,92.202691479895L337.2462213016989,0.2294717941356339L348.6129287528177,0.16884581185613L392.433268231655,0.004059296119152123L392.40783052705916,33.44397002513551L392.5941627428151,39.37036640506767L391.988714326763,110.46524755417103L392.17410167894934,144.3398080730945L392.1765820462045,164.78436869240625L392.1954982945682,175.06099024871136L392.20015178048106,177.58936536300664L392.23206113387687,185.3647659920343L392.29427544967393,190.4757924143751L392.3342895268309,193.0856629769462L392.3364938346795,194.28188337814254L392.3661235663807,200.8066893328918L392.3174078581862,203.03610642658018L392.3931521588329,205.9177801021464L392.42960690908325,216.1399935289617L392.47150372363285,219.7557759442079L392.47185469057274,219.94608369960864L392.49082461779227,220.6800953816511L393.0557059559274,221.30434751733793L392.2641632618959,221.95829806921512L392.5114505352112,222.31127216454078L392.5325294236784,224.187130301871L392.5534092003021,225.9542411123909L392.54361687326906,230.1954175731738L392.5135401489294,232.99572499820917L372.0065041291428,250.23736001000174L371.83541011729045,240.69498886729417L371.8348790749031,240.28718635145077L371.25324542202515,240.28794002730302L371.0947575635014,240.3968913763618ZM328.19700915901586,254.78251475726256L328.4440234285519,255.78838788236948L328.8141943960843,255.16302710447025Z" stroke="null" id="Lakewood" transform="translate(0, 1) translate(0,0) scale(1)" style="fill: rgb(128, 173, 173); mix-blend-mode: normal;"/><path d="M333.384477929561,267.23290968510094L333.84297459614226,266.96090304446517L334.3367396327043,266.6888796128326L334.4072719219697,266.6344832634165L334.46016661377405,266.5800924951657L334.56597326995575,266.52568442134026L334.67177962501887,266.4712760542814L334.72468268963445,266.4440717607904L335.6769056746532,265.9000082598295L335.7121604857985,265.8456220219247L335.81796332772694,265.7912104782617L335.8885016559887,265.76399823338136L335.9942941430081,265.6823993596261L336.04719517501144,265.6551932334845L336.02936014043047,265.11146283934244L336.0290927503505,264.3774181106948L336.0288352604135,263.6705602158346L336.028567863701,262.9365154705988L336.02844901963323,262.6102733589149L335.97554232359204,262.6102926180088L335.81682223524973,262.61034995542553L335.71100884286517,262.6103878138339L335.5875598849224,262.61043161134785L335.4817464922634,262.6104688344076L335.39356866494586,262.61049962961664L335.2877552720645,262.6105363150741L335.19957744455775,262.610566662288L335.0584929203803,262.610614794267L334.97031509265986,262.61064461202676L334.86450169928514,262.6106801245378L334.77632387137544,262.6107094942979L334.6705104777827,262.6107444692067L334.58233264970517,262.6107733909671L334.3883414276365,262.6108363020388L334.2825280336115,262.610870201752L334.1590790737791,262.6109093807913L334.0532656795149,262.61094264516043L333.96508785087593,262.6109701414629L333.85927445640755,262.61100286822966L333.77109662759375,262.61102991653695L333.66528323292465,262.61106210570597L333.5771054039511,262.61108870600464L333.47129200908455,262.61112035757134L333.3831141799479,262.61114650987486L333.3831944035169,262.8830149412454L333.3126516384694,262.8830357165844L333.2597445646532,262.88305121256485L331.9723461130068,262.91059252904176L331.76071766460944,262.9106466444298L331.49618210359955,262.91071263920304L331.3903678790435,262.91073852394817L331.16103930509195,262.6389251670455L326.9278791496752,257.7188757458637L332.3932824039059,254.29225091734082L344.46111533892736,237.37686553512765L356.9738495468725,237.09561202321606L369.0631991775096,236.6204697744933L370.36727460177417,236.5644685199165L370.3849668984067,236.61881989366452L370.5272655522592,237.65174098699038L371.0907816035359,237.29759213419575L371.17883113399324,237.24310521230552L371.56623903873253,236.9979229735393L371.8658426842493,236.99753335841274L371.7602416404725,237.106418480493L371.4608831297041,237.29711511612425L371.3023732755629,237.37888049943916L371.17911065780896,237.46059989930455L371.17939018057893,237.67809458575277L371.1796347621447,237.86840243593673L371.3558762191742,237.8681753225319L371.56736596592754,237.86790171178546L371.86697643733123,237.86751208972223L371.8498481280317,238.2481507661439L371.85073354133795,238.92782164106058L371.12885644683746,239.49968054038567L370.91756616776723,239.6630727298625L371.041219695183,239.88040936656472L371.147249451536,240.09776826181815L370.93571259143914,240.0708527050636L371.0947575635014,240.3968913763618L371.25324542202515,240.28794002730302L371.8348790749031,240.28718635145077L371.83541011729045,240.69498886729417L372.0065041291428,250.23736001000174L371.75993351514046,250.42798974255342L362.5828816173064,258.1327091719534L350.91634746261997,267.2237059785865L338.6446270732573,276.7463885171612L336.8456791449969,278.16084084027744L333.1028144082288,269.10888402954413L332.97925166836967,268.78267730692187L333.3141423689717,267.96697517079593L332.90835996506036,267.5864763373698L332.9083292327148,267.4777289727692L333.2610299119574,267.28731964207276L333.3315728199071,267.26011212141253Z" stroke="null" id="Lester Park" transform="translate(0, 1) translate(0,0) scale(1)" style="fill: rgb(128, 173, 173); mix-blend-mode: normal;"/><path d="M315.48029804358924,278.299045805662L314.95110038353,277.8367741586301L314.43955789134515,277.3744987197473L314.2984466186723,277.23853596025185L313.8927492749929,276.88502202224726L313.36359657952664,276.39554153300537L312.8344508416258,275.93324054655886L312.67571564545545,275.77008066661915L312.3758769744806,275.49813709801424L312.1994970666317,275.362157579044L311.95258173243684,275.11741120802344L311.45874541435563,274.682287349971L310.9825612681471,274.2471622434086L309.85386370502806,273.2409038537928L309.8538811195893,273.186530177117L309.6950730219354,273.3224131241573L305.26687509896476,274.29944426161506L299.65647655549213,275.2752857290576L299.5475665207276,280.46790858458L299.86251598030566,285.00829557946065L300.40924591008564,285.5251598358646L300.74435554160726,285.824403845498L301.2205675192617,286.2596564736251L301.55568993297004,286.5588933620676L301.37919437683695,286.613171724661L301.04371379746664,286.96641719908894L300.8671402030882,287.15662734339816L300.2667582453523,287.83595992172945L299.75462430361296,288.4609611090336L299.7369450386815,288.51532444083495L299.70160227197294,288.5968642515885L298.2536221874159,290.00970357656774L296.5946549784279,290.0630059382264L296.2767484153232,290.4162213211313L295.040611500026,291.4756526783299L294.68734185185417,291.88320347206286L294.03303056523146,293.6498730068823L293.94482116116814,293.59543444591196L293.85661200802826,293.54099568126014L293.7330833467509,293.51371735057546L293.5919050564211,293.4864254584676L293.4860062271337,293.4863463145584L292.05611597883524,293.81149102361775L288.96735050191756,293.83612484407087L288.73792464420836,293.8087384114923L288.596772613226,293.75424124722673L287.97926749587265,293.48182649684577L287.8381177496342,293.4273265299794L287.5910453815622,293.3999173848101L287.6265897757855,293.128081036548L287.6444352076546,292.9106023869582L287.64482679521615,292.47561325111513L287.6454386566556,291.7959427188065L287.64597710064845,291.1978326427901L287.6287936139612,290.68126710987144L287.64668687620633,290.40941480450454L287.71752466966154,290.1376101638243L287.80598523387624,289.89300805567075L287.9651338093902,289.53972157576857L288.1772711184399,289.13210782279646L288.5484707629131,288.45276444550814L288.9550457896123,287.66470079141504L289.3085939415024,286.9581478799243L289.3969905617029,286.7679157273519L289.46776287171474,286.55048147738876L289.50326452864323,286.3058301767447L289.5213508358983,285.7892955445685L289.53992252620475,284.7018375533647L289.54036211390684,284.18528785453805L289.55860885093597,283.47844539753316L288.6234138125365,283.4776373826922L288.0234773856199,283.4771069812895L287.599992855119,283.4767269086417L287.45883134609767,283.47659917469497L287.282379460637,283.4764387738669L287.0177016341271,283.47619664469084L286.1001774329697,283.4481562430879L285.21791867734345,283.447314717096L284.6532464767579,283.47395227334727L284.600310915497,283.47390035162226L284.51208498024675,283.47381365243524L284.42388581773906,283.4465399253871L284.31801477128033,283.4464353730424L284.2298158099328,283.4191611979394L284.1592351628371,283.41909117045634L284.03577312752884,283.3645946607078L283.98286480374077,283.337355059512L283.8593761094534,283.3100448035703L283.75355993905725,283.25556503920046L283.6653618194063,283.22828956083595L282.97753756161717,282.9013491817147L282.8011721122176,282.8196076141075L282.3778924621188,282.6288618937955L282.0427836459442,282.4925777343426L281.4960565777197,282.24731889027566L281.37260211461717,282.1928137721286L281.1785988001818,282.1110458977979L280.96698102479667,282.0020712216516L280.75536445480725,281.8930953728716L280.66717161052657,281.86581297166333L280.490845437442,281.75687391293053L280.31452026870716,281.64793403997726L280.1558403986051,281.5390127291077L279.45058389303085,281.0760553416418L279.04507601801913,280.8037319101516L278.9921747883855,280.7764853953185L279.02752389429435,280.72215155382645L278.97462279013206,280.6949050146144L278.11072798041903,280.122995997775L277.5111610844288,279.8504322966474L275.4832171154056,278.9780318658684L274.9895113115489,278.7327444326599L274.3197225717313,278.21536213935906L271.3064211316313,275.49278750085466L268.7868696485706,273.2056566936387L268.8046616482727,273.0969340382787L268.79137988408434,269.97042517318516L268.80985241786226,269.3723397429569L268.7939951777289,268.094534547992L268.7824997042445,263.69024475532166L268.78356143856354,262.9290137076956L268.7870880131131,260.40063909254144L268.80839975761063,257.76354169935513L270.3424623350491,257.7928393058403L274.64496381077555,257.8256171298663L278.6124999737437,257.80315619788746L278.80649757121483,257.776189837572L278.96522825315765,257.74918265817496L279.12398928265765,257.69498798617417L279.318077271591,257.58645852834934L289.84368102342734,259.3095757504869L295.87377743583926,260.4016688392176L300.8629644274337,262.9059605377222L300.81043589848247,262.2262600495686L301.19884558319205,261.4380560402334L317.4235189244101,257.77326757944127L317.4411124663404,258.0995118873018L317.4763531081711,258.31701094362325L317.70550526057684,259.0510828664938L317.93470476065255,259.43172441751744L318.58711141695744,260.02990066949724L318.69290554110233,260.1658444913994L318.8339670940606,260.3289779008071L318.93976067440434,260.49210788296955L319.0102858305885,260.65523473107237L319.0631790118926,260.79117320379123L319.18656609528483,261.52522763791353L319.45099777331035,262.8845891379922L319.53914523950993,263.34677150588163L319.52144324801293,264.32549668562115L319.45086387489266,264.8148550296357L319.4155811549473,264.9507867791136L319.36265952760385,265.1139040771866L319.1862653603157,265.46731997177045L318.46302631449714,266.7994131784782L318.2689729447032,267.2071968254195L317.8455746387946,268.0499440785501L317.5280144775435,268.6752047201036L316.59299318956784,269.9800496603305L316.1871960527645,270.63247314826185L316.046021639762,271.01306679386437L315.90483119950625,271.4752204352084L315.8341879086667,271.9917588764527L315.81645863795956,272.53549276881813L315.81635138602985,273.187976912141L315.8339205309892,273.62296923633676L315.8162307290492,273.9220215646902L315.8162173228122,274.00358208106155L315.7984734327442,274.6288764619396L315.7983165908392,275.5804158008707L315.79828522276654,275.77072366676776L315.798276260479,275.82509734262675L315.7982269680473,276.1241525589009L315.78045485364527,276.9125679329996L315.78037846280273,277.3747441668078L315.78030207256813,277.8369203968413L315.79792673780855,277.9456706604384L315.63911542101636,278.10876514502473Z" stroke="null" id="Lowell" transform="translate(0, 1) translate(0,0) scale(1)" style="fill: rgb(128, 173, 173); mix-blend-mode: normal;"/><path d="M268.05606741165406,341.11738981041185L268.1620979427533,341.1175393738174L268.2681284743501,341.11768864351825L268.3741590064497,341.1178376195144L268.48026555119407,341.06361274638823L268.53335667959453,341.0093134217294L268.5864855889067,340.92782724548965L268.60427101238133,340.8462916143999L268.60442268674416,340.73754450229L268.53396417866276,340.57432497416926L268.48106368299995,340.4926904096177L268.4104919833091,340.4110309876034L268.32224919247994,340.3293466103455L268.1810691537246,340.1932138273638L267.9163832902509,339.9209717172281L267.863561904936,339.7849627407027L267.8636772409736,339.70340240604355L267.8637541317555,339.6490288494924L267.81101027731586,339.45864624243484L267.82883515070796,339.34992418966135L267.77613039480804,339.13235475416553L267.829335270792,338.99649606769304L267.91780438571567,338.9150609126374L267.97097009029955,338.80638880769715L267.9887174973196,338.7520402368882L267.93582068906346,338.6704049136487L267.93589748100965,338.6160313554716L267.936012669064,338.534471018074L267.93608946119025,338.4800974597081L267.90094048696585,338.34411353231405L267.86575331739607,338.23531635140125L267.86594554935357,338.09938245451616L267.8660224422628,338.045008895626L267.8660993352441,337.99063533666595L267.8662915680128,337.85470143888597L267.8663684612465,337.8003278796423L267.8664453545523,337.74595432031936L267.84889053042076,337.6643689374024L267.8489674489588,337.6099953779094L267.84904436756887,337.55562181832556L267.8491212862511,337.50124825868016L267.8315666129258,337.4196628672453L267.84931358327225,337.3653143591955L267.86721429157643,337.20221872270974L267.86729118567547,337.1478451625078L267.8673680798466,337.09347160223933L267.90286157062246,336.9847745438326L267.9736560913395,336.90331422965903L267.9737328355218,336.8489406688676L267.90305368146534,336.8488406422688L267.8325284170443,336.73999336377426L267.7619650314217,336.6583327352846L267.74437240092476,336.6039340822862L267.6915948105805,336.44073807421205L267.6918262476958,336.27761739092455L267.63897211404463,336.16879487010306L267.63908794579993,336.0872345280776L267.6743110643126,336.1688451437513L267.76261991736436,336.19615746584475L267.7980358885255,336.1418340637813L267.79815138212564,336.06027372132047L267.7098428171274,336.0329614810258L267.69232769701256,335.92418924136837L267.71015130205234,335.8154672340122L267.74560553373647,335.73395709901024L267.69271342933615,335.65232143176536L267.71045978813436,335.59797298575825L267.7282831936343,335.4892509690794L267.7283602904274,335.434877406634L267.74618357111115,335.32615538120126L267.74626064306824,335.2717818184958L267.74633771509764,335.21740825571004L267.7464147871993,335.1630346928483L267.7465303954873,335.08147434841175L267.7466845401243,334.9727272222093L267.7468001487917,334.8911668773689L267.74687722132705,334.8367933140388L267.74703136661446,334.7280461871426L267.57038191590306,334.70060804463355L267.4289927654184,334.7275931502233L267.2876422774744,334.7273909521077L267.0755775349133,334.7542734572645L266.84584365813686,334.7811292801117L266.77516831571614,334.7810271694185L266.70445369815155,334.80811170908964L266.59844061014627,334.80795810245763L266.2626137360345,334.8890300855509L266.13889186338787,334.91603620175874L266.05050763636683,334.94309369141206L265.80306306757774,334.99710415262365L265.62629363972053,335.05121737681793L265.48486168198053,335.1053820802339L265.4318547275473,335.1053036245586L265.2727532854524,335.1594413759875L265.2197059290444,335.18654940596394L265.1136513936679,335.2135784660601L264.9192109331415,335.26766210951376L264.8131559609128,335.2946903369725L264.72476992332236,335.32174476519094L264.63666894549544,335.15849153722013L264.1956005854977,334.72283724725514L263.6293281733877,335.29289989456066L263.5587348992333,335.2384182881997L263.55898392829994,335.0752976199998L263.5598555355502,334.50437527577174L263.5789350091084,333.5800518194799L263.57984786963533,332.9819426729942L263.5800138452882,332.87319555445106L263.58030430342967,332.68288809625903L263.65097577690705,332.6829961083455L263.6333908215746,332.62859555781995L263.6335981045482,332.4926616581183L263.50992364005316,332.492472494947L263.2625747132932,332.4920929695186L262.99755800937174,332.4916845609681L262.85621576869346,332.49146599262184L262.7502090888303,332.4913017237664L262.6265346296907,332.49110970562043L262.52052795103,332.49094480051576L262.34385015449925,332.4906693061053L262.2201756978501,332.4904759746727L261.9728267868311,332.4900881127127L261.70781009984773,332.48967077216923L261.5664678682401,332.4894474400956L261.33678674400653,332.4890834120373L261.0541022870779,332.4886334850583L260.9304278384456,332.48843598536416L260.68303539486476,332.5152265642968L260.4003507469028,332.5147718080852L260.2766762147098,332.514572195594L260.02932715268355,332.5141717715258L259.76431030401596,332.5137409715802L259.6936391449852,332.5136257816214L259.640635775876,332.5135393035017L259.39328672199247,332.5131347682726L259.1106020928884,332.5126704845931L259.0575987253967,332.5125831989274L258.98692756896384,332.512466703836L258.7395785235359,332.5120579432406L258.47456169272493,332.51161821128807L258.35088717294394,332.51141237495267L258.1035381358336,332.51099950318695L257.82085352596596,332.51052569204785L257.69717901049313,332.51031774302464L257.44982998199936,332.50990064589223L257.18481316941154,332.5094519819458L257.0435170001367,332.48202516996724L256.81383593023406,332.48163399517284L256.5311515404327,332.48115065683317L256.4428126695202,332.4809991853551L256.1954638332094,332.4805739803285L255.9127794529661,332.48008607402755L256.2673019464049,331.8010262904511L258.9928349150847,328.9238121210807L261.6472573829537,326.0734789716855L262.7973216454008,324.87905757718374L263.6665186356757,322.48795233363023L263.7054491299972,320.12275575212357L263.726217417491,318.0837735268024L263.7488886196068,314.7941987824356L263.79269149970276,309.22095994891237L269.2487973729123,309.17451690422337L269.3192007345889,309.3377352601588L269.38964211137363,309.4737666859346L269.6011183018184,309.77311298246667L269.7245707806196,309.8820296812353L269.88330172331405,310.0181810219169L272.5829899736386,311.4898620651177L273.04164802096255,311.8438822305242L273.18274056371183,311.9799972054469L273.2708589361719,312.1160440519641L273.37663638996787,312.2521131980118L273.49983167646826,312.57851210346615L273.5526696769167,312.6873265967272L273.6407909976874,312.8233725878304L274.0287028337518,313.2860385255127L277.63210326378334,312.44760631710477L281.4097037601254,313.70240697628776L283.77521049297883,314.5204557815438L285.8933229470832,315.6099930329367L287.234345178211,316.8618332619925L293.3582034645725,322.6849057851275L286.7130014125605,326.811732811742L284.30737633003895,330.0174772555757L284.03749187719393,334.93802434641657L285.0602929345053,337.0052261459134L282.615051317528,343.60917785649224L281.43036141405133,344.17886060594697L272.36846958094225,340.7426202350542L268.10671002849944,342.80304478886444L267.86160121712084,341.17148840238576Z" stroke="null" id="MacArthur" transform="translate(0, 1) translate(0,0) scale(1)" style="fill: rgb(128, 173, 173); mix-blend-mode: normal;"/><path d="M315.6556128835853,284.9054769085424L315.7085413445408,284.9598594710143L319.2548502565947,291.83855686192527L348.5385210108779,348.7043483915502L340.7460317908765,353.4394380775693L311.90561108025804,319.0241259855622L302.551025281355,307.1670339366507L299.30474452625094,303.0600250987538L298.8106909713684,302.6247380149882L298.722454076996,302.5703104948243L298.4225043113605,302.2982575779115L296.81576896931387,302.6506574012246L296.37463740551414,302.3241211016644L295.8453006480151,301.9159587272894L294.55736347728754,300.8275791113976L294.01117175490936,299.3862794336909L287.5733956170573,293.3999014433581L287.8381177496342,293.4273265299794L287.97926749587265,293.48182649684577L288.3850453200005,293.67249452314167L288.73792464420836,293.8087384114923L288.96735050191756,293.83612484407087L292.05611597883524,293.81149102361775L293.4860062271337,293.4863463145584L293.5919050564211,293.4864254584676L293.7330833467509,293.51371735057546L293.85661200802826,293.54099568126014L293.94482116116814,293.59543444591196L294.03303056523146,293.6498730068823L294.68734185185417,291.88320347206286L295.040611500026,291.4756526783299L296.2767484153232,290.4162213211313L296.5946549784279,290.0630059382264L298.2536221874159,290.00970357656774L299.70160227197294,288.5968642515885L299.7369450386815,288.51532444083495L299.75462430361296,288.4609611090336L300.2667582453523,287.83595992172945L300.8671402030882,287.15662734339816L301.04371379746664,286.96641719908894L301.37919437683695,286.613171724661L301.55568993297004,286.5588933620676L301.2205675192617,286.2596564736251L300.74435554160726,285.824403845498L300.40924591008564,285.5251598358646L299.86251598030566,285.00829557946065L299.5475665207276,280.46790858458L299.65647655549213,275.2752857290576L305.26687509896476,274.29944426161506L309.6950730219354,273.3224131241573L309.8186002313461,273.1865188465031L309.85386370502806,273.2409038537928L310.9825612681471,274.2471622434086L311.45874541435563,274.682287349971L311.95258173243684,275.11741120802344L312.1642212355765,275.33496157746634L312.3758769744806,275.49813709801424L312.6580740096133,275.7700763087066L312.8344508416258,275.93324054655886L313.36359657952664,276.39554153300537L313.8927492749929,276.88502202224726L314.2984466186723,277.23853596025185L314.43955789134515,277.3744987197473L314.95110038353,277.8367741586301L315.48029804358924,278.299045805662L315.4450029755443,278.35341334569574L314.88031444298247,278.978608018264L314.2626661012723,279.65815718337524L313.6626395638184,280.33770025698936L313.1510855408097,279.8482207505525L312.62189458207126,279.385916850763L312.07507332549795,278.9236009891031L311.56355853243343,278.4341002109011L311.4576710836276,278.5428182042335L311.316497103573,278.65152595717785L311.263560505901,278.6786978120002L311.1400440826004,278.7330362426526L311.0694720731908,278.733015925521L310.98124915751146,278.76017718167304L310.9988684981014,278.8417428215501L311.31630546086194,279.3311968530258L311.33391812662165,279.43994917309556L311.33390282040745,279.4943228442928L311.35152325220605,279.57588832037885L311.81011976002077,280.06537770298775L311.8630433337183,280.09257876216844L311.93361785133044,280.09259761315775L312.0041995455525,280.0654294983687L312.0394724763404,280.1198124805925L312.533385646134,280.5549287838648L313.0273100529914,280.99003869752937L313.1155111100286,281.0716200575876L313.5918045288181,281.5067185138225L314.068108782854,281.94181102815423L314.1210365579595,281.96900895815173L314.65027608287767,282.4584789014027L315.1795340706706,282.92075467404175L315.532372054171,283.2742458372823L315.9734080162299,283.8452426671621L316.39681557539274,284.38904493466214L316.4497403583893,284.4706133046315L316.3791496307722,284.52497646401775L316.2379717408576,284.6065155577635L316.114438998083,284.68805689939575L315.9732599424098,284.7695950148556L315.8497305519181,284.823948666967L315.708550430792,284.90548580418556Z" stroke="null" id="Myers-Wilkins" transform="translate(0, 1) translate(0,0) scale(1)" style="fill: rgb(128, 173, 173); mix-blend-mode: normal;"/><path d="M287.5910453815622,293.3999173848101L294.01117175490936,299.3862794336909L294.55736347728754,300.8275791113976L295.8453006480151,301.9159587272894L296.37463740551414,302.3241211016644L296.81576896931387,302.6506574012246L298.4225043113605,302.2982575779115L298.722454076996,302.5703104948243L298.8106909713684,302.6247380149882L299.30474452625094,303.0600250987538L302.551025281355,307.1670339366507L311.90561108025804,319.0241259855622L310.3334550836108,319.9208394616897L298.42908893949794,320.2143793949116L296.20318337391967,320.9197943953111L293.3582034645725,322.6849057851275L287.234345178211,316.8618332619925L285.8933229470832,315.6099930329367L283.77521049297883,314.5204557815438L281.4097037601254,313.70240697628776L277.63210326378334,312.44760631710477L274.0287028337518,313.2860385255127L273.6407909976874,312.8233725878304L273.5526696769167,312.6873265967272L273.49983167646826,312.57851210346615L273.37663638996787,312.2521131980118L273.2708589361719,312.1160440519641L273.18274056371183,311.9799972054469L273.04164802096255,311.8438822305242L272.5829899736386,311.4898620651177L269.88330172331405,310.0181810219169L269.7245707806196,309.8820296812353L269.6011183018184,309.77311298246667L269.38964211137363,309.4737666859346L269.3192007345889,309.3377352601588L269.2487973729123,309.17451690422337L269.12579974572196,308.73935706778184L268.7931200533405,306.7270675843655L268.79667714869197,304.1715082219669L268.797244784784,303.7637061828751L268.7815208760278,302.37715460491677L268.76856280639686,299.0059662223939L268.77125167153054,297.07570299648233L268.7721227315249,296.4504064419664L268.75807070946576,293.86763508886276L268.76148057517827,291.4208222811784L268.7829170795857,288.70216587251696L268.8149546167484,278.37120126327113L268.8168482206455,277.0118604300799L268.8185146287416,275.8156404699257L268.80261574296287,274.56502223617673L268.8043585479264,273.3144285884358L268.7868696485706,273.2056566936387L271.3064211316313,275.49278750085466L274.3197225717313,278.21536213935906L274.9895113115489,278.7327444326599L275.4832171154056,278.9780318658684L277.5111610844288,279.8504322966474L278.11072798041903,280.122995997775L279.02752389429435,280.72215155382645L278.9921747883855,280.7764853953185L279.04507601801913,280.8037319101516L279.45058389303085,281.0760553416418L280.12058164273685,281.51178714573285L280.31452026870716,281.64793403997726L280.490845437442,281.75687391293053L280.66717161052657,281.86581297166333L280.7377199971696,281.89307627348035L280.96698102479667,282.0020712216516L281.1785988001818,282.1110458977979L281.37260211461717,282.1928137721286L281.4960565777197,282.24731889027566L282.0427836459442,282.4925777343426L282.3778924621188,282.6288618937955L282.8011721122176,282.8196076141075L282.97753756161717,282.9013491817147L283.6653618194063,283.22828956083595L283.75355993905725,283.25556503920046L283.8593761094534,283.3100448035703L283.98286480374077,283.337355059512L284.03577312752884,283.3645946607078L284.14161697422037,283.3918868192068L284.2298158099328,283.4191611979394L284.2827244225392,283.44640045706365L284.38859546888034,283.44650510719737L284.51208498024675,283.47381365243524L284.600310915497,283.47390035162226L284.6532464767579,283.47395227334727L285.21791867734345,283.447314717096L286.1001774329697,283.4481562430879L287.0177016341271,283.47619664469084L287.282379460637,283.4764387738669L287.45883134609767,283.47659917469497L287.599992855119,283.4767269086417L288.0234773856199,283.4771069812895L288.6234138125365,283.4776373826922L289.55860885093597,283.47844539753316L289.54038525021,284.1581010281433L289.53992252620475,284.7018375533647L289.5213508358983,285.7892955445685L289.50326452864323,286.3058301767447L289.46776287171474,286.55048147738876L289.3969905617029,286.7679157273519L289.3085939415024,286.9581478799243L288.9550457896123,287.66470079141504L288.5484707629131,288.45276444550814L288.1772711184399,289.13210782279646L287.9651338093902,289.53972157576857L287.80598523387624,289.89300805567075L287.71752466966154,290.1376101638243L287.64668687620633,290.40941480450454L287.6287936139612,290.68126710987144L287.64597710064845,291.1978326427901L287.6454386566556,291.7959427188065L287.64482679521615,292.47561325111513L287.6444352076546,292.9106023869582L287.6265897757855,293.128081036548Z" stroke="null" id="Piedmont" transform="translate(0, 1) translate(0,0) scale(1)" style="fill: rgb(128, 173, 173); mix-blend-mode: normal;"/><path d="M263.6335981045482,332.4926616581183L263.6333908215746,332.62859555781995L263.65097577690705,332.6829961083455L263.58030430342967,332.68288809625903L263.5800138452882,332.87319555445106L263.57984786963533,332.9819426729942L263.5789350091084,333.5800518194799L263.5598555355502,334.50437527577174L263.55898392829994,335.0752976199998L263.5587348992333,335.2384182881997L263.6116591024384,335.29287289418846L264.1956005854977,334.72283724725514L264.60145322460653,335.0768781216052L264.72476992332236,335.32174476519094L264.8131559609128,335.2946903369725L264.9192109331415,335.26766210951376L265.1136513936679,335.2135784660601L265.2197059290444,335.18654940596394L265.2727532854524,335.1594413759875L265.4318547275473,335.1053036245586L265.48486168198053,335.1053820802339L265.62629363972053,335.05121737681793L265.80306306757774,334.99710415262365L266.01516981611235,334.94304191803565L266.13889186338787,334.91603620175874L266.2626137360345,334.8890300855509L266.59844061014627,334.80795810245763L266.70445369815155,334.80811170908964L266.77516831571614,334.7810271694185L266.84584365813686,334.7811292801117L267.0755775349133,334.7542734572645L267.2876422774744,334.7273909521077L267.4289927654184,334.7275931502233L267.57038191590306,334.70060804463355L267.71173230545406,334.7008091984842L267.74687722132705,334.8367933140388L267.7468001487917,334.8911668773689L267.7466845401243,334.9727272222093L267.7465303954873,335.08147434841175L267.7464533232772,335.1358479113886L267.74633771509764,335.21740825571004L267.74626064306824,335.2717818184958L267.74618357111115,335.32615538120126L267.74610649922624,335.38052894382866L267.7282831936343,335.4892509690794L267.710498348976,335.5707862046321L267.69271342933615,335.65232143176536L267.74560553373647,335.73395709901024L267.7101898627493,335.7882804530525L267.69232769701256,335.92418924136837L267.7098428171274,336.0329614810258L267.7628510548257,336.0330367811591L267.7980358885255,336.1418340637813L267.76261991736436,336.19615746584475L267.6743110643126,336.1688451437513L267.63908794579993,336.0872345280776L267.62130263893187,336.16876972103466L267.6918262476958,336.27761739092455L267.70930297129325,336.41357641027764L267.7091101700684,336.54951031264557L267.7619650314217,336.6583327352846L267.7972274378735,336.71275645601247L267.86779099907676,336.7944170193227L267.9737328355218,336.8489406688676L267.9736560913395,336.90331422965903L267.9206082409707,336.9304260021952L267.8851148502436,337.0391230771837L267.86729118567547,337.1478451625078L267.86721429157643,337.20221872270974L267.84931358327225,337.3653143591955L267.8492366644097,337.4196879190492L267.84915974561926,337.4740614788254L267.84904436756887,337.55562181832556L267.8489674489588,337.6099953779094L267.84889053042076,337.6643689374024L267.84881361195494,337.71874249682276L267.8663684612465,337.8003278796423L267.8662915680128,337.85470143888597L267.8662146748512,337.90907499805735L267.8660224422628,338.045008895626L267.86594554935357,338.09938245451616L267.86575331739607,338.23531635140125L267.8833468770863,338.2897149459533L267.9362046495146,338.39853712201227L267.936012669064,338.534471018074L267.93589748100965,338.6160313554716L267.93582068906346,338.6704049136487L267.9710852028216,338.72482847062435L267.97097009029955,338.80638880769715L267.9532226332503,338.86073737020183L267.86475371848235,338.94217260717886L267.7762074116034,339.07798119692836L267.82883515070796,339.34992418966135L267.81101027731586,339.45864624243484L267.86379257717346,339.6218420712005L267.8636772409736,339.70340240604355L267.863561904936,339.7849627407027L267.9163832902509,339.9209717172281L268.16339782435966,340.1931889291516L268.3046159322094,340.3021349991863L268.4104919833091,340.4110309876034L268.44575877976234,340.46545410398187L268.53396417866276,340.57432497416926L268.60442268674416,340.73754450229L268.60427101238133,340.8462916143999L268.5864855889067,340.92782724548965L268.53335667959453,341.0093134217294L268.48026555119407,341.06361274638823L268.39186883053077,341.09067564265695L268.2681284743501,341.11768864351825L268.1620979427533,341.1175393738174L268.05606741165406,341.11738981041185L267.87927299717006,341.1715134397888L268.10671002849944,342.80304478886444L261.72748328592786,342.4400860952154L260.39943235694517,344.0691788197716L257.6686877747764,349.4748612957734L254.0936389998517,352.05142814608433L253.83895926409042,356.101814280241L257.1068408021184,357.6843362905892L264.63732413704355,358.32167287993286L267.84999314162894,361.8878315780556L267.2949649201811,366.7262943095782L260.4442302471427,371.2017057425287L254.34757904241195,378.45029121665823L255.55545230207008,385.76566077480527L250.2742018416218,390.54100817880635L244.84586714631155,388.6001890217433L243.48368105936134,388.4886723332619L235.56896729510038,391L228.6844830500491,384.2143153955779L224.0883567176216,389.69458560868156L221.84063677686598,389.90626804979945L220.7652320108187,388.4081624528568L219.99545687038037,385.116507678036L217.99854316479176,384.2683428794898L215.45132780288645,384.1254056384239L214.2336634468144,383.0345224598441L213.663900760155,378.05771234183163L211.75515502282394,377.4813387830773L211.30290779851654,380.95995777335554L208.9199512383062,379.1858454883744L206.97665661641207,378.33726267812017L206.94429404407254,377.3312494883705L206.94559732068097,370.9967008088753L226.736031001417,370.9151371836254L237.66625465402086,370.66891563117343L238.38687534280052,340.30276736734504L244.5954628322343,337.3796609654826L246.38233670199833,336.26857632449855L248.07866294260833,336.2447080131791L248.0792926687245,335.91846686294014L248.07971248810372,335.70097276121464L255.11535495085246,333.8380412311732L255.87744390574449,332.48002493891755L256.1247927377374,332.4804521995232L256.407477121272,332.4809385396643L256.5311515404327,332.48115065683317L256.7785003812721,332.48157369208013L257.0435170001367,332.48202516996724L257.18481316941154,332.5094519819458L257.4321621943821,332.5098707920632L257.69717901049313,332.51031774302464L257.82085352596596,332.51052569204785L258.06820255936805,332.51094039099485L258.35088717294394,332.51141237495267L258.4568939041299,332.5115888305702L258.7219107346999,332.512028684873L258.98692756896384,332.512466703836L259.0575987253967,332.5125831989274L259.1106020928884,332.5126704845931L259.3579511431263,332.5130768470078L259.640635775876,332.5135393035017L259.6936391449852,332.5136257816214L259.76431030401596,332.5137409715802L260.0116593626533,332.51414310863316L260.2766762147098,332.514572195594L260.4003507469028,332.5147718080852L260.6476998136468,332.5151698339729L260.9304278384456,332.48843598536416L261.0364345086543,332.488605295286L261.30145118666934,332.48902728536063L261.5664678682401,332.4894474400956L261.70781009984773,332.48967077216923L261.93749122836437,332.49003257335255L262.2201756978501,332.4904759746727L262.34385015449925,332.4906693061053L262.52052795103,332.49094480051576L262.5911990700753,332.4910547698801L262.7502090888303,332.4913017237664L262.85621576869346,332.49146599262184L262.99755800937174,332.4916845609681L263.2449069329251,332.49206579938135L263.50992364005316,332.492472494947Z" stroke="null" id="Stowe" transform="translate(0, 1) translate(0,0) scale(1)" style="fill: rgb(128, 173, 173); mix-blend-mode: normal;"/></g><path d="M331.3903678790435,262.91073852394817L331.49618210359955,262.91071263920304M336.02844901963323,262.6102733589149L336.028567863701,262.9365154705988M335.7121604857985,265.8456220219247L335.6769056746532,265.9000082598295M315.6556128835853,284.9054769085424L315.708550430792,284.90548580418556L315.8497305519181,284.823948666967L315.9732599424098,284.7695950148556L316.114438998083,284.68805689939575L316.2379717408576,284.6065155577635L316.3791496307722,284.52497646401775L316.43209068072565,284.4977975235616L316.39681557539274,284.38904493466214L315.9734080162299,283.8452426671621L315.532372054171,283.2742458372823L315.19717900445505,282.9207578673078L314.65027608287767,282.4584789014027L314.1210365579595,281.96900895815173L314.068108782854,281.94181102815423L313.5918045288181,281.5067185138225L313.1155111100286,281.0716200575876L313.06259171548805,281.01723389898416L312.533385646134,280.5549287838648L312.0394724763404,280.1198124805925L312.0041995455525,280.0654294983687L311.93361785133044,280.09259761315775L311.8630433337183,280.09257876216844L311.81011976002077,280.06537770298775L311.3691513872651,279.6302669526821L311.33390282040745,279.4943228442928L311.33391812662165,279.43994917309556L311.31630546086194,279.3311968530258L310.9988684981014,278.8417428215501L310.98124915751146,278.76017718167304L311.0694720731908,278.733015925521L311.1400440826004,278.7330362426526L311.210623833032,278.7058695934632L311.316497103573,278.65152595717785L311.3694336260292,278.62435402898933L311.56355853243343,278.4341002109011L312.07507332549795,278.9236009891031L312.62189458207126,279.385916850763L313.1510855408097,279.8482207505525L313.6626395638184,280.33770025698936L314.2626661012723,279.65815718337524L314.88031444298247,278.978608018264L315.4450029755443,278.35341334569574L315.48029804358924,278.299045805662L315.63911542101636,278.10876514502473L315.79792673780855,277.9456706604384L315.78030207256813,277.8369203968413L315.78037846280273,277.3747441668078L315.78045485364527,276.9125679329996L315.7982269680473,276.1241525589009L315.798276260479,275.82509734262675L315.79828522276654,275.77072366676776L315.79831210967967,275.60760263889483L315.7984734327442,274.6288764619396L315.8162173228122,274.00358208106155L315.8162307290492,273.9220215646902L315.8339205309892,273.62296923633676L315.8163469172256,273.21516375128954L315.81645863795956,272.53549276881813L315.8341879086667,271.9917588764527L315.90483119950625,271.4752204352084L316.046021639762,271.01306679386437L316.1871960527645,270.63247314826185L316.59299318956784,269.9800496603305L317.5280144775435,268.6752047201036L317.8455746387946,268.0499440785501L318.2689729447032,267.2071968254195L318.46302631449714,266.7994131784782L319.1862653603157,265.46731997177045L319.36265952760385,265.1139040771866L319.4155811549473,264.9507867791136L319.45086387489266,264.8148550296357L319.52144324801293,264.32549668562115L319.53914523950993,263.34677150588163L319.45099777331035,262.8845891379922L319.18656609528483,261.52522763791353L319.0631790118926,260.79117320379123L319.0102858305885,260.65523473107237L318.93976067440434,260.49210788296955L318.8339670940606,260.3289779008071L318.69290554110233,260.1658444913994L318.58711141695744,260.02990066949724L317.93470476065255,259.43172441751744L317.70550526057684,259.0510828664938L317.4763531081711,258.31701094362325L317.4411124663404,258.0995118873018M317.4235155958514,257.8004544253835L317.51168232865035,257.800465130205L317.6880157943246,257.8004859289995L317.776182527205,257.80049602297254L317.89961595327844,257.80050981245813L318.00541603282414,257.8005213143782L318.1112161124019,257.80053252308755L318.217016192017,257.80054343859075L318.3228162716685,257.80055406088775L318.4286163513553,257.80056438997406L318.5167830844601,257.80057277356866L318.6225831642091,257.8005825651103L318.7107498973582,257.80059050075175L318.8165499771661,257.8005997547442L318.9047167103629,257.8006072424326L319.0105167902264,257.8006159588758L319.1692169100818,257.8006284837826L319.32791702999265,257.80064034897316L319.50425049662863,257.80065275877547L319.7158506566805,257.8006665754435L319.89218412346514,257.8006771934197L320.01561755023823,257.80068414139623L320.1390509770504,257.8006906902873L320.2801177505733,257.8006976860547L320.3330177906524,257.8007001750813L320.4740857228005,257.7735196080324L320.84438574012154,257.7735336104505L320.8972857426149,257.7735353175897L322.46665222502054,257.7463657723754L322.51955218991446,257.7463652315911L322.766418692709,257.74636173871477L322.83695197922225,257.74636044754584L322.88985194409435,257.74635939364833L323.47175155761335,257.7463429628589L324.1241830192834,257.71912714704376L324.22998287362236,257.7191213985966L324.77661545400883,257.71908702733447L325.4643121146406,257.6918458225813L325.76407815434266,257.6918182509314L326.152013556237,257.7189659219388L326.2578134100163,257.7189545536904L326.6986461336671,257.7189040299437L326.9102458407651,257.718877970433M336.89679392029876,92.202691479895L344.2015928863929,94.18378411578726L310.2296956132334,142.85284339235133M371.041219695183,239.88040936656472L370.9352259052611,239.69023701175422M371.12885644683746,239.49968054038567L371.85073354133795,238.92782164106058M371.86697643733123,237.86751208972223L371.56736596592754,237.86790171178546M371.8658426842493,236.99753335841274L371.56623903873253,236.9979229735393L371.17883113399324,237.24310521230552M315.48029804358924,278.299045805662L314.95110038353,277.8367741586301M312.67571564545545,275.77008066661915M310.9825612681471,274.2471622434086L309.85386370502806,273.2409038537928L309.8538811195893,273.186530177117L309.6950730219354,273.3224131241573L305.26687509896476,274.29944426161506L299.65647655549213,275.2752857290576L299.5475665207276,280.46790858458L299.86251598030566,285.00829557946065L300.40924591008564,285.5251598358646M301.2205675192617,286.2596564736251L301.55568993297004,286.5588933620676L301.37919437683695,286.613171724661M300.8671402030882,287.15662734339816L300.2667582453523,287.83595992172945M296.2767484153232,290.4162213211313L295.040611500026,291.4756526783299M288.96735050191756,293.83612484407087L288.73792464420836,293.8087384114923M287.5910453815622,293.3999173848101L287.6265897757855,293.128081036548L287.6444352076546,292.9106023869582L287.64482679521615,292.47561325111513L287.6454386566556,291.7959427188065L287.64597710064845,291.1978326427901L287.6287936139612,290.68126710987144L287.64668687620633,290.40941480450454L287.71752466966154,290.1376101638243L287.80598523387624,289.89300805567075L287.9651338093902,289.53972157576857L288.1772711184399,289.13210782279646L288.5484707629131,288.45276444550814L288.9550457896123,287.66470079141504L289.3085939415024,286.9581478799243L289.3969905617029,286.7679157273519L289.46776287171474,286.55048147738876L289.50326452864323,286.3058301767447L289.5213508358983,285.7892955445685L289.53992252620475,284.7018375533647L289.54036211390684,284.18528785453805L289.55860885093597,283.47844539753316L288.6234138125365,283.4776373826922L288.0234773856199,283.4771069812895L287.599992855119,283.4767269086417L287.45883134609767,283.47659917469497L287.282379460637,283.4764387738669L287.0177016341271,283.47619664469084L286.1001774329697,283.4481562430879L285.21791867734345,283.447314717096L284.6532464767579,283.47395227334727L284.600310915497,283.47390035162226L284.51208498024675,283.47381365243524L284.42388581773906,283.4465399253871L284.31801477128033,283.4464353730424L284.2298158099328,283.4191611979394L284.1592351628371,283.41909117045634L284.03577312752884,283.3645946607078L283.98286480374077,283.337355059512L283.8593761094534,283.3100448035703L283.75355993905725,283.25556503920046L283.6653618194063,283.22828956083595L282.97753756161717,282.9013491817147L282.8011721122176,282.8196076141075L282.3778924621188,282.6288618937955L282.0427836459442,282.4925777343426L281.4960565777197,282.24731889027566L281.37260211461717,282.1928137721286L281.1785988001818,282.1110458977979L280.96698102479667,282.0020712216516L280.75536445480725,281.8930953728716L280.66717161052657,281.86581297166333L280.490845437442,281.75687391293053L280.31452026870716,281.64793403997726L280.1558403986051,281.5390127291077L279.45058389303085,281.0760553416418L279.04507601801913,280.8037319101516L278.9921747883855,280.7764853953185M271.3064211316313,275.49278750085466L268.7868696485706,273.2056566936387M267.9362046495146,338.39853712201227L267.90094048696585,338.34411353231405M267.8833468770863,338.2897149459533L267.86575331739607,338.23531635140125M267.8661377817618,337.96344855714267M267.8664838012323,337.7187675406247L267.84889053042076,337.6643689374024L267.8489674489588,337.6099953779094M267.8491212862511,337.50124825868016M267.7282831936343,335.4892509690794L267.7283602904274,335.434877406634M267.7468001487917,334.8911668773689L267.74687722132705,334.8367933140388M267.71173230545406,334.7008091984842L267.57038191590306,334.70060804463355L267.4289927654184,334.7275931502233M267.2876422774744,334.7273909521077L267.0755775349133,334.7542734572645L266.84584365813686,334.7811292801117L266.77516831571614,334.7810271694185L266.70445369815155,334.80811170908964L266.59844061014627,334.80795810245763L266.2626137360345,334.8890300855509L266.13889186338787,334.91603620175874L266.05050763636683,334.94309369141206M266.01516981611235,334.94304191803565L265.80306306757774,334.99710415262365L265.62629363972053,335.05121737681793L265.48486168198053,335.1053820802339L265.4318547275473,335.1053036245586L265.2727532854524,335.1594413759875M264.8131559609128,335.2946903369725L264.72476992332236,335.32174476519094M263.57984786963533,332.9819426729942L263.5800138452882,332.87319555445106M263.6333908215746,332.62859555781995L263.6335981045482,332.4926616581183M261.95515900758994,332.49006034710965M261.0541022870779,332.4886334850583L260.9304278384456,332.48843598536416L260.68303539486476,332.5152265642968M311.90561108025804,319.0241259855622L302.551025281355,307.1670339366507L299.30474452625094,303.0600250987538L298.8106909713684,302.6247380149882L298.722454076996,302.5703104948243L298.4225043113605,302.2982575779115L296.81576896931387,302.6506574012246L296.37463740551414,302.3241211016644L295.8453006480151,301.9159587272894L294.55736347728754,300.8275791113976L294.01117175490936,299.3862794336909" stroke="rgb(255,255,255)" transform="translate(0, 1) translate(0,0) scale(1)" style="stroke-width: 0.45; stroke-linejoin: round; stroke-linecap: round; fill: none; mix-blend-mode: normal;"/><g id="labels-svg"><g id="Lakewood-svg"><text transform="translate(333.3883972167969, 124.35595703125)" fill="undefined" style="stroke: rgb(255, 255, 255); stroke-width: 4; stroke-linejoin: round; stroke-linecap: butt; opacity: 0.5; font-family: BentonSans; font-weight: 400; font-size: 10px;"><tspan x="3.828125" dy="10">Lakewood</tspan></text><text transform="translate(333.3883972167969, 124.35595703125)" fill="rgb(14, 60, 61)" style="opacity: 1; font-family: BentonSans; font-weight: 400; font-size: 10px;"><tspan x="3.828125" dy="10">Lakewood</tspan></text></g><g id="Homecroft-svg"><text transform="translate(271.5358581542969, 112.66117095947266)" fill="undefined" style="stroke: rgb(255, 255, 255); stroke-width: 4; stroke-linejoin: round; stroke-linecap: butt; opacity: 0.5; font-family: BentonSans; font-weight: 400; font-size: 10px;"><tspan x="4.8203125" dy="10">Homecroft</tspan></text><text transform="translate(271.5358581542969, 112.66117095947266)" fill="rgb(14, 60, 61)" style="opacity: 1; font-family: BentonSans; font-weight: 400; font-size: 10px;"><tspan x="4.8203125" dy="10">Homecroft</tspan></text></g><g id="Stowe-svg"><text transform="translate(227.32870483398438, 359.4445495605469)" fill="undefined" style="stroke: rgb(255, 255, 255); stroke-width: 4; stroke-linejoin: round; stroke-linecap: butt; opacity: 0.5; font-family: BentonSans; font-weight: 400; font-size: 10px;"><tspan x="3.421875" dy="10">Stowe</tspan></text><text transform="translate(227.32870483398438, 359.4445495605469)" fill="rgb(14, 60, 61)" style="opacity: 1; font-family: BentonSans; font-weight: 400; font-size: 10px;"><tspan x="3.421875" dy="10">Stowe</tspan></text></g><g id="Myers-Wilkins-svg"><text transform="translate(284.7819519042969, 304.8161315917969)" fill="undefined" style="stroke: rgb(255, 255, 255); stroke-width: 4; stroke-linejoin: round; stroke-linecap: butt; opacity: 0.5; font-family: BentonSans; font-weight: 400; font-size: 10px;"><tspan x="3.625" dy="10">Myers-Wilkins</tspan></text><text transform="translate(284.7819519042969, 304.8161315917969)" fill="rgb(14, 60, 61)" style="opacity: 1; font-family: BentonSans; font-weight: 400; font-size: 10px;"><tspan x="3.625" dy="10">Myers-Wilkins</tspan></text></g><g id="Lowell-svg"><text transform="translate(275.9924621582031, 265.2042236328125)" fill="undefined" style="stroke: rgb(255, 255, 255); stroke-width: 4; stroke-linejoin: round; stroke-linecap: butt; opacity: 0.5; font-family: BentonSans; font-weight: 400; font-size: 10px;"><tspan x="1.8046875" dy="10">Lowell</tspan></text><text transform="translate(275.9924621582031, 265.2042236328125)" fill="rgb(14, 60, 61)" style="opacity: 1; font-family: BentonSans; font-weight: 400; font-size: 10px;"><tspan x="1.8046875" dy="10">Lowell</tspan></text></g><g id="Lester-svg Park-svg"><text transform="translate(322.4011535644531, 247.458984375)" fill="undefined" style="stroke: rgb(255, 255, 255); stroke-width: 4; stroke-linejoin: round; stroke-linecap: butt; opacity: 0.5; font-family: BentonSans; font-weight: 400; font-size: 10px;"><tspan x="4.8046875" dy="10">Lester Park</tspan></text><text transform="translate(322.4011535644531, 247.458984375)" fill="rgb(14, 60, 61)" style="opacity: 1; font-family: BentonSans; font-weight: 400; font-size: 10px;"><tspan x="4.8046875" dy="10">Lester Park</tspan></text></g><g id="Piedmont-svg"><text transform="translate(260.7192077636719, 295.7528991699219)" fill="undefined" style="stroke: rgb(255, 255, 255); stroke-width: 4; stroke-linejoin: round; stroke-linecap: butt; opacity: 0.5; font-family: BentonSans; font-weight: 400; font-size: 10px;"><tspan x="4.8984375" dy="10">Piedmont</tspan></text><text transform="translate(260.7192077636719, 295.7528991699219)" fill="rgb(14, 60, 61)" style="opacity: 1; font-family: BentonSans; font-weight: 400; font-size: 10px;"><tspan x="4.8984375" dy="10">Piedmont</tspan></text></g><g id="MacArthur-svg"><text transform="translate(248.23553466796875, 320.23199462890625)" fill="undefined" style="stroke: rgb(255, 255, 255); stroke-width: 4; stroke-linejoin: round; stroke-linecap: butt; opacity: 0.5; font-family: BentonSans; font-weight: 400; font-size: 10px;"><tspan x="4.234375" dy="10">MacArthur</tspan></text><text transform="translate(248.23553466796875, 320.23199462890625)" fill="rgb(14, 60, 61)" style="opacity: 1; font-family: BentonSans; font-weight: 400; font-size: 10px;"><tspan x="4.234375" dy="10">MacArthur</tspan></text></g><g id="Congdon-svg"><text transform="translate(302.2544860839844, 267.8529968261719)" fill="undefined" style="stroke: rgb(255, 255, 255); stroke-width: 4; stroke-linejoin: round; stroke-linecap: butt; opacity: 0.5; font-family: BentonSans; font-weight: 400; font-size: 10px;"><tspan x="4.1328125" dy="10">Congdon</tspan></text><text transform="translate(302.2544860839844, 267.8529968261719)" fill="rgb(14, 60, 61)" style="opacity: 1; font-family: BentonSans; font-weight: 400; font-size: 10px;"><tspan x="4.1328125" dy="10">Congdon</tspan></text></g></g></g></g><g id="footer-svg"><g id="footer-inner-svg"><g id="footer-main-svg"/></g></g></g></svg>