<svg xmlns:xlink="http://www.w3.org/1999/xlink" xmlns="http://www.w3.org/2000/svg" id="exportSvg" width="600" height="400"><defs/><g><g id="header-svg"/><g id="chart-svg"><g id="map-svg"><g id="regions-svg"><path d="M300.1086631543674,304.0825827856296L299.3095506594693,303.0701613121898L298.95093621876293,302.75515769468814L298.81402921708985,302.63489983399506L298.7260757236613,302.5609421124105L298.4223223288866,302.2980883438731L296.8188282195431,302.6570791403288L296.37195918527055,302.31990238836465L295.85179808656153,301.9112847100571L294.55847822618875,300.8175513315732L294.0038770879616,299.3745234979216L287.57951995724255,293.3877887118142L287.8405029846625,293.4256474938379L287.9865668224994,293.47287255875756L288.3910127598288,293.6789521094212L288.4920799592223,293.71525326940673L288.7322328980684,293.8015110264289L288.9745038266907,293.83387647572135L292.0515680600938,293.8003998076581L293.47973208913817,293.4911481284173L293.59599808484666,293.4912661056014L293.7358567888928,293.5120645559364L293.8541452536283,293.54675740146L293.9486396497841,293.5860472033895L294.02879063160157,293.6369755272066L294.68815043153444,291.88145974985326L295.03477481113526,291.47721546741366L296.25095176808406,290.4173544266564L296.5988106496741,290.05302931629853L298.24944017470636,290.01025177389L299.1025740927997,289.17816100278105L299.7041841869561,288.59139029211025L299.7289632951536,288.5119450588561L299.75701680894474,288.45996473636427L300.2601309953701,287.844241362537L300.8650695023448,287.1665844071647L301.0347916444756,286.97447883937934L301.3700808771582,286.61247128267706L301.5580875304643,286.5604476729709L301.21712591701345,286.2684546987783L300.7414340144226,285.8267919259583L300.41318257606514,285.5268875292403L299.8911248884581,285.0375991933851L299.58747507636343,280.9428962600714L299.55542260178606,280.4594736181025L299.1067498601122,280.0798946796519L298.5181753523104,279.6018189846158L298.4764385037708,279.56174499008085L298.43567647871424,279.52067268446297L298.3684120374003,279.448318578574L298.30426033918803,279.3733564672498L298.24323338014386,279.2958126552368L298.18543517288805,279.2158182415846L298.1309633271091,279.1335087747378L297.886200379645,278.59452761342976L297.85715520706714,278.5426887350003L297.8254105232064,278.49246831656035L297.7946774642034,278.44129265737433L297.76215919630016,278.3912393585826L297.7143180623308,278.32397433405174L297.6632546720623,278.25913689842804L297.609092706902,278.1968812918808L297.5519603366718,278.13735729581316L297.4919947024679,278.08070705398876L297.4293399988539,278.02706570302604L297.3641449183219,277.9765620007776L297.2965664863513,277.9293170638786L297.2398349774943,277.8932983509114L296.32725124027604,277.41108874119357L295.7345849318414,277.09792332172765L295.36736739932905,276.9081784852694L295.27709759509634,276.8522366120688L295.1893887768823,276.79233461419244L295.104414576998,276.7285904894546L295.0223409358962,276.66112923949646L294.94333056604864,276.5900835316589L294.86753784710186,276.51559367423516L294.79511202858134,276.4378050711023L294.7261959353102,276.35687205693046L294.66092471602536,276.2729527694024L294.5994277388298,276.18621299945556L294.5418241403582,276.0968229686937L294.48822919708755,276.0049592812626L294.4387473253706,275.91080104868473L294.39347588461186,275.8145350291187L294.352503929479,275.71634986078675L294.3272672021017,275.64580373092815L293.7359494387514,273.9928425659201L293.64040021536937,273.7257454245249L293.4540460147915,273.20481298405423L293.3505400103983,272.91733936325227L293.1098401086713,272.2488287554893L293.0248169363474,272.01268702261524L292.65103259986995,270.9639708218573L292.4192656203828,270.31370787248966L292.24858394520555,269.8365730433678L292.22730827424226,269.7581560962622L292.20881572536894,269.6790326609904L292.19313134469587,269.59930080163554L292.18276342617656,269.53611507128755L292.16974444675697,269.43352419572363L292.161351684951,269.3304490485363L292.15760071262775,269.2270983913222L292.15836711583097,268.93424768480094L292.1627818012789,268.59433026146235L292.16439036333406,268.1376515186743L292.80487958806236,268.1057926283493L293.66485996798804,268.1097551672249L294.09849270618014,268.1117520562605L294.7428798202744,268.1137637311001L295.98498982976446,268.10515304330045L296.6447486747067,268.09874659733265L297.31641122111927,268.09283189831916L298.93640826405897,268.07769885721814L299.8882181198204,268.0688082810083L301.0292676860018,268.06516878809833L305.0291329379354,268.06122524309995L305.74037895024725,268.0525490341636L306.33984638495457,268.0451575842973L306.4143685256577,268.04423899283796L306.5355076187417,268.0306762256344L306.64659316289715,268.01268276356114L306.7567399552804,267.9895995086701L306.8657156994154,267.9614730023782L306.9732917467995,267.9283651997174L307.0792412802548,267.8903451220366L307.1833418217729,267.84749273019355L307.2853746246976,267.79989635466904L307.38512525114544,267.74765782654754L307.48238236376693,267.6908866989306L307.5769434478421,267.62970223674483L307.6686090740001,267.5642327073633L307.7571867053539,267.494617347915L307.8424888584331,267.4209999386337L308.3819918771878,266.9091989029697L308.822067178555,266.47854926725563L308.9033346750027,266.4098182623161L309.0046116785254,266.33029342670943L309.10895739060373,266.2548712916248L309.21621081736373,266.1836690547557L309.32620205097055,266.1168018861928L309.4169576751318,266.06846710309446L309.5255933596293,266.01614835501493L309.63635853060566,265.9685339841873L309.749051075491,265.92570931669144L309.863464451432,265.887756423208L309.97938973704936,265.85474261656L310.0966149180629,265.8267268467754L310.18312736593305,265.8110457738128L310.18341140848514,265.87734584754804L310.18363382522443,265.929027357603L310.30738272368603,265.9154010002724L310.40939399256183,265.9057043115631L310.5116961437061,265.8998547495514L310.6141450531726,265.8978605548057L311.238301694837,265.89761936682913L311.41996303630856,265.8975491327977L311.5679932423741,265.8974918813191L311.6894200006838,265.89744502709124L311.86405300618435,265.8973767329706L312.01208127214204,265.8973201014559L312.16009231268134,265.89726198450273L312.30658518792615,265.8972049624539L312.44955654503696,265.8971501025318L312.59072117750077,265.89709609588726L312.7360853218225,265.89703905428155L312.73805018551684,266.1611179725389L312.7404933492033,266.48983188595025L312.7426096272112,266.77435890059814L312.7452745807691,267.13282139506646L312.74768280459983,267.4566299348079L312.7500906473339,267.78052687184777L312.75057062988736,267.84491276503365L312.75208836959706,268.04916741014523L312.8164172739771,268.0495579054272L312.8651502262421,268.04985385841053L312.9138844621227,268.0501491863532L312.9626174055229,268.05044577987104L313.0113510017848,268.0507411003764L313.0600839514962,268.0510370536435L313.1088188155517,268.0513330298506L315.3116681824036,268.0803144776L315.31093764533426,268.14470957947526L315.30846493107805,268.3623506947507L315.3053404376969,268.6374789513887L315.3038794371562,268.76626469044913L315.3011073535938,269.0101738329697L315.29798481562136,269.28530279436933L315.297253038017,269.34969661840887L315.2965219302309,269.4140878896366L315.36479017739435,269.4136934649224L315.4134144088533,269.41341108300674L315.462036694356,269.41313123969735L315.5106615552492,269.412849505904L315.5592857620044,269.412569045237L315.6079080531338,269.41228856190895L315.6565310047146,269.4120061652113L315.7973183312485,269.4111924762883L315.6826105197723,269.569214799851L315.8940078197132,269.74483522868405L316.1339868674573,270.0570287961283L316.0894651515714,270.12762166949625L316.04626258553344,270.19903460024506L316.099377201936,270.17034652932693L316.1266922657516,270.12626405347453L316.15456874456356,270.0825373108565L316.2185293581972,270.0565403812364L316.3606855311439,270.0557180293882L316.44886532122007,270.0552070577873L316.54603711483963,270.0618102258333L316.5929350407334,269.98486878023004L317.5300811435767,268.6798040999723L317.83321006697815,268.07706397078766L318.26521208884486,267.1970373991868L318.47079921951286,266.78644344336954L319.1752630817761,265.4783019998157L319.36388577243275,265.1028464245385L319.4201821797977,264.9500897823876L319.45278778516115,264.81783923129495L319.4765713514364,264.6599297302567L319.5277700839872,264.31999910677206L319.53467785714645,263.3439687026106L319.4444274734661,262.8895354643813L319.1855690093805,261.5162264775955L319.05790673258383,260.7954815916861L319.01030316341894,260.6582724129911L318.9397530999095,260.5034159024637L318.82599418011273,260.32481479773367L318.69176634206906,260.1575841013813L318.58034011214465,260.02839652472517L317.9269700241652,259.4248420337244L317.70831169490305,259.05896144246657L317.47076462252164,258.3251928214196L317.4415969872252,258.0938230754776L317.4310438061903,257.8017162500852L317.5151023483544,257.80128368513454L317.6841646017466,257.80042564213414L317.76878755630173,257.79997818440955L317.548627264952,257.63086208261245L321.3658482005368,252.6301216750807L321.4004663947633,252.58477027185995L319.44048450265586,245.1385509829637L316.4361734377253,241.7088131665576L318.4288493227997,239.78372625776768L321.116895327259,237.18685907641418L330.43895086898107,231.95858800742496L330.5276636451425,231.90890338038434L328.5235875918126,229.7631417779753L330.43814563858564,226.7044919022112L324.28438800323727,221.44568956272485L322.30157084719434,216.51016981467754L314.00124920396166,195.8492751471885L311.92156222782336,190.67253762063214L311.068005207334,188.54786596482603L310.3680703458818,186.80558778595304L309.82374966035974,185.45066302106923L316.5705511922907,180.0083865949503L317.0779209617116,164.89278157854253L317.1544201796718,162.61387216489092L309.90403987428283,154.54365527662821L304.7714315989232,154.5389711032416L304.76951030618307,157.1213098641716L303.80777954889504,157.12238290207947L303.48720343500327,157.12273996922346L302.2048954902374,157.12417085054454L302.2043282295533,156.80224563980693L302.202620934018,155.83227731507966L301.56065821162974,155.83284074471106L301.55772964180113,154.60527275943258L301.5575760194248,154.54088855041465L299.62981049950866,154.54203909126616L298.6729425999779,154.54805890673842L298.36538047361427,154.5499951456913L298.3674190887698,155.84168961029042L298.1114443285959,155.8431352690374L297.06311731007753,155.84905353352292L297.065155466617,157.13990148883303L295.77759368950825,157.14633849848553L294.4900315049864,157.1527743756048L293.20662915269725,157.15907188469743L292.564928466147,157.16222006167825L291.9232270144277,157.16537018871463L289.90537781570515,157.1752721099539L289.8018708866569,156.80498768993698L289.60262369713695,156.04983483800737L289.45033767804574,155.12371986169035L289.37713050833713,155.00306177789642L289.3564202327738,157.1779659417091L289.3555700414238,158.44192557172022L289.29126508127183,158.45519913074443L286.79024566324324,158.47093953266878L286.62766944979853,158.471973301247L286.50295567034783,158.472784503283L286.29943270564775,158.1082730422775L286.25584632692346,158.1007660483879L285.78727664564235,157.78966170883768L285.7163955349088,157.63308805004095L285.69744544195447,157.58516072534076L285.6784439285559,157.5308209529365L285.6612969544743,157.47696830468786L285.6196494658965,157.34003361649783L285.5950696970763,157.26678291669606L285.34108750586233,156.89952695333338L285.30013380254735,156.85569927514504L285.26228365291047,156.80914849832683L285.2007327250828,156.7026253448889L285.16094399821986,156.52248867531085L285.15799992561364,156.45253753067811L285.0873684454848,156.1914543876132L285.0436572438026,156.20947281428516L284.8540504830742,156.47613032123994L284.84344096150676,156.52801790188258L284.8432372890013,156.56956749739635L284.7751929915154,156.71985497058546L284.70219861807686,156.82337330725184L284.6608043463425,156.81797579474448L284.4429050141402,156.71483963235062L284.3222839703133,156.59793770829242L284.2648873333178,156.5731023938494L284.2167625213781,156.52131084887873L284.2155284766278,157.2082986387811L284.1717670391883,157.2085316436751L284.06382390946607,157.20910558154776L283.9568518534136,157.20967451815588L283.86539931506144,157.21016038941508L283.6822975532509,157.21113414305785L283.41178528342687,157.21257157720774L283.25064051071104,157.21342988728998L283.0904853580402,157.21428082435543L282.93033083741557,157.21513177138124L282.76968149725207,157.21598640834614L282.4483815288544,157.21769503353732L282.2877315389887,157.21854902943673L281.9174334915206,157.2205175844965L281.64513406197636,157.22196570702513L281.3238346510982,157.2236737318378L281.002533938378,157.22538175057332L280.8218070942063,157.22634337332744L280.6918749240242,157.22703390571266L280.3279714801039,157.22896820923899L280.22417372522267,157.2295198480546L280.08841245524025,157.23024185152613L279.8985697465924,157.23125135680908L279.259077340333,157.23465087999557L279.138921739351,157.2352905787283L279.11023551636947,155.07256492195557L278.5072141963135,155.06991284381238L278.2687278474995,155.0687534765675L278.27069738294733,154.6615700606762L277.7810867260618,154.65919042240924L277.78498485459426,155.9445091724596L277.7869349129112,156.58742103158588L277.7888857194645,157.23033299864193L276.50303427846984,157.22503342739304L275.21718306528265,157.21973528403657L273.9313314583665,157.21443728029678L271.3623909935496,157.20387602962415L270.0600837655965,157.19852189843573L268.7668392357062,157.19320771828646L268.7794486846323,154.66335804776514L268.7528123746207,135.90958087043893L268.6006955750078,124.61760359992527L268.5236220607368,118.89531205135933L268.59970457306525,117.6613038860017L268.50692697690283,86.1710120082373L265.24603280280644,82.29068649980343L265.48309709949996,62.397553726174465L265.5751043180708,2.842170943040401e-14L304.33762566509864,0.6972826400239001L337.23989179366725,0.21935282114438337L348.6069210503809,0.1741562777757224L392.43785468060855,0.00044936002288409327L392.39987004893084,33.43116814099264L392.5925099250785,39.38141615432758L391.99150404575204,110.45851585994768L392.0051988630303,113.1364535277182L392.1648579132536,144.3276897046972L392.18148369464564,164.7852658223688L392.1855780969249,167.39700253440137L392.19758675555084,175.05000329993493L392.2064170900884,177.59094657936333L392.23358034708735,185.35462704709988L392.24181704235207,186.051685634888L392.29409124122367,190.47529868931943L392.3248655799493,193.08639344538986L392.33922457745615,194.29423464152444L392.3734390143647,200.80331641046982L392.32006813648866,203.0452733183906L392.39120853357787,205.920274459969L392.4304965221809,216.12712079379372L392.4758746316767,219.74746998275182L392.47823737765077,219.9337145042254L392.48650528009983,220.67994973169596L393.0550787640956,221.31117632270616L392.2636930165124,221.96840946724154L392.5063880641062,222.30041031668873L392.5299281491989,224.18667513434298L392.55162660214467,225.95765466623152L392.5504364055014,226.47746772639658L392.5419040636571,230.2049093073345L392.5145111987068,233.00603992038856L372.0409384986425,250.19519980689768L371.9996486662785,250.22986604483688L371.7631615867722,250.42841657274667L362.58639994650053,258.1332388426885L356.2643015660671,263.0523289642103L350.90777611065175,267.2201402413201L346.0668980999224,270.9867766554818L338.6475754593423,276.75969214212245L336.8512078532295,278.15756707571364L334.308524121323,280.1359506573695L330.06200822429315,283.4401311959598L325.1281159467556,287.2791627480023L321.0752033776067,290.43282538135304L319.2538848632955,291.85013728292915L320.3955988800353,294.0675019954434L348.5292278274065,348.70584119670195L340.74517788098535,353.4266611113799L311.910296380992,319.03401921326497L302.5531174380903,307.1795376698781Z" stroke="null" id="EAST HS" transform="translate(0, 1) translate(0,0) scale(1)" style="fill: rgb(137, 176, 125); mix-blend-mode: normal;"/><path d="M316.54603711483963,270.0618102258333L316.45715061765264,270.0597631206824L316.3606855311439,270.05571802940176L316.2185293581972,270.0565403812364L316.171339771328,270.05681235237125L316.1266922657578,270.12626405347453L316.09937720192363,270.17034652931113L316.0726268586057,270.21477517136515L316.0894651515714,270.12762166949625L316.1339868674573,270.0570287961283L316.0866191572005,270.0573012034615L315.7026063815283,269.5944499066296L315.79731833124845,269.4111924763223L315.6565310047146,269.4120061652113L315.60790805312763,269.41228856190895L315.5592857619982,269.412569045237L315.510661555243,269.412849505904L315.4620366943374,269.41313123969735L315.4134144088595,269.41341108300674L315.36479017739435,269.4136934649224L315.31616724474355,269.41397394109845L315.297253038017,269.3496966184202L315.29798481562136,269.28530279436933L315.3007543126086,269.04139488642767L315.3038794371562,268.76626469044913L315.3053404376907,268.6374789513887L315.308110608015,268.39357172821866L315.31093764534046,268.14470957947526L315.3116681824036,268.0803144776L313.1466360287413,268.06717165277144L313.0600839514962,268.0510370536435L313.0113510017786,268.05074110036287L312.9626174055105,268.05044577987104L312.9138844621165,268.05014918636454L312.8651502262421,268.04985385841053L312.8164172739771,268.0495579054385L312.7522987345739,268.0491686871343L312.75057062988736,267.8449127650155L312.7500906473277,267.78052687185453L312.74768280459983,267.45662993480113L312.7452745807691,267.13282139506646L312.7428836279262,266.81132694533426L312.7404933492095,266.48983188595025L312.73805018551064,266.161117972557L312.7360853218225,265.8970390542906L312.5907211774946,265.89709609588726L312.44955654503696,265.8971501025476L312.30658518792615,265.897204962472L312.16009231268134,265.89726198450273L312.01208127212965,265.8973201014717L311.86405300618435,265.8973767329706L311.7160221735033,265.8974339751436L311.5679932423679,265.8974918813191L311.41996303630856,265.8975491327977L311.23830169483085,265.89761936682913L310.6141450531788,265.8978605548057L310.5116961437061,265.8998547495514L310.4093939925742,265.9057043115631L310.30738272368603,265.9154010002905L310.18363382521824,265.9290273575916L310.1834183110774,265.8790244885544L310.1831312342767,265.81194276302654L310.1012277691831,265.8257315992727L309.97938973704936,265.8547426165668L309.863464451432,265.8877564232193L309.74905107548483,265.92570931669144L309.63635853060566,265.96853398419404L309.5255933596231,266.01614835501493L309.4169576751256,266.06846710309446L309.33016771899577,266.1145007687315L309.21621081734514,266.1836690547557L309.10895739060373,266.2548712916248L309.02414158065017,266.316175815519L308.9033346750027,266.409818262341L308.822067178555,266.47854926723977L308.3819918771754,266.9091989029697L307.85630979184936,267.40841268841376L307.7571867053539,267.494617347915L307.6686090740001,267.5642327073633L307.5769434478359,267.62970223674483L307.48238236376693,267.6908866989555L307.38512525114544,267.74765782654754L307.2853746246976,267.79989635466904L307.1833418217729,267.84749273019355L307.07924128026093,267.89034512205467L306.9732917467995,267.9283651997174L306.8657156994154,267.9614730023963L306.7567399552804,267.98959950868823L306.64659316289715,268.01268276356114L306.5355076187417,268.0306762256525L306.4237167894708,268.0435423338913L306.3398463849484,268.04515758432L305.74037895025344,268.0525490341636L305.03726053731225,268.06121723051564L301.0292676860018,268.06516878809833L299.8882181198204,268.0688082810083L298.9364082640528,268.07769885724076L297.31641122111927,268.09283189831916L296.6447486747067,268.0987465973508L295.98498982976446,268.10515304330045L294.74287982027437,268.11376373112955L294.09849270618014,268.1117520562605L293.66485996798804,268.10975516724295L292.80487958806236,268.1057926283697L292.1431033225854,268.10899254373396L292.1627818012789,268.59433026146235L292.1615942874979,268.931206235193L292.15760071262775,269.2270983913222L292.16135168495714,269.3304490485499L292.16974444675697,269.43352419572363L292.18276342617656,269.53611507128755L292.19313134469587,269.59930080164906L292.20881572536894,269.6790326609904L292.22730827424226,269.7581560962622L292.24858394520555,269.8365730433678L292.4192656203828,270.31370787248966L292.65103259986995,270.9639708218663L293.0248169363412,272.01268702261524L293.1098401086713,272.2488287554983L293.3505400103983,272.91733936325676L293.4540460147915,273.20481298405423L293.64040021536937,273.7257454245498L293.7359494387514,273.9928425659201L294.3272672021017,275.64580373092815L294.352503929479,275.7163498607845L294.393475884618,275.81453502913683L294.4387473253707,275.9108010486666L294.48822919708755,276.0049592812784L294.5418241403458,276.096822968705L294.5994277388298,276.18621299945556L294.66092471601917,276.2729527694024L294.72619593531016,276.3568720569622L294.79511202858754,276.4378050711023L294.86753784709566,276.51559367423516L294.9433305660486,276.59008353167474L295.0223409358776,276.66112923949646L295.1044145769918,276.7285904894795L295.1893887768823,276.79233461419244L295.27709759509014,276.85223661207783L295.36736739931047,276.90817848527615L295.73458493183523,277.09792332172765L296.32725124027604,277.4110887412049L297.2398349774943,277.8932983509114L297.2965664863451,277.92931706389896L297.36414491830953,277.9765620008025L297.4293399988415,278.0270657030419L297.4919947024679,278.08070705400684L297.5519603366718,278.13735729581316L297.6090927068896,278.19688129189666L297.6632546720623,278.25913689842804L297.714318062337,278.32397433406754L297.76215919629396,278.3912393585939L297.7946774642034,278.4412926573834L297.8254105232064,278.49246831656035L297.85715520706714,278.5426887350003L297.88620037962636,278.5945276134614L298.1309633271091,279.1335087747378L298.18543517288805,279.21581824160495L298.24323338014386,279.29581265525263L298.30426033918803,279.3733564672747L298.3684120374003,279.448318578574L298.43558060847374,279.52057299235656L298.4764385037708,279.56174499008534L298.5181753523042,279.6018189846317L299.106749860106,280.0798946796519L299.5554924613432,280.4556542832797L299.5874750763696,280.9428962600714L299.85683862961054,285.00546061665955L300.41032664076187,285.5242782257985L300.7414340144226,285.8267919259583L301.21712591701345,286.2684546987783L301.5333233104794,286.5392400721024L301.3700808771644,286.61247128265893L301.0347916444818,286.97447883937934L300.86506950234485,287.16658440714656L300.2601309953701,287.844241362537L299.75701680894474,288.4599647363575L299.7289632951536,288.5119450588561L299.7041841869561,288.591390292117L299.1025740927997,289.17816100278105L298.24944017470636,290.0102517738764L296.5988106496741,290.05302931629853L296.2674587437109,290.40298202845133L295.0379961017353,291.47345869715923L294.68815043153444,291.88145974984195L294.02879063161396,293.6369755272066L293.9486396497841,293.5860472033895L293.8541452536283,293.54675740147815L293.7358567888928,293.5120645559364L293.59599808484666,293.4912661056014L293.47973208914436,293.4911481284173L292.0515680600938,293.80039980765355L288.9745038266907,293.83387647570555L288.7322328980684,293.80151102641076L288.4920799592223,293.71525326938865L287.9865668225056,293.47287255873493L287.84050298466246,293.42564749384917L287.5830492896088,293.3883006846588L294.003877087974,299.3745234979216L294.55847822618875,300.81755133156645L295.85179808656153,301.91128471005027L296.3719591852706,302.3199023883466L296.8188282195493,302.6570791403288L298.4223223288866,302.29808834385494L298.7260757236737,302.5609421124105L298.81402921708985,302.63489983399506L298.95093621876293,302.75515769468814L299.3095506594693,303.07016131217165L300.1086631543674,304.0825827856296L302.5531174380903,307.1795376698668L311.9102963809982,319.0340192132378L310.3286522276426,319.930773264549L298.43006797973993,320.2084385623293L296.1953094393754,320.92153207709674L293.35954848177414,322.68645409591426L286.72096716194545,326.8185119612551L284.30959228787674,330.0051167314284L284.165568886298,332.54741431759817L284.0305849896217,334.9301746344621L285.05103323387937,336.99922788475857L282.6069878536695,343.6101722520991L281.4348420569792,344.1789988991669L272.3637816712423,340.7502530654348L268.1113986226229,342.8004154974691L261.72518245572667,342.4457693975388L260.40527646124576,344.07896878961105L259.7745957927803,345.32232497225436L257.66375880167124,349.4837445446178L255.06862041606996,351.34221624270054L254.09687341735446,352.03811962342684L253.8455720712089,356.1033805598709L257.1130593800709,357.67468841829077L264.62888108352206,358.3271847912446L267.8458322845347,361.89008830691625L267.3014785416635,366.72078285892167L260.44363721644834,371.19940596208824L254.34304040207667,378.44020744868214L255.54978788596065,385.7751489666231L250.2665108795154,390.5315223589924L244.84734485860287,388.60021977721397L243.4862344999827,388.4786043697535L235.56052373719086,391L228.68933476055622,384.22245755365407L224.08352475123536,389.6914393506669L221.83632224698698,389.8983601733328L220.76549709512102,388.3996603745498L219.99310574235625,385.12398423253626L217.99233140508903,384.26465934410146L215.45335677751797,384.1160388272716L214.23425513404564,383.04445221862994L213.66315968759122,378.06130930364253L211.75921733213977,377.4879487446076L211.31017465039434,380.9729940202502L208.92221967607156,379.196146814162L206.97175337403775,378.33634337946205L206.9479619867106,377.3300340809093L206.94492123590447,371.0062017429607L226.7321192092279,370.9163966868256L237.65755672704535,370.65928760541317L237.77534360908143,365.7599366240783L238.20440360406576,347.91536754898266L238.38739271551998,340.3059168155686L244.60149039987078,337.3867186566588L246.38284362315852,336.25777407269163L248.0727717900202,336.2508736869454L248.0769989876442,335.92697515710495L248.08177289540333,335.6964910463714L255.11206142277064,333.82944724358174L255.8849390434138,332.4716693354616L256.2666786582438,331.8010362694142L256.85923807941936,331.17170393535133L257.0771351918479,330.94028466945133L258.98647766213423,328.9124543971459L261.65484018765557,326.0785092847558L262.7946071079255,324.86814223335784L263.0308802280088,324.22030612856645L263.27554434988053,323.5494631462372L263.6594546442684,322.4968227361803L263.69927481901766,320.1301174446277L263.72976231078303,318.07485215452175L263.7540533662079,314.78580585817775L263.7952074769012,309.22895398444757L269.2457806207495,309.1665640308812L269.13342108010335,308.7383079631978L268.7889165512337,306.73392070230466L268.7957741545425,304.1774833921691L268.79114653617785,303.7634932121614L268.78870123676904,302.36939940933286L268.7732220562377,299.01371983153075L268.7680206402855,297.0644282149618L268.7649094182054,296.4406108188843L268.75986142000824,293.86315006508835L268.7683244338658,291.42640036494356L268.7743809781927,289.1506663217108L268.77553722642597,288.7162670556553L268.8117720936367,278.3781203211706L268.81084727992754,277.012454493146L268.8100688689408,275.80676126746374L268.8020456881351,274.57209126905093L268.7971289014788,273.3216476157503L268.7938911643025,273.21727191817115L268.7972033177445,273.1103389822317L268.7971543111812,269.97339734946365L268.8043222912025,269.3692261355984L268.7980580644513,268.08489978268835L268.78512871438505,263.6805400150497L268.7891736702494,262.92143784384496L268.7925756660515,260.3881160271932L268.81522215598756,257.7664996386174L268.8127205220722,253.14032778149547L268.80059528446094,246.9976050333264L268.79475102149746,243.99670749884967L268.7813927975532,237.13296078830302L268.7986654926949,226.82739720390708L268.8420877235135,200.9937010979879L268.83612176661757,195.87256107024152L268.8360592154896,195.81883603494413L268.842206873623,191.6829831234158L268.77439022635076,188.1565913607618L268.525100430046,175.19233213171765L268.7282293432862,164.94167238150882L268.7668392357248,157.19320771825025L270.06008376559646,157.19852189844252L271.36239099354964,157.20387602960378L273.9313314583665,157.21443728029678L275.21718306528265,157.21973528403657L276.50303427848837,157.22503342739304L277.78888571948914,157.23033299864193L277.78693491291125,156.58742103155194L277.7849848546128,155.9445091724166L277.7810867260804,154.65919042235717L278.2706973829474,154.66157006064225L278.2687278474996,155.06875347653582L278.5072141963197,155.06991284381238L279.08054777126455,155.07269832269492L279.10339185204924,157.23547925782265L279.259077340333,157.23465087999557L279.8985697466171,157.23125135680908L280.0884124552465,157.23024185147406L280.22417372522267,157.22951984806818L280.3279714801039,157.22896820923899L280.69187492404893,157.22703390571266L280.8218070942063,157.22634337332744L281.0025339383842,157.2253817505688L281.3238346510982,157.2236737318378L281.64513406197636,157.22196570702513L281.9174334915206,157.2205175844965L282.267727540004,157.21865558239983L282.44838152886064,157.2176950334966L282.7696814972706,157.21598640834614L282.9303308374094,157.21513177138124L283.0904853580402,157.21428082435543L283.2424466201804,157.21347276936365L283.41178528342687,157.21257157719643L283.6822975532695,157.21113414302616L283.836265447948,157.21031551588763L283.9568518534136,157.20967451815588L284.0638239094908,157.20910558154776L284.1649598574972,157.20856793666528L284.2155284766278,157.20829863873354L284.21676252137814,156.521310848838L284.26488733332394,156.57310239385396L284.32228397033185,156.59793770829242L284.3722303566316,156.64483393501453L284.4916714322733,156.73942057714527L284.70219861807686,156.82337330725184L284.7850391968443,156.8237807859753L284.78595477643665,156.63680598278697L284.84344096150676,156.52801790189844L284.8540504830743,156.4761303211992L284.88289060737196,156.4189724543763L285.0873684455095,156.1914543876132L285.12911937092696,156.193326847933L285.16094399821986,156.52248867531085L285.16663312611115,156.59226913749603L285.2213873546606,156.7444340420738L285.30013380254735,156.85569927514504L285.34108750586233,156.89952695334694L285.4231315248734,156.98387431351435L285.6196494658965,157.34003361649783L285.6612969544743,157.4769683046403L285.67844392857444,157.5308209529365L285.6951387609157,157.57856632093882L285.7163955349088,157.63308805002737L285.7872766456547,157.78966170883768L285.81477828998686,157.846122382763L286.29943270564775,158.10827304228653L286.34656545949775,158.1340320089429L286.62766944979853,158.471973301247L286.7843973064005,158.47097634051443L289.29126508129036,158.45519913073537L289.35557004142385,158.44192557169984L289.35642023278,157.1779659417091L289.35790981504033,154.96261766523594L289.45033767804574,155.12371986169035L289.60262369713695,156.04983483800737L289.80187088666304,156.80498768994377L289.90537781570515,157.1752721099539L291.92322701443385,157.16537018870332L292.56492846615316,157.16222006167825L293.20662915269725,157.15907188469743L294.4900315049864,157.15277437558896L295.7775936895144,157.14633849848553L297.065155466617,157.13990148883303L297.06311731008986,155.8490535335297L298.1114443285959,155.8431352690374L298.3674190887698,155.84168961029042L298.3653804736204,154.5499951456777L298.6729425999779,154.5480589067226L299.6292608872738,154.54203946811708L301.5575760194372,154.54088855041465L301.5577296418073,154.60527275941448L301.56065821162974,155.83284074471106L302.202620934018,155.83227731507966L302.2043282295533,156.80224563980693L302.2048954902374,157.12417085054454L303.48720343500327,157.1227399692212L303.80777954889504,157.12238290207947L304.76951030618307,157.1213098641716L304.7714315989294,154.5389711032416L309.9042521046091,154.53591111980953L317.1544201796718,162.61387216489092L317.0779209617116,164.89278157852667L316.5705511922907,180.0083865949503L309.82374966035974,185.45066302106923L310.3680703458941,186.80558778594397L311.92156222782336,190.67253762063214L314.00124920396166,195.84927514714778L322.3015708472005,216.51016981463908L324.28438800324966,221.445689562709L330.43814563858564,226.7044919022112L328.5235875918188,229.7631417779753L330.5276636451425,231.90890338038434L330.43895086899965,231.95858800742496L321.13495637306875,237.1694106933295L318.4288493227997,239.78372625776768L316.4361734377253,241.7088131665576L319.44048450265586,245.1385509829592L321.40046639475713,252.58477027182602L321.3658482005368,252.63012167507162L317.5486272649768,257.63086208261245L317.76878755630173,257.79997818442087L317.68416460177133,257.8004256421251L317.54554431102713,257.80112768779736L317.4539892041604,257.80159806707593L317.4415969872252,258.0938230754776L317.47076462252164,258.3251928213969L317.70831169490924,259.05896144246657L317.92697002419,259.4248420336882L318.58034011214465,260.0283965247206L318.69176634206906,260.1575841013677L318.8259941801313,260.32481479773367L318.9397530999281,260.50341590242977L319.0103031634499,260.65827241293005L319.0579067326086,260.7954815916544L319.1855690093805,261.5162264775955L319.4444274734723,262.8895354643632L319.53467785714645,263.3439687026106L319.5288274402965,264.312978861268L319.4765713514364,264.6599297302567L319.45278778516115,264.81783923127006L319.42018217982246,264.95008978236945L319.36388577243275,265.1028464245385L319.18460632954026,265.4609522326607L318.47079921953144,266.78644344336954L318.26521208884486,267.1970373991868L317.84176763205386,268.0600481523618L317.6023630904313,268.5360789920941L317.5300811435767,268.6798040999723L316.5929350407334,269.984868780221Z" stroke="null" id="DENFELD HS" transform="translate(0, 1) translate(0,0) scale(1)" style="fill: rgb(204, 235, 197); mix-blend-mode: normal;"/></g><path d="M298.95093621876293,302.75515769468814L298.81402921708985,302.63489983399506M287.57951995724255,293.3877887118142M293.59599808484666,293.4912661056014L293.7358567888928,293.5120645559364M295.03477481113526,291.47721546741366M301.21712591701345,286.2684546987783L300.7414340144226,285.8267919259583M297.85715520706714,278.5426887350003L297.8254105232064,278.49246831656035M294.3272672021017,275.64580373092815L293.7359494387514,273.9928425659201M292.4192656203828,270.31370787248966L292.24858394520555,269.8365730433678L292.22730827424226,269.7581560962622L292.20881572536894,269.6790326609904M292.18276342617656,269.53611507128755L292.16974444675697,269.43352419572363M292.1615942874979,268.931206235193L292.1627818012789,268.59433026146235M299.8882181198204,268.0688082810083L301.0292676860018,268.06516878809833L305.0291329379354,268.06122524309995M307.1833418217729,267.84749273019355L307.2853746246976,267.79989635466904L307.38512525114544,267.74765782654754M307.6686090740001,267.5642327073633L307.7571867053539,267.494617347915M309.32620205097055,266.1168018861928M310.0966149180629,265.8267268467754M311.6894200006838,265.89744502709124L311.86405300618435,265.8973767329706M312.742866278861,266.8089680476277L312.7452745807691,267.13282139506646M313.0600839514962,268.0510370536435L313.1088188155517,268.0513330298506L315.3116681824036,268.0803144776M315.30846493107805,268.3623506947507M315.3038794371562,268.76626469044913L315.3011073535938,269.0101738329697L315.29798481562136,269.28530279436933M315.6826105197723,269.569214799851M315.89341603752325,269.87691832009625M315.94463862689946,269.99373398440815M316.0866191572005,270.0573012034615L316.1339868674573,270.0570287961283L316.0894651515714,270.12762166949625M316.15456874456356,270.0825373108565M317.83321006697815,268.07706397078766L318.26521208884486,267.1970373991868M319.18460632954026,265.4609522326607L319.36388577243275,265.1028464245385M316.4361734377253,241.7088131665576L318.4288493227997,239.78372625776768L321.116895327259,237.18685907641418M309.82374966035974,185.45066302106923L316.5705511922907,180.0083865949503M304.76951030618307,157.1213098641716L303.80777954889504,157.12238290207947M302.2048954902374,157.12417085054454L302.2043282295533,156.80224563980693L302.202620934018,155.83227731507966L301.56065821162974,155.83284074471106M298.3674190887698,155.84168961029042L298.1114443285959,155.8431352690374M289.60262369713695,156.04983483800737L289.45033767804574,155.12371986169035M286.46947912850044,158.29618227963834M285.8814039051406,157.95018299940318M285.55124896472114,157.16190381269203M285.30013380254735,156.85569927514504L285.26228365291047,156.80914849832683M285.22498785822347,156.29788455468366M285.036844810023,156.21322548894844M284.9705248062593,156.29663263601682M284.8432372890013,156.56956749739635M284.5683831217538,156.7712365511485M282.267727540004,157.21865558239983L281.9174334915206,157.2205175844965L281.64513406197636,157.22196570702513L281.3238346510982,157.2236737318378M279.259077340333,157.23465087999557L279.138921739351,157.2352905787283M275.21718306528265,157.21973528403657L273.9313314583665,157.21443728029678" stroke="rgb(255,255,255)" transform="translate(0, 1) translate(0,0) scale(1)" style="stroke-width: 0.45; stroke-linejoin: round; stroke-linecap: round; fill: none; mix-blend-mode: normal;"/><g id="labels-svg"><g id="EAST-svg HS-svg"><text transform="translate(312.6985168457031, 121.21952056884766)" fill="undefined" style="stroke: rgb(255, 255, 255); stroke-width: 4; stroke-linejoin: round; stroke-linecap: butt; opacity: 0.5; font-family: BentonSans; font-weight: 400; font-size: 10px;"><tspan x="2.0234375" dy="10">EAST HS</tspan></text><text transform="translate(312.6985168457031, 121.21952056884766)" fill="rgb(26, 63, 19)" style="opacity: 1; font-family: BentonSans; font-weight: 400; font-size: 10px;"><tspan x="2.0234375" dy="10">EAST HS</tspan></text></g><g id="DENFELD-svg HS-svg"><text transform="translate(249.96963500976562, 255.40170288085938)" fill="undefined" style="stroke: rgb(255, 255, 255); stroke-width: 4; stroke-linejoin: round; stroke-linecap: butt; opacity: 0.5; font-family: BentonSans; font-weight: 400; font-size: 10px;"><tspan x="1.90625" dy="10">DENFELD HS</tspan></text><text transform="translate(249.96963500976562, 255.40170288085938)" fill="rgb(86, 114, 81)" style="opacity: 1; font-family: BentonSans; font-weight: 400; font-size: 10px;"><tspan x="1.90625" dy="10">DENFELD HS</tspan></text></g></g></g></g><g id="footer-svg"><g id="footer-inner-svg"><g id="footer-main-svg"/></g></g></g></svg>