<svg xmlns:xlink="http://www.w3.org/1999/xlink" xmlns="http://www.w3.org/2000/svg" id="exportSvg" width="600" height="400"><defs/><g><g id="header-svg"/><g id="chart-svg"><g id="map-svg"><g id="regions-svg"><path d="M331.16110772129315,262.62392556187143L331.39437153145684,262.89890268085924L333.2974304777689,265.1148359341166L333.2606216706226,265.1633819716943L332.91704541341124,265.5355845094331L332.9053468855637,267.57406886794917L333.31054418673676,267.97841261717235L332.9670672076529,268.7874329035047L333.1021861637011,269.09478421373353L335.57169014481207,275.080008503961L336.8497375835687,278.1534360685446L334.3087209732151,280.14427785895435L330.06082190628666,283.44579582242955L325.124480806478,287.2807894280497L321.0715208005008,290.4356856586727L319.2536119490202,291.85929370930444L316.4048010392257,286.32595755540217L315.70500369895854,284.9668599214104L315.6681697712636,284.9183184899622L315.44716253966106,284.65942598450204L315.2384417167429,284.3843559926341L314.8332801876283,283.8827501677542L314.56316033868416,283.64002158090267L314.5017686271069,283.59147416906063L314.0229309240442,283.15455867444444L313.470438911847,282.65290693649496L312.94251322881956,282.1836099314074L312.4760109756103,281.6657859007016L310.6226305971168,278.8502293114594L310.72086527756215,278.8340802890757L310.9910160952893,278.76944615458643L311.0769763735476,278.7371142265471L311.1383744959397,278.7209534808106L311.2120512530986,278.70479613893076L311.31029444000444,278.65628876807284L311.3594182119064,278.62394577969553L311.40854190074106,278.59160272812153L311.45767000875446,278.54308119692377L311.55593031165705,278.42985952842434L312.07150416917,278.9153509234045L312.6116529504661,279.3846630479843L313.15181498736547,279.85396753040675L313.66742829979097,280.33943737176025L314.26924880275357,279.66007200724755L314.87104793574053,278.98069715497115L315.4359815674319,278.3498416547675L315.48510425540803,278.30131494446675L315.64475554504384,278.12337967841194L315.7921269067009,277.94544171814164L315.77986718397005,277.8321907690863L315.779942065383,277.379195092293L315.79229506320786,276.9262014422576L315.79242852285387,276.11728057533315L315.79247656878147,275.82606906043554L315.7925139380029,275.59957121448485L315.8049514718474,274.62886817666276L315.8050553717882,273.99790987619315L315.81734584224864,273.9170198082594L315.829670759426,273.6258103006495L315.8174601767436,273.2213478270122L315.8052951451907,272.54185223365187L315.82993879151365,271.9917900443846L315.9036792854131,271.4902710926317L316.03879633172534,271.00494020878716L316.1984445829363,270.6328615799006L316.59137291819115,269.98578352954803L317.52449731184555,268.67545480689336L317.83145086578753,268.0768888389514L318.26117327661916,267.2032998055987L318.4698881557438,266.7826813078333L319.16965445552285,265.4884678413405L319.36607335755053,265.1002003304891L319.4151808720914,264.9545980327514L319.4520126648958,264.8251732419891L319.4765722417769,264.66339073180006L319.5256918630218,264.323647242048L319.53803106373704,263.3529428150416L319.4398736815258,262.8837618816476L319.18223175694993,261.52475564568755L319.05955800905514,260.79671708978617L319.0104767297485,260.6672857716883L318.93685275397814,260.5054955191612L318.8264124117568,260.32752356043926L318.6914261943307,260.16572751808536L318.5809835045743,260.0362901139232L317.9305978592839,259.42144453703713L317.7097338407774,259.0654944720579L317.4643765265885,258.321258021598L317.43985987590924,258.0947571204629L317.42762343017836,257.8035440185212L317.51352726646957,257.80355444247914L317.6853349391363,257.8035747104808L317.7712387755107,257.80358455452466L317.8939585418106,257.8035982821307L318.00440633152266,257.8036102996828L318.11485412127655,257.80362199770263L318.225301911071,257.80363337617206L318.32347772425766,257.8036432221161L318.42165353746856,257.80365281558676L318.5198293507152,257.803662156575L318.6180051639908,257.8036712450945L318.7161809772882,257.8036800811361L318.81435679061906,257.80368866469996L318.91253260397644,257.8036969957859L319.0107084173533,257.80370507439847L319.157973384138,257.7875382965508L319.31750901345356,257.7875502703994L319.50158858582785,257.7875632579418L319.72248407276385,257.78757767134516L319.8820197022799,257.7875872861261L320.01701138883,257.7875949009773L320.13973110389355,257.78760140934617L320.2747227905087,257.7876081129199L320.3360826480658,257.7876110021979L320.47107433471456,257.78761701146084L320.83923348024274,257.7876309742225L320.88832136631953,257.7876325676676L320.91286682076793,257.7390980735033L320.90059333784376,257.7876329561682L322.52049322587914,257.7552927646059L322.76593244862056,257.75528929152676L322.8272919477019,257.73910975428987L322.8886517274106,257.7391085408439L323.4777056124058,257.73909187377063L324.1281184193772,257.72288448953793L324.2262940252004,257.72287915537817L324.7785306749775,257.7066660240137L325.4534862595813,257.6904343310254L325.7602863151544,257.7065845945748L326.15298857045485,257.70654495348515L326.26343607965697,257.7065330765865L326.6929561135912,257.7226622734011L326.9138512250315,257.7226350756853L330.62093565894935,262.0092698611694Z" stroke="null" id="Congdon" transform="translate(0, 1) translate(0,0) scale(1)" style="fill: rgb(137, 176, 125); mix-blend-mode: normal;"/><path d="M310.3685435912298,186.8110770324354L314.0046246399267,195.85576790415948L322.29938572523827,216.51648501941543L324.2855797609084,221.45084416230134L330.44139916226976,226.70798453134108L328.5290435955793,229.76607771787826L330.5283828567642,231.91741945449724L321.13428360192853,237.17632653022721L318.42338981386666,239.78088807217182L316.43598157880865,241.70587737710892L319.44111028083944,245.13603159774806L321.40383919233483,252.59437170002943L317.4276254093164,257.78736559620535L317.43985987590924,258.0947571204629L317.4643765265885,258.321258021598L317.7097338407774,259.0654944720579L317.9305978592839,259.42144453703713L318.5809835045743,260.0362901139232L318.6914261943307,260.16572751808536L318.8264124117568,260.32752356043926L318.93685275397814,260.5054955191612L319.0104767297485,260.6672857716883L319.05955800905514,260.79671708978617L319.18223175694993,261.52475564568755L319.4398736815258,262.8837618816476L319.53803106373704,263.3529428150416L319.5256929537175,264.30746882127346L319.4520126648958,264.8251732419891L319.4151808720914,264.9545980327514L319.36607335755053,265.1002003304891L319.18193137181254,265.4561119413476L318.4698881557438,266.7826813078333L318.26117327661916,267.2032998055987L317.8437279430489,268.0607117902699L317.52449731184555,268.67545480689336L316.59137291819115,269.98578352954803L316.54225760331457,270.0666685072789L316.4563262063931,270.06665589861575L316.35812132624903,270.0504628328133L316.223083843509,270.06662070046065L316.1739801882042,270.0666131088175L316.12486641587793,270.13131913055514L316.10030692776365,270.17985053682924L316.0880386120834,270.1313133480273L316.1371524467257,270.0666073736444L316.0880487914356,270.06659967150773L315.7075739332133,269.5973636830549L315.7935336401449,269.41941536449644L315.65850087363543,269.41939281665924L315.60939804947327,269.419384499069L315.5602952253241,269.41937611834203L315.5111924011944,269.4193676744873L315.4620895770717,269.4193591674958L315.4129867529562,269.41935059736755L315.3638839288666,269.4193419641116L315.3147811047843,269.41933326771436L315.3025169078631,269.35461740664226L315.30252841697,269.2899037294674L315.30257157623527,269.0472274394406L315.3026204902872,268.77219430958087L315.3026435087448,268.64276695391345L315.3026866684909,268.4000906613127L315.31500800145164,268.14123813206095L315.3150194900233,268.07652445358633L313.14229584275074,268.07607644351594L313.0563727473404,268.0598777650558L313.00727166915516,268.05986610168736L312.9581705909759,268.05985437519075L312.90906951282125,268.05984258556146L312.85996843469127,268.05983073279936L312.8108673565737,268.05981881690906L312.7494949666284,268.0436254138136L312.74954245885533,267.84948438004835L312.74955828963294,267.78477070199006L312.7496374437855,267.4612023106919L312.749716598379,267.1376339176962L312.73752088383327,266.8140625145163L312.73760014318987,266.49049411816463L312.737679402988,266.1669257201194L312.73774677416355,265.8918925804753L312.5904518920192,265.89185617152077L312.4554315835355,265.8918222975204L312.30813670171756,265.891784799584L312.16084182008325,265.8917467334821L312.01354693862277,265.89170809921023L311.8662520573513,265.89166889677745L311.71895717625904,265.89162912618383L311.5716578388997,265.9077672073275L311.42436289586294,265.90772630038856L311.24024421733475,265.9076743677289L310.61424071267464,265.907491156271L310.5160440848261,265.90746148605587L310.4055728786173,265.90742780523203L310.30737125951265,265.9235760182048L310.1846254231495,265.92353790457975L310.1846405533433,265.87500264524016L310.1846607269547,265.81028896607216L310.0987338163307,265.826440471621L309.97597802846497,265.85875852685683L309.8654966061838,265.8910801231216L309.75501499705683,265.9234013997193L309.6322533299863,265.9718967697005L309.5217659661519,266.0203957911252L309.4112783219767,266.06889449285353L309.3253396891592,266.1174010973673L309.2148460617278,266.18207765032184L309.10434656004145,266.2629323030858L309.0184071017,266.3114382167487L308.9079012272576,266.4084707204649L308.82195557270796,266.4731546114317L308.37990742680574,266.90981569012246L307.8518997837878,267.4111533562989L307.7536689361242,267.49200867838454L307.6677127861785,267.5728683897762L307.58176241714807,267.63754948859605L307.4835427886879,267.6860472775996L307.3853166835889,267.75072323293944L307.2870965152164,267.79922051664795L307.1888760976812,267.8477175477009L307.0783802141009,267.8962094985731L306.96789045423884,267.92852271083734L306.86967574518115,267.96084050200227L306.7591856220494,267.99315311042704L306.64870185118014,268.00928698036824L306.5382179869669,268.0254205306562L306.4277340294293,268.0415537613113L306.34180718486493,268.0415183940252L305.7403123522357,268.0574438280972L305.0406220455828,268.0571376196413L301.0266004593015,268.07131163730423L299.88500009247025,268.0706645175759L298.9397943072157,268.08628132274765L297.3194472024944,268.1014425477512L296.6443066750395,268.10099842643865L295.9814414393224,268.10055076767827L294.7416263916389,268.11586101108117L294.10331147705415,268.11539833443294L293.66140115714217,268.1150717697357L292.80213110397915,268.11442214402007L292.13926564671283,268.11390779376325L291.85694686413046,268.0975068088194L290.6294321141847,268.0803364354664L289.58603372970873,268.07946224802924L286.9100387836748,268.06091148317046L284.4181593071589,268.0585337602737L280.93189632270935,268.13582648794994L279.23790601490794,268.13396261966034L276.9546827470514,268.14750996645535L274.11908955284804,268.14405231132315L268.816253086984,268.07230735134743L268.78554189691783,263.68790735788616L268.78660241353674,262.9275221471217L268.79014509096083,260.3875119104097L268.8183446792112,257.7666437912529L268.8125254602436,253.13960121588633L268.7965402502215,247.00794885510481L268.8007394409963,243.99876406884613L268.7857819274984,237.13908233257285L268.8001729928112,226.8334317207841L268.84851725794465,200.99651510805978L268.8311546236414,195.88410015445032L268.8312450683571,195.81938647379627L268.837011126566,191.69388928728415L268.7806928627006,188.16690789869162L268.5294528721735,175.19143606128748L268.7274930378393,164.95075323461546L268.76283945942953,157.201323578328L270.06024164810333,157.20312005507336L271.35764391044813,157.20487229782586L273.9279488753124,157.2243915227769L275.213112246521,157.22599681881218L276.4982756828536,157.227558711504L277.7834391825313,157.2290772008524L277.78417406345034,156.59811860545693L277.7849277957386,155.9509815847327L277.7864352854349,154.65670754406398L278.27596966403877,154.67345299514167L278.26326481332194,155.07789953846307L278.5080440297646,155.0781807703624L279.08327519705085,155.07883546709132L279.1053034225647,157.24677222044096L279.26443719649336,157.23077325103299L279.9008991773385,157.23148442432532L280.0844939821889,157.23168759221886L280.21913017317524,157.2318360190457L280.3292870571727,157.23195710486016L280.69647667359476,157.2323584212154L280.81887321344954,157.23249140597068L281.00246802419724,157.23269014495196L281.32069903225386,157.2330325275325L281.65116969815216,157.23338526188664L281.9204591794362,157.21749212606744L282.2631693609498,157.2178524681126L282.446764102677,157.21804423887562L282.76499499097963,157.218374543209L282.936350086071,157.21855129708308L283.09546553238783,157.21871473476511L283.2423413297163,157.21886500980048L283.4136964274913,157.21903961417482L283.682968725927,157.2193124334994L283.8420841761056,157.2194727492939L283.95224102670556,157.2195833474075L284.06239787769493,157.21969362663773L284.16031507890307,157.21979138491963L284.2215133298104,157.21985235590142L284.2222058826722,156.52417995898864L284.2711153329577,156.57276394775715L284.3200409725679,156.60516944577014L284.3689506520442,156.6537533087488L284.491249384789,156.75094504915558L284.6136125001157,156.7834226845156L284.7849180387963,156.8321263985228L284.7851084372754,156.63798526228385L284.8464166366311,156.5247962323965L284.8587035694468,156.47627292970617L284.8832298665374,156.4277615965988L284.89551672138765,156.37923828204418L285.0915199018154,156.20146655082712L285.213771968131,156.34719125329156L285.16464173160716,156.52510647030624L285.164578910537,156.5898201828725L285.2256193564408,156.75166382060186L285.2989468188328,156.86498391557544L285.42121741320835,156.9945295228206L285.61670938229537,157.35064321717724L285.6655442183237,157.48011755449272L285.6777374929802,157.52866455733877L285.6899307988968,157.57721155626479L285.71434844613424,157.64194868574128L285.78764820653646,157.7876246949875L285.81206615589053,157.85236176170326L286.17903267584535,158.09538659880238L286.3014167745952,158.11168037719222L286.350346123246,158.1440832639794L286.6315482323799,158.48409371363766L286.79068398640084,158.46806327057794L289.28766860596585,158.4541199364703L289.3611228110723,158.438004764858L289.36220857361235,157.17608726955032L289.36411567501193,154.95964243970906L289.37631285201223,155.0081882563676L289.4496492970311,155.1215003503836L289.6079546239291,156.05998546506524L289.803151344939,156.80435995067901L289.900752581414,157.17654681756724L291.9203055121269,157.16202381211235L292.5690060174186,157.16253281148408L293.2054669006971,157.16302145961026L294.4906283293999,157.1639757038234L295.77580098983617,157.14870811367803L297.06096194705736,157.1495755510394L297.06181371421803,155.85530104201544L298.1143961591126,155.83980073191714L298.3714195084965,155.83996189678953L298.3599778617558,154.56185816308604L298.67819651989385,154.5458769607014L299.6328222187486,154.54645268159933L301.55431245893044,154.54753888411585L301.55427750875026,154.6122526130756L301.56585267057903,155.84182007143446L302.202291483426,155.8421582456213L302.2017837949177,156.8128641878906L302.2016230286537,157.12025440303626L303.4867830491331,157.12090482361023L303.8050131535079,157.12105917576022L304.77194309547673,157.12151184094446L304.77311472101445,154.54914102821303L309.9011740038371,154.53495260349115L317.1577242561478,162.62580480531417L317.0717351431004,164.89077433268812L316.5676096988246,180.01754024289085L309.81776928224065,185.45191488940915Z" stroke="null" id="Homecroft" transform="translate(0, 1) translate(0,0) scale(1)" style="fill: rgb(137, 176, 125); mix-blend-mode: normal;"/><path d="M310.3685435912298,186.8110770324354L309.81776928224065,185.45191488940915L316.5676096988246,180.01754024289085L317.0717351431004,164.89077433268812L317.1577242561478,162.62580480531417L309.90116881546936,154.5511310369222L304.77311472101445,154.54914102821303L304.77194309547673,157.12151184094446L303.8050131535079,157.12105917576022L303.4867830491331,157.12090482361023L302.2016230286537,157.12025440303626L302.2017837949177,156.8128641878906L302.202291483426,155.8421582456213L301.56585267057903,155.84182007143446L301.55427750875026,154.6122526130756L301.55431245893044,154.54753888411585L299.6328222187486,154.54645268159933L298.67819651989385,154.5458769607014L298.3599778617558,154.56185816308604L298.3714195084965,155.83996189678953L298.1143961591126,155.83980073191714L297.06181371421803,155.85530104201544L297.06096194705736,157.1495755510394L295.77580098983617,157.14870811367803L294.4906283293999,157.1639757038234L293.2054669006971,157.16302145961026L292.5690060174186,157.16253281148408L291.9203055121269,157.16202381211235L289.900752581414,157.17654681756724L289.803151344939,156.80435995067901L289.6079546239291,156.05998546506524L289.4496492970311,155.1215003503836L289.37631285201223,155.0081882563676L289.36411567501193,154.95964243970906L289.36220857361235,157.17608726955032L289.3611228110723,158.438004764858L289.28766860596585,158.4541199364703L286.79068398640084,158.46806327057794L286.6315482323799,158.48409371363766L286.5091476626097,158.4839794258124L286.3014167745952,158.11168037719222L286.252457025863,158.11163428446918L286.13005765436134,158.11151877708392L285.78764820653646,157.7876246949875L285.71434844613424,157.64194868574128L285.7021550881189,157.59340169464016L285.6777374929802,157.52866455733877L285.6655442183237,157.48011755449272L285.61670938229537,157.35064321717724L285.5923076122339,157.26972759669923L285.33563416257414,156.89737626773987L285.2622752011677,156.8164130998437L285.20118742595,156.70310480542787L285.16464173160716,156.52510647030624L285.1524651467714,156.46038087473832L285.22605837563,156.298667832104L285.0425468537151,156.21759732907245L284.8832298665374,156.4277615965988L284.8587035694468,156.47627292970617L284.8464166366311,156.5247962323965L284.8463691149178,156.573331516509L284.7727896154119,156.7188653972779L284.699241360279,156.832042279921L284.5646544607864,156.78337441995052L284.44232341177735,156.7185397713394L284.3200409725679,156.60516944577014L284.2711153329577,156.57276394775715L284.2222058826722,156.52417995898864L284.2215133298104,157.21985235590142L284.1725547290725,157.2198035869869L284.06239787769493,157.21969362663773L283.95224102670556,157.2195833474075L283.86656347620584,157.2194973542097L283.682968725927,157.2193124334994L283.4136964274913,157.21903961417482L283.2545809795229,157.21887750713205L283.09546553238783,157.21871473476511L282.936350086071,157.21855129708308L282.76499499097963,157.218374543209L282.446764102677,157.21804423887562L282.2876486597874,157.21787808872946L281.9204591794362,157.21749212606744L281.65116969815216,157.23338526188664L281.32069903225386,157.2330325275325L281.00246802419724,157.23269014495196L280.81887321344954,157.23249140597068L280.69647667359476,157.2323584212154L280.3292870571727,157.23195710486016L280.21913017317524,157.2318360190457L280.0844939821889,157.23168759221886L279.9008991773385,157.23148442432532L279.26443719649336,157.23077325103299L279.14202239800835,157.24681369257604L279.107753119324,155.07886313362917L278.5080440297646,155.0781807703624L278.26326481332194,155.07789953846307L278.27596966403877,154.67345299514167L277.7864352854349,154.65670754406398L277.7849277957386,155.9509815847327L277.78417406345034,156.59811860545693L277.7834391825313,157.2290772008524L276.4982756828536,157.227558711504L275.213112246521,157.22599681881218L273.9279488753124,157.2243915227769L271.35764391044813,157.20487229782586L270.06024164810333,157.20312005507336L268.76283945942953,157.201323578328L268.77863884547816,154.66132853066784L268.75599108690744,135.91046952041714L268.6006304824615,124.61769136713013L268.52308076647887,118.90658860500167L268.598199301734,117.66095365881819L268.50817084276315,86.17756393591775L265.25210950369353,82.29000016158317L265.48947261932534,62.40704385085638L265.5705545990548,0.00693872591756417L304.3435189599898,0.7082931139073878L337.242089591934,0.22407939016059686L348.6022931657749,0.1854759674334332L392.43392237522414,-2.842170943040401e-14L392.3985378678732,33.44090759211623L392.59262071662084,39.39421664108529L391.99139629841056,110.46729705816801L392.00853440752104,113.13671220346328L392.1638153143926,144.32850927603596L392.1770264029653,164.79424626817877L392.1818213554687,167.39897070030216L392.19590714927244,175.05135981647143L392.20058215155444,177.59137055409772L392.22712258236106,185.3569858119998L392.2406519331316,186.05263496804895L392.297813405783,190.4854295049293L392.3271136291154,193.09010858144663L392.34160093549883,194.30346683809378L392.3658394335437,200.80716541823512L392.32096631718895,203.05605481914625L392.3875163572558,205.91952047398766L392.430847753986,216.12805158854684L392.47430743930875,219.75194722620415L392.47463565724735,219.92990971623388L392.4882980829587,220.69027226886766L393.05343361936184,221.32018498109827L392.25770685646364,221.9687957820434L392.5035428882277,222.30809042854486L392.5315274468827,224.18474043640356L392.54707336368665,225.96434259877904L392.54802890634556,226.4820516281441L392.1433858022627,226.48279690624676L389.71552697811035,226.48717841590963L387.32445356757006,226.49134247576686L386.90754842781433,226.4920531691692L386.67457202207163,226.49244833636246L386.45385752971737,226.4928213924587L384.1486171210866,226.49664141530116L383.7562357471684,226.4972777546693L382.33385320046716,226.4995506432271L382.2112340105932,226.49974409817688L377.06125066784654,226.52369162194438L371.9112828518047,226.56312212697645L370.4152851157184,226.53268967961512L370.4157362076158,236.57950259448808L356.97356268413756,237.0795104648164L344.45083949697863,237.38011300214242L342.8330427216292,239.66218491617383L332.39849338406236,254.30790255949609L326.9138512250315,257.7226350756853L326.6929561135912,257.7226622734011L326.26343607965697,257.7065330765865L326.15298857045485,257.70654495348515L325.7602863151544,257.7065845945748L325.4903020804883,257.69043108214623L324.7785306749775,257.7066660240137L324.2262940252004,257.72287915537817L324.1281184193772,257.72288448953793L323.4899775683494,257.7390914298881L322.9254675952235,257.73910776543056L322.8272919477019,257.73910975428987L322.76593244862056,257.75528929152676L322.545037148155,257.7552924883076L320.9619536784689,257.77145641708955L320.91286682076793,257.7390980735033L320.90059333784376,257.7876329561682L320.83923348024274,257.7876309742225L320.47107433471456,257.78761701146084L320.3360826480658,257.7876110021979L320.2747227905087,257.7876081129199L320.13973110389355,257.78760140934617L320.01701138883,257.7875949009773L319.8820197022799,257.7875872861261L319.72248407276385,257.78757767134516L319.50158858582785,257.7875632579418L319.31750901345356,257.7875502703994L319.157973384138,257.7875382965508L319.0107084173533,257.80370507439847L318.91253260397644,257.8036969957859L318.81435679061906,257.80368866469996L318.7161809772882,257.8036800811361L318.6180051639908,257.8036712450945L318.5198293507152,257.803662156575L318.42165353746856,257.80365281558676L318.32347772425766,257.8036432221161L318.225301911071,257.80363337617206L318.11485412127655,257.80362199770263L318.00440633152266,257.8036102996828L317.8939585418106,257.8035982821307L317.79578272877256,257.80358733160455L317.6853349391363,257.8035747104808L317.55034319631557,257.8035588507139L317.4521673834024,257.80354701651754L321.40383919233483,252.59437170002943L319.44111028083944,245.13603159774806L316.43598157880865,241.70587737710892L321.13428360192853,237.17632653022721L330.4425478200656,231.9659736019765L330.5283828567642,231.91741945449724L328.5290435955793,229.76607771787826L330.44139916226976,226.70798453134108L324.2855797609084,221.45084416230134L311.9231548751399,190.67816992198678Z" stroke="null" id="Lakewood" transform="translate(0, 1) translate(0,0) scale(1)" style="fill: rgb(137, 176, 125); mix-blend-mode: normal;"/><path d="M336.8497375835687,278.1534360685446L332.9670672076529,268.7874329035047L333.31054418673676,267.97841261717235L332.9053514563658,267.5902472873991L332.9053240315342,267.49317677063925L332.91704541341124,265.5355845094331L333.2606216706226,265.1633819716943L333.2974304777689,265.1148359341166L331.39437153145684,262.89890268085924L331.16110772129315,262.62392556187143L330.62093565894935,262.0092698611694L326.92612317565863,257.7226335272201L332.39849338406236,254.30790255949609L340.94536456329297,242.3164261178536L344.45083949697863,237.38011300214242L351.2334912601761,237.21375265910547L356.97356268413756,237.0795104648164L370.3666755745589,236.5795646927035L370.4157362076158,236.57950259448808L370.42189947819276,231.7583187269106L370.4152851157184,226.53268967961512L371.9112828518047,226.56312212697645L377.06125066784654,226.52369162194438L382.2112340105932,226.49974409817688L382.33385320046716,226.4995506432271L383.7562357471684,226.4972777546693L384.1486171210866,226.49664141530116L386.45385752971737,226.4928213924587L386.67457202207163,226.49244833636246L386.90754842781433,226.4920531691692L387.32445356757006,226.49134247576686L389.7032650639906,226.48720015247747L392.1433858022627,226.48279690624676L392.54802890634556,226.4820516281441L392.54263351135046,230.20310784546166L392.51100601685124,233.00204005765966L372.0402788238408,250.19965923597405L371.7583739417973,250.42652521068038L362.5888655512501,258.1382880425291L356.2608506560009,263.04653859686715L350.9126801939822,267.2249824670114L346.06640672903484,270.9817253588043L338.64179837587477,276.76135819732394Z" stroke="null" id="Lester Park" transform="translate(0, 1) translate(0,0) scale(1)" style="fill: rgb(137, 176, 125); mix-blend-mode: normal;"/><path d="M302.55331883335884,307.1753567101691L311.91348673731125,319.03776850856985L310.3275932712341,319.9271253860053L298.42884195054825,320.21282312234257L296.19121581406955,320.92322271741756L293.3626800105728,322.68464857549935L286.72074701017743,326.8207547937061L284.3079568309564,330.0055939874678L284.17019733686277,332.5454677185585L284.0595658071945,332.5130010779047L283.58013758419304,332.3992725907424L283.1376162705302,332.26939728382314L282.7074436496667,332.0909943453041L282.2282097826433,331.79928661162614L281.87195644839426,331.4915239504211L281.50353323659897,331.0704961863117L281.2581578152916,330.56870435406387L281.1233069705117,330.1964567428538L281.01311828535455,329.75952150014393L280.81758198291277,328.65917909890203L280.7198530036346,328.0766507265658L280.59734565830644,327.6720577456969L280.5606728563317,327.47787700814786L280.4626520874117,327.1703806344341L280.3032680631986,326.76574654249623L280.13155801152766,326.3934550823361L279.98435015566696,326.1020818873593L279.837091027093,325.85924330183974L279.7757648721973,325.7297482025334L279.68988747200257,325.56786896895903L279.34616858300126,325.1144908145669L279.2111564943427,324.9201987284183L278.9778709774954,324.6610818577019L278.91649496775375,324.5801205551563L278.7814320893971,324.4343621281875L278.70774521041346,324.3695649603599L278.28925395500175,324.82208356229995L278.11695955214975,324.9836699961123L277.7599978915041,325.3715398571616L277.13224313543304,326.03412209070757L277.0583658432577,326.1311056661391L276.72600916723445,326.4866380315763L276.35670602387864,326.89065860013943L276.0489442261643,327.23003608110116L275.5934483485601,327.73101593569965L275.19949263514144,328.1673522107986L274.8547865014988,328.5390316283737L274.71936512254206,328.68446989266215L274.51015403084625,328.8459943805723L274.38710562723,328.926733201255L274.33788612071925,328.9590286187164L274.27631116328814,329.03984377495794L274.1532818805644,329.10440345423643L273.84570686083623,329.26580092174885L273.75960171192764,329.29804905836306L273.6611810482546,329.34645982652273L273.5504856769299,329.3786763533353L273.4397901193444,329.4108925599279L273.34138933905894,329.44312411670035L273.23069341927135,329.475339718422L273.12001798383903,329.49137661122086L272.923277566563,329.50730266133496L272.7634427735766,329.5070968915235L272.0873030869156,329.44150538604805L271.9643746162168,329.4251660863333L271.8045613926345,329.40877792268583L271.6324320594253,329.4085512640196L271.4726190456218,329.3921617138689L271.3127847344203,329.3919498841623L271.15292892348106,329.40791577468246L270.9807995949946,329.4076861845957L270.857828450091,329.4237001053414L270.7840370510719,329.43977962319786L270.51352611223666,329.4555942709979L270.2553099206222,329.4714236684537L270.16924511424617,329.4713069512409L270.0954533334809,329.48738514122607L270.0216834688062,329.4872848015615L269.88641668233487,329.5032788634111L269.76346685723826,329.5031108799513L269.62824419454137,329.4867472546646L269.5298843770315,329.4866122358296L269.38236689947183,329.4702308464193L269.284029413957,329.4539168084796L269.22257689615776,329.4376535112829L269.0873546932726,329.4212879743094L269.0259247093348,329.3888459742532L268.9644724049795,329.3725822624297L268.82927302236027,329.34003742632126L268.70639132186625,329.29133088532353L268.583509933407,329.24262394954474L268.4606288569784,329.1939166189777L268.337770781666,329.12903050688067L268.21491312220184,329.06414400006634L268.1043506993203,328.9992744517801L267.9814938507621,328.9343871950195L267.87095508348295,328.853338585178L267.4042384350443,328.5129274180536L267.40430768600146,328.4643922583732L267.40437693701654,328.41585709862545L267.2692748129562,328.31859320159793L266.61833995869114,327.84848060616685L266.3235791514435,327.63773255264925L266.1761645595445,327.55662525306934L266.0779042744564,327.49176781338747L265.9673263146169,327.4430704713184L265.85677237343816,327.37819442324474L265.7461950219503,327.32949644174573L265.6355941199776,327.29697652672417L265.5249934054032,327.2644562918904L265.4143928782223,327.2319357372487L265.29149829522163,327.1993966094881L265.18087412995493,327.18305376573153L265.08254429137844,327.16672892650934L264.9719203088232,327.1503854785269L264.8490021980499,327.1340233151228L264.726059976464,327.13383914261306L264.61541197764456,327.13367304958246L264.49244544353456,327.1496665121755L264.38177303867377,327.1656781291866L264.2588063035912,327.1816708409266L264.1481337080062,327.19768178217066L264.0374365137813,327.2298707887348L263.92673913338393,327.2620594750682L263.8160415668155,327.29424784116446L263.70531916819095,327.3426142722302L263.5945964900307,327.3909803829201L263.4961678523265,327.4393650073779L263.38541984990235,327.5039088978717L263.28696583594916,327.56847136917554L263.1885114905215,327.63303358714177L263.09005681360827,327.69759555175943L262.8069101855798,327.93983413474825L262.5238102702222,328.1497138534685L262.3022812800129,328.29497406906944L261.9945866597905,328.50481143269394L261.69925987484004,328.66613058240375L261.35477718111696,328.81119102051946L261.0594968644839,328.9401484658928L260.616624557835,329.1012235959668L260.1491325732569,329.2784321761777L259.9276930156594,329.35896511400927L259.73084244890583,329.43953686207914L259.54628604104556,329.52012770067165L259.3494338441908,329.60069748677637L259.1648492984833,329.6974648678232L258.98026382089546,329.794231358508L258.820267622885,329.89103763554647L258.66027061709076,329.98784324362225L258.24177785059305,330.2621803234958L257.58942315192576,330.6817251003148L256.961645169388,331.1013006268191L256.863171104813,331.16584656867167L257.0725790204251,330.93970504823284L258.9817022397497,328.9205987343559L261.6541630010851,326.07751144699256L262.7993714519429,324.8659219013632L263.03394514809816,324.2191478184692L263.28082887975137,323.55621280690127L263.66351764451565,322.50520171342197L263.7040199410383,320.1270350506014L263.73173370336787,318.0724172344368L263.74902696762194,314.7882229134067L263.79436925306754,309.2229125735795L269.2505429623292,309.16612954987716L269.32402850541496,309.34419373184664L269.3975592561493,309.4899009820382L269.6060878968249,309.7652210637324L269.71653087984106,309.8786215029538L269.8761073563124,310.008267184258L272.577724620975,311.4840980618168L273.044258536674,311.84062470135416L273.1792757392463,311.97022504760935L273.2774256542734,312.09977786270076L273.3755350780382,312.26168721642966L273.4980190805607,312.5854115197683L273.54703376900557,312.69872273497936L273.63291763610897,312.8120806334411L274.0378664749552,313.2979443646668L277.6397689520779,312.44484548904666L279.310528179491,312.9968177417281L279.2983831016417,312.8673768069342L279.29874463084144,312.5438088523746L279.29910616205757,312.22024089542106L279.2871783592543,311.89665917876454L279.2872506869028,311.83194558661944L279.28752191630315,311.5892696152416L279.28788355726834,311.26570165130784L279.27595617043335,310.9421199240096L279.2763179192345,310.61855195540045L279.3254736233386,310.6186069752215L279.3746293275226,310.61866193185733L279.57127010806545,310.60270272792957L279.62042579193,310.6027573686123L279.66958147586763,310.60281194610525L279.9276488179677,310.60309744128926L280.0382491081478,310.6032192632313L280.08740479281397,310.6032733036312L280.13656047757087,310.6033272808503L280.18571616239973,310.6033811948841L280.5666727227199,310.6037968861842L280.54349912861926,309.3094982464704L281.5020197730554,309.2943495805621L281.5266653281999,309.2296620688835L281.61294121984474,308.98707725239944L281.7115384686341,308.7121484224656L281.7608280444173,308.58277311171037L281.84711801049895,308.3240093638182L281.9334068154081,308.0652454199748L282.080864100782,308.06540004551965L282.26520253554224,308.0494141272957L282.4618121686568,308.04961846229577L282.7567266207065,308.0499230692866L282.85503143869477,308.05002409948025L282.9533362569988,308.0501248769426L283.0516410756116,308.0502254016601L283.30978954119297,307.95341767142713L283.4205128966605,307.82410250554886L283.56813202439076,307.66246738602024L283.6050447425728,307.6139693164997L283.6542453142748,307.56548356945154L283.70346198144733,307.5008193579009L283.8264705872664,307.37151535416467L283.9246769055968,307.468684042149L283.97378025179273,307.51726829143735L284.03518774944877,307.54968631206356L284.14584335837975,307.48508265063066L284.268866400419,307.3395988226086L284.31806577959156,307.29111222136817L284.3549771909779,307.2426134277682L284.44108754593344,307.1456278388785L284.4902864583928,307.0971410159371L284.52719746528396,307.0486420559546L284.5763010352531,307.09722553188965L284.6376925422018,307.1458209867941L284.6867963771326,307.19440432065517L284.7359003367487,307.2429875913851L284.83412437248273,307.3239755418007L284.96918113961567,307.437355861456L285.00599784797396,307.4859268493293L285.07966282236686,307.5507119153269L285.16560040694446,307.6316871132864L285.2147211169326,307.6640913667834L285.31293170652066,307.76125648757204L285.41115829318386,307.84224295418306L285.4848246391448,307.9070272388045L285.6199932617511,307.90715644635884L285.68137200834775,307.97192862572615L285.74281239545434,307.97198709982524L285.7427356045746,308.0528791080632L285.7426434556603,308.14994951775293L285.7425820231364,308.21466312410166L285.8039768031408,308.2632567045181L285.85308355253693,308.31183853876087L285.90219042661863,308.36042030985686L285.951297425367,308.4090020178151L286.0004197978639,308.44140526105554L286.0495270252019,308.4899868427152L286.09863437721197,308.5385683612443L286.14775704065215,308.57097141505034L286.1968646212504,308.61955280728364L286.24597232652013,308.66813413637306L286.29509528090796,308.70053700074754L286.38102293091697,308.79768786536863L286.4302215024104,308.74919854820206L286.47934471661233,308.78160117576556L286.52845298817016,308.83018214177116L286.47925443735744,308.8786715852459L286.5283628335575,308.9272525512399L286.5774863594182,308.9596550525337L286.6265949841901,309.0082358922425L286.6757037336498,309.0568166687924L286.7248126077786,309.1053973822016L286.7739365284706,309.137799630915L286.8230456311755,309.1863802180284L286.97044788139533,309.25122959266906L287.0196759234685,309.1703827144198L287.0688001767951,309.20278458421024L286.99499520036045,309.28360896861705L287.0563932845121,309.33220053627167L287.1055177767379,309.36460235872005L287.1546275911575,309.41318251960456L287.21612923057273,309.34852501954606L287.27764537162096,309.2676890188562L287.51093680804695,309.47822016889734L287.6091578812026,309.57537938562615L287.8056160093195,309.7535186596376L288.0389133106137,309.9640465850765L288.0880250783222,310.0126255461408L288.1371513162574,310.04502604241776L288.23537543346583,310.14218364879974L288.1738742445849,310.2068427869028L288.22298649535355,310.2554215742673L288.27209887078385,310.3040002984962L288.40717633511974,310.4173684624856L288.4686774670993,310.35270894947746L288.56691737920085,310.43368730166503L288.66514358461006,310.5308438028578L288.5667474138523,310.62782812067474L288.7263766331769,310.77357350552825L288.77549031239744,310.8221515824081L288.7754480859868,310.8706867869935L288.82456195219504,310.919264800693L288.8737601466646,310.870772342074L289.1072094858435,310.9195097272404L289.19324654768354,310.90340545381434L289.7335395599155,311.40539742358715L289.8686252370947,311.5187604207595L289.99142246231077,311.6321126229119L290.04053884787265,311.6806890735574L290.3107013364108,311.9235908207901L291.0106819408183,312.5551244236967L291.158051972382,312.68467125283723L291.2685801504993,312.7818310016347L291.3913855720461,312.89517870355184L291.5510478993687,313.02473388421845L291.60016805061105,313.0733083294657L291.9445857168066,312.6852996063444L292.2274986187509,312.36195343255247L292.8425537250189,311.60204362943347L292.95326770318206,311.4565224760629L293.12551225310955,311.19779879457167L293.2485618017101,310.987572485056L293.4086587181001,310.5346974179571L293.69189139923105,309.74216671076454L293.79035602184535,309.53192038373436L293.88881956569037,309.32167380234944L293.95033346488134,309.22464866724545L294.19637416252795,308.8527255393659L294.2332863299102,308.78803881139675L294.2824866918033,308.72336099024005L294.51620944847133,308.3837836664429L294.7499049586684,308.07656172035377L294.81140315470554,307.9957136021615L294.9959190864648,307.72081184496005L295.05741619321134,307.6399633306213L295.1066136918816,307.57528444786567L295.2788036300384,307.3489078592073L295.34028823910194,307.28423729395445L295.42637085054605,307.18722697455894L295.5739816504855,306.9608319012774L295.9553106877565,306.362493316267L296.0783182254587,306.16843628885215L296.12752308648925,306.0875776858742L296.2751255141782,305.8611799015853L296.32432956597603,305.7803210449026L296.3858098954804,305.7156487968406L296.5333877633279,305.5216068249066L296.58258005394606,305.45692604086594L296.65634667937184,305.3922615570248L296.84078349720795,305.1982429133228L296.90226202149233,305.1335698342489L297.1236209797446,304.84250366975186L297.1974065521509,304.7454813298158L297.5048320250879,304.35739845176477L297.82449703968393,304.0340345287483L298.07038562850653,303.79151369374864L298.4515442604412,303.35493424788183L298.56221314102646,303.209396837099L298.95565656988117,302.756641518062L299.3117793644811,303.0642453203027Z" stroke="null" id="MacArthur" transform="translate(0, 1) translate(0,0) scale(1)" style="fill: rgb(137, 176, 125); mix-blend-mode: normal;"/><path d="M316.54225760331457,270.0666685072789L316.1984445829363,270.6328615799006L316.03879633172534,271.00494020878716L315.9036792854131,271.4902710926317L315.82993879151365,271.9917900443846L315.8052951451907,272.54185223365187L315.8051832501881,273.221345804671L315.829670759426,273.6258103006495L315.81734584224864,273.9170198082594L315.8050553717882,273.99790987619315L315.8049514718474,274.62886817666276L315.79251660723855,275.58339279688306L315.7924819072328,275.793712225351L315.79242852285387,276.11728057533315L315.79229506320786,276.9262014422576L315.779942065383,277.379195092293L315.77986718397005,277.8321907690863L315.7921269067009,277.94544171814164L315.48510425540803,278.30131494446675L315.4359815674319,278.3498416547675L314.87104793574053,278.98069715497115L314.26924880275357,279.66007200724755L313.66742829979097,280.33943737176025L313.15181498736547,279.85396753040675L312.6116529504661,279.3846630479843L312.07150416917,278.9153509234045L311.55593031165705,278.42985952842434L311.4699531405436,278.5269062001414L311.40854190074106,278.59160272812153L311.3594182119064,278.62394577969553L311.31029444000444,278.65628876807284L311.24889649407265,278.67244979013185L311.1383744959397,278.7209534808106L311.0769763735476,278.7371142265471L310.9910160952893,278.76944615458643L310.7454275372563,278.81790918179104L310.6226305971168,278.8502293114594L311.23630531369577,279.77257860261403L312.4514557828229,281.64960128867716L312.94251322881956,282.1836099314074L313.470438911847,282.65290693649496L314.0229309240442,283.15455867444444L314.5017686271069,283.59147416906063L314.8332801876283,283.8827501677542L315.2384417167429,284.3843559926341L315.44716253966106,284.65942598450204L315.70500369895854,284.9668599214104L315.8032199723618,285.14483880917135L319.2536119490202,291.85929370930444L320.3958236021969,294.0758043172417L348.526101356946,348.7011881923038L340.7417734524291,353.4298595588647L311.91348673731125,319.03776850856985L302.55331883335884,307.1753567101691L300.109816749001,304.0839527052867L299.3117793644811,303.0642453203027L298.95565656988117,302.756641518062L298.80828860347845,302.6433031174505L298.72233341429916,302.562358581572L298.42762123705626,302.30332259791373L296.8178862600361,302.6582169191173L296.37580508688177,302.318175287612L295.84777305460904,301.91335594612747L294.55852036972215,300.8123165696052L294.0067168323747,299.3720360225783L287.5745951575215,293.39693053436866L287.8448010213872,293.4295305319939L287.9921587078543,293.4781975939892L288.39734085472844,293.6726981119966L288.72888222904515,293.8024164170454L288.97452485003623,293.83498696635877L292.05771932789304,293.8051782495244L293.482838927417,293.49888205683067L293.59338983398345,293.49896468187615L293.74077905575734,293.5152527600268L293.8513061283185,293.54769145670286L293.94954992792754,293.5801207873466L294.0232032168035,293.64488864179657L294.6877742655583,291.88192360049254L295.03198195994673,291.4777085212802L296.2732639315899,290.41079206294484L296.5928446944856,290.0550815389529L298.25098939325926,290.00761719266495L299.09896501023314,289.1830377752328L299.70112635826115,288.60097249996875L299.72573738287156,288.52009483335473L299.76262066999334,288.4554027447989L300.2542442999987,287.8409071418739L300.86870227741224,287.16176000483813L301.0407398377267,286.983892628259L301.37253769818375,286.6119704766516L301.5567821221344,286.56353473787493L301.21306725471226,286.2721368591288L300.7466286719827,285.835061727696L300.41521657329537,285.52748511574055L299.8628780550372,285.00945823174294L299.5585392374141,280.4631441013606L299.1044403901184,280.0745913518531L298.515331634931,279.6050579717704L298.47852468241973,279.5564999668107L298.36808431042937,279.4431825672766L298.30672994929745,279.3784307167558L298.2453858857565,279.2975003533336L298.18404208201355,279.2165698912653L298.13497736259853,279.135647036299L297.88973880679765,278.60160449917925L297.85294387175543,278.5368674759704L297.8284174064938,278.4883166359717L297.7916124024306,278.439757967953L297.7670860774684,278.3912070884595L297.71801298812784,278.3264621109427L297.66894006505885,278.2617170702896L297.6075887850537,278.1969640951224L297.54623771289283,278.1322110213215L297.4971549234603,278.08364417415066L297.42351531626423,278.03506140670413L297.3621543517892,277.9864864514577L297.3007935432158,277.9379113975814L297.2394328905444,277.8893362450773L296.3311455948634,277.41956003881097L295.72973328580053,277.09558111575734L295.36151261559183,276.9173624732191L295.275611216801,276.8525885519248L295.1897101090423,276.7878144373266L295.10380929231684,276.7230401294445L295.0179087666194,276.6582656282736L294.9442865403528,276.59349966525156L294.87067608190046,276.51255514592873L294.79705438569306,276.44778889889335L294.7234445196487,276.3668440955464L294.6621244817407,276.26972955802546L294.60079312293533,276.18879333618395L294.53947368263215,276.0916786013745L294.49042069077234,276.01075105962576L294.44137960703426,275.91364504036704L294.39233877273193,275.8165389579532L294.3555759156811,275.7194417330719L294.33106744824926,275.6547102300617L293.7306959825574,273.9878913937869L293.64494839098506,273.7289728232491L293.4489028558094,273.2111166879572L293.3509064103042,272.9198314110634L293.10587277781207,272.25633077171136L293.02012101764177,272.0135892046462L292.6526347378985,270.96170999808777L292.4198892617631,270.3143928117671L292.24839166798387,269.84508480049334L292.2239031919337,269.76417352237064L292.2116906098168,269.683271838563L292.1872023157478,269.6023605366561L292.18725294450013,269.5376468744409L292.175053175682,269.44056676300625L292.162866136941,269.32730823189337L292.1629421427761,269.230237738151L292.16317016104375,268.9390262559774L292.1634361838009,268.5992795250293L292.16379088323094,268.14628388081053L292.80213110397915,268.11442214402007L293.66140115714217,268.1150717697357L294.10331147705415,268.11539833443294L294.7416263916389,268.11586101108117L295.9814414393224,268.10055076767827L296.6443066750395,268.10099842643865L297.3194472024944,268.1014425477512L298.9397943072157,268.08628132274765L299.88500009247025,268.0706645175759L301.0266004593015,268.07131163730423L305.02834677710916,268.05713213313754L305.7403123522357,268.0574438280972L306.34180718486493,268.0415183940252L306.41545876591687,268.04154872068125L306.5382179869669,268.0254205306562L306.64870185118014,268.00928698036824L306.7591856220494,267.99315311042704L306.86967574518115,267.96084050200227L306.96789045423884,267.92852271083734L307.0783802141009,267.8962094985731L307.1888760976812,267.8477175477009L307.2870965152164,267.79922051664795L307.3853166835889,267.75072323293944L307.4835427886879,267.6860472775996L307.58176241714807,267.63754948859605L307.6677127861785,267.5728683897762L307.7536689361242,267.49200867838454L307.8396186873031,267.4273271925447L308.37990742680574,266.90981569012246L308.82195557270796,266.4731546114317L308.9079012272576,266.4084707204649L309.0061268515649,266.32761242835426L309.10434656004145,266.2629323030858L309.2148460617278,266.18207765032184L309.3253396891592,266.1174010973673L309.4112783219767,266.06889449285353L309.5217659661519,266.0203957911252L309.6322533299863,265.9718967697005L309.75501499705683,265.9234013997193L309.8654966061838,265.8910801231216L309.97597802846497,265.85875852685683L310.0987338163307,265.826440471621L310.1846607269547,265.81028896607216L310.1846405533433,265.87500264524016L310.1846254231495,265.92353790457975L310.30737125951265,265.9235760182048L310.4055728786173,265.90742780523203L310.5160440848261,265.90746148605587L310.61424071267464,265.907491156271L311.24024421733475,265.9076743677289L311.42436289586294,265.90772630038856L311.5716578388997,265.9077672073275L311.6944080294347,265.8916224425095L311.8662520573513,265.89166889677745L312.01354693862277,265.89170809921023L312.16084182008325,265.8917467334821L312.30813670171756,265.891784799584L312.4554315835355,265.8918222975204L312.5904518920192,265.89185617152077L312.73774677416355,265.8918925804753L312.737679402988,266.1669257201194L312.73760014318987,266.49049411816463L312.73752880974905,266.7817056749579L312.749716598379,267.1376339176962L312.7496374437855,267.4612023106919L312.74955828963294,267.78477070199006L312.74954245885533,267.84948438004835L312.7494949666284,268.0436254138136L312.8108673565737,268.05981881690906L312.85996843469127,268.05983073279936L312.90906951282125,268.05984258556146L312.9581705909759,268.05985437519075L313.00727166915516,268.05986610168736L313.0563727473404,268.0598777650558L313.10547382554995,268.0598893652869L315.3150194900233,268.07652445358633L315.31500800145164,268.14123813206095L315.30269242313733,268.3677338222253L315.3026435087448,268.64276695391345L315.3026204902872,268.77219430958087L315.3025773308176,269.0148706007018L315.30252841697,269.2899037294674L315.3025169078631,269.35461740664226L315.29022969275445,269.4193288958462L315.3638839288666,269.4193419641116L315.4129867529562,269.41935059736755L315.4620895770717,269.4193591674958L315.5111924011944,269.4193676744873L315.5602952253241,269.41937611834203L315.60939804947327,269.419384499069L315.65850087363543,269.41939281665924L315.7935336401449,269.41941536449644L315.68302783937884,269.56500272520185L315.89168672934755,269.74299984819055L316.1371524467257,270.0666073736444L316.0880386120834,270.1313133480273L316.051200566636,270.19602120642236L316.12486641587793,270.13131913055514L316.14942584168284,270.0827877084489L316.223083843509,270.06662070046065L316.35812132624903,270.0504628328133L316.4440526867682,270.0504756624419Z" stroke="null" id="Myers-Wilkins" transform="translate(0, 1) translate(0,0) scale(1)" style="fill: rgb(137, 176, 125); mix-blend-mode: normal;"/><path d="M299.5585392374141,280.4631441013606L299.5828120337408,280.9485110090134L299.8628780550372,285.00945823174294L300.41521657329537,285.52748511574055L300.7466286719827,285.835061727696L301.21306725471226,286.2721368591288L301.5567821221344,286.56353473787493L301.37253769818375,286.6119704766516L301.0407398377267,286.983892628259L300.86870227741224,287.16176000483813L300.2542442999987,287.8409071418739L299.76262066999334,288.4554027447989L299.72573738287156,288.52009483335473L299.70112635826115,288.60097249996875L298.25098939325926,290.00761719266495L296.5928446944856,290.0550815389529L296.2732639315899,290.41079206294484L295.03198195994673,291.4777085212802L294.6877742655583,291.88192360049254L294.0232032168035,293.64488864179657L293.94954992792754,293.5801207873466L293.8513061283185,293.54769145670286L293.74077905575734,293.5152527600268L293.59338983398345,293.49896468187615L293.482838927417,293.49888205683067L292.05771932789304,293.8051782495244L288.97452485003623,293.83498696635877L288.72888222904515,293.8024164170454L288.59379171166506,293.7699413752697L287.9921587078543,293.4781975939892L287.8448010213872,293.4295305319939L287.5868785585087,293.3969416295943L294.0067168323747,299.3720360225783L294.55852036972215,300.8123165696052L295.84777305460904,301.91335594612747L296.37580508688177,302.318175287612L296.8178862600361,302.6582169191173L298.42762123705626,302.30332259791373L298.72233341429916,302.562358581572L298.80828860347845,302.6433031174505L298.95565656988117,302.756641518062L298.56221314102646,303.209396837099L298.4515442604412,303.35493424788183L298.07038562850653,303.79151369374864L297.82449703968393,304.0340345287483L297.5048320250879,304.35739845176477L297.1974065521509,304.7454813298158L297.1236209797446,304.84250366975186L296.90226202149233,305.1335698342489L296.84078349720795,305.1982429133228L296.65634667937184,305.3922615570248L296.58258005394606,305.45692604086594L296.5333877633279,305.5216068249066L296.3858098954804,305.7156487968406L296.32432956597603,305.7803210449026L296.2751255141782,305.8611799015853L296.12752308648925,306.0875776858742L296.0783182254587,306.16843628885215L295.9553106877565,306.362493316267L295.5739816504855,306.9608319012774L295.45096901892407,307.15488730350944L295.36488654233403,307.25189767833115L295.2788036300384,307.3489078592073L295.1066136918816,307.57528444786567L295.05741619321134,307.6399633306213L295.02051796029343,307.6884724511017L294.81140315470554,307.9957136021615L294.7622161670655,308.0442137005312L294.51620944847133,308.3837836664429L294.319386854295,308.6748525827793L294.2332863299102,308.78803881139675L294.19637416252795,308.8527255393659L293.95033346488134,309.22464866724545L293.88881956569037,309.32167380234944L293.79035602184535,309.53192038373436L293.69189139923105,309.74216671076454L293.4086587181001,310.5346974179571L293.2485618017101,310.987572485056L293.12551225310955,311.19779879457167L292.95326770318206,311.4565224760629L292.8425537250189,311.60204362943347L292.2274986187509,312.36195343255247L291.9445857168066,312.6852996063444L291.60016805061105,313.0733083294657L291.5510478993687,313.02473388421845L291.40367522922753,312.89518857098716L291.2685801504993,312.7818310016347L291.158051972382,312.68467125283723L291.0106819408183,312.5551244236967L290.3107013364108,311.9235908207901L290.04053884787265,311.6806890735574L289.99142246231077,311.6321126229119L289.8686252370947,311.5187604207595L289.7335395599155,311.40539742358715L289.19324654768354,310.90340545381434L289.14404871611794,310.951898323372L289.0212561814992,310.83854339761155L288.82456195219504,310.919264800693L288.7754480859868,310.8706867869935L288.8123572884101,310.82218369515317L288.7263766331769,310.77357350552825L288.5667474138523,310.62782812067474L288.66514358461006,310.5308438028578L288.56691737920085,310.43368730166503L288.4686774670993,310.35270894947746L288.40717633511974,310.4173684624856L288.3089510751869,310.32021129823113L288.2352753055047,310.2554324600496L288.1738742445849,310.2068427869028L288.23537543346583,310.14218364879974L288.1371513162574,310.04502604241776L288.0880250783222,310.0126255461408L288.0389133106137,309.9640465850765L287.842453016301,309.78590851092616L287.6091578812026,309.57537938562615L287.51093680804695,309.47822016889734L287.31448146431865,309.30007937929315L287.21612923057273,309.34852501954606L287.1546275911575,309.41318251960456L287.1055177767379,309.36460235872005L287.0563932845121,309.33220053627167L286.99499520036045,309.28360896861705L287.0319051339127,309.23510759342844L287.0196759234685,309.1703827144198L286.9704923978843,309.20269438791564L286.8230456311755,309.1863802180284L286.7739365284706,309.137799630915L286.7248126077786,309.1053973822016L286.6757037336498,309.0568166687924L286.6265949841901,309.0082358922425L286.5774863594182,308.9596550525337L286.5283628335575,308.9272525512399L286.47925443735744,308.8786715852459L286.52845298817016,308.83018214177116L286.47934471661233,308.78160117576556L286.4302215024104,308.74919854820206L286.38102293091697,308.79768786536863L286.29509528090796,308.70053700074754L286.24597232652013,308.66813413637306L286.1968646212504,308.61955280728364L286.14775704065215,308.57097141505034L286.09863437721197,308.5385683612443L286.0495270252019,308.4899868427152L286.0004197978639,308.44140526105554L285.951297425367,308.4090020178151L285.90219042661863,308.36042030985686L285.85308355253693,308.31183853876087L285.8039768031408,308.2632567045181L285.7548548255005,308.2308532087062L285.7426434556603,308.14994951775293L285.7427356045746,308.0528791080632L285.74281239545434,307.97198709982524L285.68137200834775,307.97192862572615L285.6199932617511,307.90715644635884L285.4848246391448,307.9070272388045L285.41115829318386,307.84224295418306L285.31293170652066,307.76125648757204L285.2270246718228,307.64792481787686L285.16560040694446,307.6316871132864L285.07966282236686,307.5507119153269L285.0305580315163,307.5021290865719L284.96918113961567,307.437355861456L284.87095652718557,307.35636825829823L284.77273233038574,307.2753804025858L284.6867963771326,307.19440432065517L284.6376925422018,307.1458209867941L284.5763010352531,307.09722553188965L284.52719746528396,307.0486420559546L284.4902864583928,307.0971410159371L284.44108754593344,307.1456278388785L284.40417633679436,307.1941267156684L284.31806577959156,307.29111222136817L284.268866400419,307.3395988226086L284.14584335837975,307.48508265063066L284.0597314943739,307.582067574197L283.97378025179273,307.51726829143735L283.9246769055968,307.468684042149L283.8264705872664,307.37151535416467L283.70346198144733,307.5008193579009L283.6542453142748,307.56548356945154L283.6050447425728,307.6139693164997L283.56813202439076,307.66246738602024L283.4205128966605,307.82410250554886L283.30978954119297,307.95341767142713L283.0516410756116,308.0502254016601L282.9533362569988,308.0501248769426L282.85503143869477,308.05002409948025L282.7567266207065,308.0499230692866L282.4618121686568,308.04961846229577L282.26520253554224,308.0494141272957L282.080864100782,308.06540004551965L281.9334068154081,308.0652454199748L281.84711801049895,308.3240093638182L281.7608280444173,308.58277311171037L281.7115384686341,308.7121484224656L281.62526381596996,308.95473346262486L281.5266653281999,309.2296620688835L281.5020197730554,309.2943495805621L280.54349912861926,309.3094982464704L280.5666727227199,310.6037968861842L280.18571616239973,310.6033811948841L280.13656047757087,310.6033272808503L280.08740479281397,310.6032733036312L280.0382491081478,310.6032192632313L279.9276488179677,310.60309744128926L279.66958147586763,310.60281194610525L279.62042579193,310.6027573686123L279.57127010806545,310.60270272792957L279.3746293275226,310.61866193185733L279.3254736233386,310.6186069752215L279.2763179192345,310.61855195540045L279.27595617043335,310.9421199240096L279.28788355726834,311.26570165130784L279.28752191630315,311.5892696152416L279.2872506869028,311.83194558661944L279.2871783592543,311.89665917876454L279.29912423867125,312.2040624975068L279.2987627073544,312.527630454584L279.2984011780538,312.8511984092688L279.310528179491,312.9968177417281L277.6397689520779,312.44484548904666L274.0378664749552,313.2979443646668L273.63291763610897,312.8120806334411L273.54703376900557,312.69872273497936L273.4980190805607,312.5854115197683L273.3877628117886,312.31023806009114L273.3755350780382,312.26168721642966L273.2774256542734,312.09977786270076L273.1792757392463,311.97022504760935L273.044258536674,311.84062470135416L272.577724620975,311.4840980618168L270.576042649198,310.39749892668044L269.8761073563124,310.008267184258L269.71653087984106,309.8786215029538L269.6060878968249,309.7652210637324L269.3975592561493,309.4899009820382L269.32402850541496,309.34419373184664L269.2505429623292,309.16612954987716L269.12824012528307,308.7453212360807L268.7869596513367,306.7387220070174L268.79051810428246,304.1825354398792L268.79110368750855,303.7618971303575L268.7930406468813,302.3705550024358L268.7731326447723,299.0215924172409L268.763574817557,297.063989052744L268.7644313681955,296.4492098918872L268.7557544484433,293.8606488285424L268.77141935704594,291.4339059243464L268.7745979646444,289.15275137328155L268.77520664843365,288.7159345327593L268.8141706600856,278.3779691860586L268.8160638370503,277.0189831755017L268.8054764575297,275.8055856522045L268.8071898005841,274.5760268271148L268.7966487656744,273.3302724375219L268.7968066151512,273.21702359466667L268.79694191494764,273.11995315777506L268.8013167302332,269.9813422788668L268.8021736805045,269.3665628091086L268.8039552640462,268.0884686284053L273.8613083690566,268.14372753852984L274.11908955284804,268.14405231132315L276.9546827470514,268.14750996645535L279.23790601490794,268.13396261966034L280.93189632270935,268.13582648794994L284.4181593071589,268.0585337602737L286.9100387836748,268.06091148317046L289.58603372970873,268.07946224802924L290.6294321141847,268.0803364354664L291.85694686413046,268.0975068088194L292.13926564671283,268.11390779376325L292.1634361838009,268.5992795250293L292.16317016104375,268.9390262559774L292.1629421427761,269.230237738151L292.162866136941,269.32730823189337L292.175053175682,269.44056676300625L292.18725294450013,269.5376468744409L292.1872023157478,269.6023605366561L292.2116906098168,269.683271838563L292.2239031919337,269.76417352237064L292.24839166798387,269.84508480049334L292.4198892617631,270.3143928117671L292.6526347378985,270.96170999808777L293.02012101764177,272.0135892046462L293.10587277781207,272.25633077171136L293.3509064103042,272.9198314110634L293.4489028558094,273.2111166879572L293.64494839098506,273.7289728232491L293.7306959825574,273.9878913937869L294.33106744824926,275.6547102300617L294.3555759156811,275.7194417330719L294.39233877273193,275.8165389579532L294.44137960703426,275.91364504036704L294.49042069077234,276.01075105962576L294.53947368263215,276.0916786013745L294.60079312293533,276.18879333618395L294.6621244817407,276.26972955802546L294.7234445196487,276.3668440955464L294.79705438569306,276.44778889889335L294.87067608190046,276.51255514592873L294.9442865403528,276.59349966525156L295.0179087666194,276.6582656282736L295.10380929231684,276.7230401294445L295.1897101090423,276.7878144373266L295.275611216801,276.8525885519248L295.36151261559183,276.9173624732191L295.72973328580053,277.09558111575734L296.3311455948634,277.41956003881097L297.2394328905444,277.8893362450773L297.3007935432158,277.9379113975814L297.3621543517892,277.9864864514577L297.42351531626423,278.03506140670413L297.4971549234603,278.08364417415066L297.54623771289283,278.1322110213215L297.6075887850537,278.1969640951224L297.66894006505885,278.2617170702896L297.71801298812784,278.3264621109427L297.7670860774684,278.3912070884595L297.7916124024306,278.439757967953L297.8284174064938,278.4883166359717L297.85294387175543,278.5368674759704L297.88973880679765,278.60160449917925L298.13497736259853,279.135647036299L298.18404208201355,279.2165698912653L298.2453858857565,279.2975003533336L298.30672994929745,279.3784307167558L298.36808431042937,279.4431825672766L298.4417078168076,279.52412034055664L298.515331634931,279.6050579717704L299.1044403901184,280.0745913518531ZM278.10706609896124,280.1208940920187L279.0273275740975,280.720544681751L278.9782467199154,280.68813245270803Z" stroke="null" id="Piedmont" transform="translate(0, 1) translate(0,0) scale(1)" style="fill: rgb(137, 176, 125); mix-blend-mode: normal;"/><path d="M284.17019733686277,332.5454677185585L284.03258065127625,334.9235568852497L285.0512078296974,336.9953925591792L282.60951276256304,343.60991844641796L281.4404594100388,344.1749386310927L272.3677172410262,340.7505817931269L268.10951359076427,342.79947050643693L261.7267406183274,342.45018861147L260.40810548597943,344.08210633915417L259.7787992429965,345.3268251820566L257.6685075701349,349.48118515212536L255.06966500934323,351.33724162698854L254.09657563925595,352.0311977602493L253.8432807294745,356.1077087460246L257.1133578770456,357.6827041315116L264.6301685134958,358.3256801819548L267.84884521172046,361.88962418188527L267.3005051730013,366.72618614497316L260.43835869672245,371.19717339033576L254.3452521795566,378.4348093287193L255.55128807542087,385.7819179504212L250.27242729968182,390.52884037447467L244.84558529763865,388.59305755930944L243.4912857683667,388.47705540850455L235.56774315352342,391L228.68795647227657,384.22127042072213L224.08140174789983,389.6942564408568L221.83965629282534,389.89877870229407L220.7722331642021,388.4075558011463L219.99287231638368,385.1212642301712L217.9882085521106,384.2584139629622L215.45218749525944,384.12201390762374L214.23624905274565,383.0508335471235L213.6593310411312,378.0662419123313L211.76513401969697,377.4945889079579L211.31193127851247,380.9716497382502L208.92870033298775,379.2012340365647L206.97383615345922,378.3379526092789L206.9522213974323,377.33482283620515L206.94656638063825,371.00902525282095L226.73865826747044,370.91779471070333L237.6567240911884,370.6522029699161L237.77822686453277,365.7665850619539L238.2110494539013,347.9227226730668L238.3875913265488,340.3030639699976L244.60422301188504,337.3878589328882L246.38959763893553,336.25894209687L248.07433798791277,336.246059553676L248.07496260218437,335.9224921003755L248.0876968001732,335.69601866564983L255.11254442654229,333.83226241997653L255.8895624813835,332.474626868405L256.2719030920004,331.79579259023564L256.863171104813,331.16584656867167L256.961645169388,331.1013006268191L257.58942315192576,330.6817251003148L258.24177785059305,330.2621803234958L258.66027061709076,329.98784324362225L258.820267622885,329.89103763554647L258.98026382089546,329.794231358508L259.1648492984833,329.6974648678232L259.3494338441908,329.60069748677637L259.54628604104556,329.52012770067165L259.73084244890583,329.43953686207914L259.9276930156594,329.35896511400927L260.0876318558396,329.29451097200644L260.616624557835,329.1012235959668L261.0594968644839,328.9401484658928L261.35477718111696,328.81119102051946L261.69925987484004,328.66613058240375L261.9945866597905,328.50481143269394L262.3022812800129,328.29497406906944L262.5238102702222,328.1497138534685L262.8069101855798,327.93983413474825L263.09005681360827,327.69759555175943L263.1885114905215,327.63303358714177L263.28696583594916,327.56847136917554L263.38541984990235,327.5039088978717L263.4961678523265,327.4393650073779L263.5945964900307,327.3909803829201L263.70531916819095,327.3426142722302L263.8160415668155,327.29424784116446L263.92673913338393,327.2620594750682L264.0251422609331,327.2298521284905L264.1481337080062,327.19768178217066L264.2588063035912,327.1816708409266L264.38177303867377,327.1656781291866L264.49244544353456,327.1496665121755L264.61541197764456,327.13367304958246L264.726059976464,327.13383914261306L264.8490021980499,327.1340233151228L264.9719203088232,327.1503854785269L265.08254429137844,327.16672892650934L265.18087412995493,327.18305376573153L265.29149829522163,327.1993966094881L265.4143928782223,327.2319357372487L265.5249934054032,327.2644562918904L265.6355941199776,327.29697652672417L265.7461950219503,327.32949644174573L265.85677237343816,327.37819442324474L265.9673263146169,327.4430704713184L266.0779042744564,327.49176781338747L266.1761645595445,327.55662525306934L266.2867195559498,327.6215003776365L266.61833995869114,327.84848060616685L267.2692748129562,328.31859320159793L267.40437693701654,328.41585709862545L267.40430768600146,328.4643922583732L267.4042384350443,328.5129274180536L267.858683201119,328.83714277029196L267.9814938507621,328.9343871950195L268.1043506993203,328.9992744517801L268.21491312220184,329.06414400006634L268.337770781666,329.12903050688067L268.4606288569784,329.1939166189777L268.583509933407,329.24262394954474L268.70639132186625,329.29133088532353L268.82927302236027,329.34003742632126L268.9644724049795,329.3725822624297L269.0259247093348,329.3888459742532L269.0873546932726,329.4212879743094L269.22257689615776,329.4376535112829L269.284029413957,329.4539168084796L269.38236689947183,329.4702308464193L269.5052944227123,329.48657844161517L269.62824419454137,329.4867472546646L269.76346685723826,329.5031108799513L269.88641668233487,329.5032788634111L270.0216834688062,329.4872848015615L270.0831583560157,329.4873684278249L270.16924511424617,329.4713069512409L270.2553099206222,329.4714236684537L270.51352611223666,329.4555942709979L270.7840370510719,329.43977962319786L270.857828450091,329.4237001053414L270.9807995949946,329.4076861845957L271.15292892348106,329.40791577468246L271.3127847344203,329.3919498841623L271.4357342044759,329.39211288935223L271.6324320594253,329.4085512640196L271.7799714878197,329.4087455902812L271.9643746162168,329.4251660863333L272.0873030869156,329.44150538604805L272.7634427735766,329.5070968915235L272.923277566563,329.50730266133496L273.12001798383903,329.49137661122086L273.23069341927135,329.475339718422L273.34138933905894,329.44312411670035L273.4397901193444,329.4108925599279L273.5504856769299,329.3786763533353L273.6611810482546,329.34645982652273L273.75960171192764,329.29804905836306L273.84570686083623,329.26580092174885L274.1532818805644,329.10440345423643L274.27631116328814,329.03984377495794L274.33788612071925,328.9590286187164L274.38710562723,328.926733201255L274.51015403084625,328.8459943805723L274.71936512254206,328.68446989266215L274.8547865014988,328.5390316283737L275.19949263514144,328.1673522107986L275.5934483485601,327.73101593569965L276.0489442261643,327.23003608110116L276.35670602387864,326.89065860013943L276.72600916723445,326.4866380315763L277.0214460842217,326.1634190086694L277.13224313543304,326.03412209070757L277.7599978915041,325.3715398571616L278.11695955214975,324.9836699961123L278.28925395500175,324.82208356229995L278.69543355166184,324.385729406918L278.7814320893971,324.4343621281875L278.91649496775375,324.5801205551563L278.9778709774954,324.6610818577019L279.2111564943427,324.9201987284183L279.34616858300126,325.1144908145669L279.68988747200257,325.56786896895903L279.7757648721973,325.7297482025334L279.837091027093,325.85924330183974L279.98435015566696,326.1020818873593L280.13155801152766,326.3934550823361L280.3032680631986,326.76574654249623L280.4626520874117,327.1703806344341L280.5606728563317,327.47787700814786L280.59734565830644,327.6720577456969L280.7198530036346,328.0766507265658L280.81758198291277,328.65917909890203L281.01311828535455,329.75952150014393L281.1233069705117,330.1964567428538L281.2581578152916,330.56870435406387L281.50353323659897,331.0704961863117L281.87195644839426,331.4915239504211L282.2282097826433,331.79928661162614L282.7074436496667,332.0909943453041L283.1376162705302,332.26939728382314L283.58013758419304,332.3992725907424L284.0595658071945,332.5130010779047Z" stroke="null" id="Stowe" transform="translate(0, 1) translate(0,0) scale(1)" style="fill: rgb(137, 176, 125); mix-blend-mode: normal;"/></g><path d="M331.16110772129315,262.62392556187143L331.39437153145684,262.89890268085924L333.2974304777689,265.1148359341166M333.31054418673676,267.97841261717235L332.9670672076529,268.7874329035047M315.2384417167429,284.3843559926341L314.8332801876283,283.8827501677542M311.55593031165705,278.42985952842434L312.07150416917,278.9153509234045L312.6116529504661,279.3846630479843L313.15181498736547,279.85396753040675L313.66742829979097,280.33943737176025M315.4359815674319,278.3498416547675L315.48510425540803,278.30131494446675M315.7921269067009,277.94544171814164L315.77986718397005,277.8321907690863L315.779942065383,277.379195092293M315.79247656878147,275.82606906043554L315.7925139380029,275.59957121448485L315.8049514718474,274.62886817666276M315.81734584224864,273.9170198082594L315.829670759426,273.6258103006495M316.59137291819115,269.98578352954803L317.52449731184555,268.67545480689336M317.8437279430489,268.0607117902699L318.26117327661916,267.2032998055987M319.5256929537175,264.30746882127346L319.53803106373704,263.3529428150416M317.7097338407774,259.0654944720579L317.4643765265885,258.321258021598L317.43985987590924,258.0947571204629M318.81435679061906,257.80368866469996L318.91253260397644,257.8036969957859M320.88832136631953,257.7876325676676L320.91286682076793,257.7390980735033M316.43598157880865,241.70587737710892L319.44111028083944,245.13603159774806L321.40383919233483,252.59437170002943M316.54225760331457,270.0666685072789L316.4563262063931,270.06665589861575L316.35812132624903,270.0504628328133L316.223083843509,270.06662070046065L316.1739801882042,270.0666131088175L316.12486641587793,270.13131913055514L316.10030692776365,270.17985053682924L316.0880386120834,270.1313133480273L316.1371524467257,270.0666073736444L316.0880487914356,270.06659967150773L315.7075739332133,269.5973636830549L315.7935336401449,269.41941536449644L315.65850087363543,269.41939281665924L315.60939804947327,269.419384499069L315.5602952253241,269.41937611834203L315.5111924011944,269.4193676744873L315.4620895770717,269.4193591674958L315.4129867529562,269.41935059736755L315.3638839288666,269.4193419641116L315.3147811047843,269.41933326771436L315.3025169078631,269.35461740664226L315.30252841697,269.2899037294674L315.30257157623527,269.0472274394406L315.3026204902872,268.77219430958087L315.3026435087448,268.64276695391345L315.3026866684909,268.4000906613127L315.31500800145164,268.14123813206095L315.3150194900233,268.07652445358633L313.14229584275074,268.07607644351594L313.0563727473404,268.0598777650558L313.00727166915516,268.05986610168736L312.9581705909759,268.05985437519075L312.90906951282125,268.05984258556146L312.85996843469127,268.05983073279936L312.8108673565737,268.05981881690906L312.7494949666284,268.0436254138136L312.74954245885533,267.84948438004835L312.74955828963294,267.78477070199006L312.7496374437855,267.4612023106919L312.749716598379,267.1376339176962L312.73752088383327,266.8140625145163L312.73760014318987,266.49049411816463L312.737679402988,266.1669257201194L312.73774677416355,265.8918925804753L312.5904518920192,265.89185617152077L312.4554315835355,265.8918222975204L312.30813670171756,265.891784799584L312.16084182008325,265.8917467334821L312.01354693862277,265.89170809921023L311.8662520573513,265.89166889677745L311.71895717625904,265.89162912618383L311.5716578388997,265.9077672073275L311.42436289586294,265.90772630038856L311.24024421733475,265.9076743677289L310.61424071267464,265.907491156271L310.5160440848261,265.90746148605587L310.4055728786173,265.90742780523203L310.30737125951265,265.9235760182048L310.1846254231495,265.92353790457975L310.1846405533433,265.87500264524016L310.1846607269547,265.81028896607216L310.0987338163307,265.826440471621L309.97597802846497,265.85875852685683L309.8654966061838,265.8910801231216L309.75501499705683,265.9234013997193L309.6322533299863,265.9718967697005L309.5217659661519,266.0203957911252L309.4112783219767,266.06889449285353L309.3253396891592,266.1174010973673L309.2148460617278,266.18207765032184L309.10434656004145,266.2629323030858L309.0184071017,266.3114382167487L308.9079012272576,266.4084707204649L308.82195557270796,266.4731546114317L308.37990742680574,266.90981569012246L307.8518997837878,267.4111533562989L307.7536689361242,267.49200867838454L307.6677127861785,267.5728683897762L307.58176241714807,267.63754948859605L307.4835427886879,267.6860472775996L307.3853166835889,267.75072323293944L307.2870965152164,267.79922051664795L307.1888760976812,267.8477175477009L307.0783802141009,267.8962094985731L306.96789045423884,267.92852271083734L306.86967574518115,267.96084050200227L306.7591856220494,267.99315311042704L306.64870185118014,268.00928698036824L306.5382179869669,268.0254205306562L306.4277340294293,268.0415537613113L306.34180718486493,268.0415183940252L305.7403123522357,268.0574438280972L305.0406220455828,268.0571376196413L301.0266004593015,268.07131163730423L299.88500009247025,268.0706645175759L298.9397943072157,268.08628132274765L297.3194472024944,268.1014425477512L296.6443066750395,268.10099842643865L295.9814414393224,268.10055076767827L294.7416263916389,268.11586101108117L294.10331147705415,268.11539833443294L293.66140115714217,268.1150717697357L292.80213110397915,268.11442214402007L292.13926564671283,268.11390779376325M291.85694686413046,268.0975068088194L290.6294321141847,268.0803364354664M286.9100387836748,268.06091148317046L284.4181593071589,268.0585337602737M280.93189632270935,268.13582648794994L279.23790601490794,268.13396261966034M268.816253086984,268.07230735134743M268.76283945942953,157.201323578328L270.06024164810333,157.20312005507336L271.35764391044813,157.20487229782586L273.9279488753124,157.2243915227769L275.213112246521,157.22599681881218L276.4982756828536,157.227558711504L277.7834391825313,157.2290772008524L277.78417406345034,156.59811860545693L277.7849277957386,155.9509815847327L277.7864352854349,154.65670754406398L278.27596966403877,154.67345299514167L278.26326481332194,155.07789953846307L278.5080440297646,155.0781807703624L279.08327519705085,155.07883546709132L279.1053034225647,157.24677222044096L279.26443719649336,157.23077325103299L279.9008991773385,157.23148442432532L280.0844939821889,157.23168759221886L280.21913017317524,157.2318360190457L280.3292870571727,157.23195710486016L280.69647667359476,157.2323584212154L280.81887321344954,157.23249140597068L281.00246802419724,157.23269014495196L281.32069903225386,157.2330325275325L281.65116969815216,157.23338526188664L281.9204591794362,157.21749212606744L282.2631693609498,157.2178524681126L282.446764102677,157.21804423887562L282.76499499097963,157.218374543209L282.936350086071,157.21855129708308L283.09546553238783,157.21871473476511L283.2423413297163,157.21886500980048L283.4136964274913,157.21903961417482L283.682968725927,157.2193124334994L283.8420841761056,157.2194727492939L283.95224102670556,157.2195833474075L284.06239787769493,157.21969362663773L284.16031507890307,157.21979138491963L284.2215133298104,157.21985235590142L284.2222058826722,156.52417995898864L284.2711153329577,156.57276394775715L284.3200409725679,156.60516944577014L284.3689506520442,156.6537533087488L284.491249384789,156.75094504915558L284.6136125001157,156.7834226845156L284.7849180387963,156.8321263985228L284.7851084372754,156.63798526228385L284.8464166366311,156.5247962323965L284.8587035694468,156.47627292970617L284.8832298665374,156.4277615965988L284.89551672138765,156.37923828204418L285.0915199018154,156.20146655082712L285.213771968131,156.34719125329156L285.16464173160716,156.52510647030624L285.164578910537,156.5898201828725L285.2256193564408,156.75166382060186L285.2989468188328,156.86498391557544L285.42121741320835,156.9945295228206L285.61670938229537,157.35064321717724L285.6655442183237,157.48011755449272L285.6777374929802,157.52866455733877L285.6899307988968,157.57721155626479L285.71434844613424,157.64194868574128L285.78764820653646,157.7876246949875L285.81206615589053,157.85236176170326L286.17903267584535,158.09538659880238L286.3014167745952,158.11168037719222L286.350346123246,158.1440832639794M286.3992755552335,158.17648608783674M286.4603844261776,158.2736140291264L286.6315482323799,158.48409371363766M286.79068398640084,158.46806327057794L289.28766860596585,158.4541199364703L289.3611228110723,158.438004764858L289.36220857361235,157.17608726955032L289.36411567501193,154.95964243970906L289.37631285201223,155.0081882563676L289.4496492970311,155.1215003503836L289.6079546239291,156.05998546506524L289.803151344939,156.80435995067901L289.900752581414,157.17654681756724L291.9203055121269,157.16202381211235L292.5690060174186,157.16253281148408L293.2054669006971,157.16302145961026L294.4906283293999,157.1639757038234L295.77580098983617,157.14870811367803L297.06096194705736,157.1495755510394L297.06181371421803,155.85530104201544L298.1143961591126,155.83980073191714L298.3714195084965,155.83996189678953L298.3599778617558,154.56185816308604L298.67819651989385,154.5458769607014L299.6328222187486,154.54645268159933L301.55431245893044,154.54753888411585L301.55427750875026,154.6122526130756L301.56585267057903,155.84182007143446L302.202291483426,155.8421582456213L302.2017837949177,156.8128641878906L302.2016230286537,157.12025440303626L303.4867830491331,157.12090482361023L303.8050131535079,157.12105917576022L304.77194309547673,157.12151184094446L304.77311472101445,154.54914102821303L309.9011740038371,154.53495260349115L317.1577242561478,162.62580480531417L317.0717351431004,164.89077433268812L316.5676096988246,180.01754024289085L309.81776928224065,185.45191488940915L310.3685435912298,186.8110770324354M302.55331883335884,307.1753567101691L311.91348673731125,319.03776850856985M284.17019733686277,332.5454677185585L284.0595658071945,332.5130010779047L283.58013758419304,332.3992725907424L283.1376162705302,332.26939728382314L282.7074436496667,332.0909943453041L282.2282097826433,331.79928661162614L281.87195644839426,331.4915239504211L281.50353323659897,331.0704961863117L281.2581578152916,330.56870435406387L281.1233069705117,330.1964567428538L281.01311828535455,329.75952150014393L280.81758198291277,328.65917909890203L280.7198530036346,328.0766507265658L280.59734565830644,327.6720577456969L280.5606728563317,327.47787700814786L280.4626520874117,327.1703806344341L280.3032680631986,326.76574654249623L280.13155801152766,326.3934550823361L279.98435015566696,326.1020818873593L279.837091027093,325.85924330183974L279.7757648721973,325.7297482025334L279.68988747200257,325.56786896895903L279.34616858300126,325.1144908145669L279.2111564943427,324.9201987284183M278.9778709774954,324.6610818577019L278.91649496775375,324.5801205551563L278.7814320893971,324.4343621281875L278.70774521041346,324.3695649603599L278.28925395500175,324.82208356229995L278.11695955214975,324.9836699961123L277.7599978915041,325.3715398571616L277.13224313543304,326.03412209070757L277.0583658432577,326.1311056661391L276.72600916723445,326.4866380315763L276.35670602387864,326.89065860013943L276.0489442261643,327.23003608110116L275.5934483485601,327.73101593569965L275.19949263514144,328.1673522107986L274.8547865014988,328.5390316283737L274.71936512254206,328.68446989266215L274.51015403084625,328.8459943805723L274.38710562723,328.926733201255L274.33788612071925,328.9590286187164L274.27631116328814,329.03984377495794L274.1532818805644,329.10440345423643L273.84570686083623,329.26580092174885L273.75960171192764,329.29804905836306L273.6611810482546,329.34645982652273L273.5504856769299,329.3786763533353L273.4397901193444,329.4108925599279L273.34138933905894,329.44312411670035L273.23069341927135,329.475339718422L273.12001798383903,329.49137661122086L272.923277566563,329.50730266133496L272.7634427735766,329.5070968915235L272.0873030869156,329.44150538604805L271.9643746162168,329.4251660863333L271.8045613926345,329.40877792268583L271.6324320594253,329.4085512640196L271.4726190456218,329.3921617138689L271.3127847344203,329.3919498841623L271.15292892348106,329.40791577468246L270.9807995949946,329.4076861845957L270.857828450091,329.4237001053414L270.7840370510719,329.43977962319786L270.51352611223666,329.4555942709979L270.2553099206222,329.4714236684537L270.16924511424617,329.4713069512409L270.0954533334809,329.48738514122607L270.0216834688062,329.4872848015615L269.88641668233487,329.5032788634111L269.76346685723826,329.5031108799513L269.62824419454137,329.4867472546646L269.5298843770315,329.4866122358296L269.38236689947183,329.4702308464193L269.284029413957,329.4539168084796L269.22257689615776,329.4376535112829M267.9814938507621,328.9343871950195L267.87095508348295,328.853338585178M266.3235791514435,327.63773255264925M265.9673263146169,327.4430704713184L265.85677237343816,327.37819442324474L265.7461950219503,327.32949644174573M265.5249934054032,327.2644562918904L265.4143928782223,327.2319357372487M264.49244544353456,327.1496665121755L264.38177303867377,327.1656781291866M264.1481337080062,327.19768178217066L264.0374365137813,327.2298707887348L263.92673913338393,327.2620594750682L263.8160415668155,327.29424784116446L263.70531916819095,327.3426142722302M263.38541984990235,327.5039088978717L263.28696583594916,327.56847136917554M261.9945866597905,328.50481143269394L261.69925987484004,328.66613058240375L261.35477718111696,328.81119102051946L261.0594968644839,328.9401484658928M259.54628604104556,329.52012770067165L259.3494338441908,329.60069748677637L259.1648492984833,329.6974648678232L258.98026382089546,329.794231358508L258.820267622885,329.89103763554647L258.66027061709076,329.98784324362225L258.24177785059305,330.2621803234958M269.2505429623292,309.16612954987716L269.32402850541496,309.34419373184664L269.3975592561493,309.4899009820382M269.71653087984106,309.8786215029538L269.8761073563124,310.008267184258M272.577724620975,311.4840980618168L273.044258536674,311.84062470135416L273.1792757392463,311.97022504760935L273.2774256542734,312.09977786270076L273.3755350780382,312.26168721642966M273.4980190805607,312.5854115197683L273.54703376900557,312.69872273497936L273.63291763610897,312.8120806334411L274.0378664749552,313.2979443646668M279.66958147586763,310.60281194610525L279.9276488179677,310.60309744128926M283.30978954119297,307.95341767142713L283.4205128966605,307.82410250554886M283.8264705872664,307.37151535416467L283.9246769055968,307.468684042149M285.07966282236686,307.5507119153269L285.16560040694446,307.6316871132864M285.31293170652066,307.76125648757204L285.41115829318386,307.84224295418306M285.68137200834775,307.97192862572615L285.74281239545434,307.97198709982524M289.19324654768354,310.90340545381434L289.7335395599155,311.40539742358715M290.04053884787265,311.6806890735574L290.3107013364108,311.9235908207901M291.158051972382,312.68467125283723L291.2685801504993,312.7818310016347M292.2274986187509,312.36195343255247L292.8425537250189,311.60204362943347L292.95326770318206,311.4565224760629L293.12551225310955,311.19779879457167L293.2485618017101,310.987572485056L293.4086587181001,310.5346974179571L293.69189139923105,309.74216671076454L293.79035602184535,309.53192038373436M294.19637416252795,308.8527255393659L294.2332863299102,308.78803881139675L294.2824866918033,308.72336099024005M294.51620944847133,308.3837836664429L294.7499049586684,308.07656172035377L294.81140315470554,307.9957136021615L294.9959190864648,307.72081184496005L295.05741619321134,307.6399633306213L295.1066136918816,307.57528444786567L295.2788036300384,307.3489078592073L295.34028823910194,307.28423729395445L295.42637085054605,307.18722697455894L295.5739816504855,306.9608319012774L295.9553106877565,306.362493316267L296.0783182254587,306.16843628885215L296.12752308648925,306.0875776858742L296.2751255141782,305.8611799015853L296.32432956597603,305.7803210449026L296.3858098954804,305.7156487968406L296.5333877633279,305.5216068249066L296.58258005394606,305.45692604086594L296.65634667937184,305.3922615570248L296.84078349720795,305.1982429133228L296.90226202149233,305.1335698342489L297.1236209797446,304.84250366975186L297.1974065521509,304.7454813298158L297.5048320250879,304.35739845176477L297.82449703968393,304.0340345287483L298.07038562850653,303.79151369374864L298.4515442604412,303.35493424788183L298.56221314102646,303.209396837099L298.95565656988117,302.756641518062M293.59338983398345,293.49896468187615L293.74077905575734,293.5152527600268L293.8513061283185,293.54769145670286L293.94954992792754,293.5801207873466M299.72573738287156,288.52009483335473L299.76262066999334,288.4554027447989M299.5585392374141,280.4631441013606L299.1044403901184,280.0745913518531L298.515331634931,279.6050579717704L298.47852468241973,279.5564999668107L298.36808431042937,279.4431825672766L298.30672994929745,279.3784307167558L298.2453858857565,279.2975003533336L298.18404208201355,279.2165698912653L298.13497736259853,279.135647036299L297.88973880679765,278.60160449917925L297.85294387175543,278.5368674759704L297.8284174064938,278.4883166359717L297.7916124024306,278.439757967953L297.7670860774684,278.3912070884595L297.71801298812784,278.3264621109427L297.66894006505885,278.2617170702896L297.6075887850537,278.1969640951224L297.54623771289283,278.1322110213215L297.4971549234603,278.08364417415066L297.42351531626423,278.03506140670413L297.3621543517892,277.9864864514577L297.3007935432158,277.9379113975814L297.2394328905444,277.8893362450773L296.3311455948634,277.41956003881097L295.72973328580053,277.09558111575734L295.36151261559183,276.9173624732191L295.275611216801,276.8525885519248L295.1897101090423,276.7878144373266L295.10380929231684,276.7230401294445L295.0179087666194,276.6582656282736L294.9442865403528,276.59349966525156L294.87067608190046,276.51255514592873L294.79705438569306,276.44778889889335L294.7234445196487,276.3668440955464L294.6621244817407,276.26972955802546L294.60079312293533,276.18879333618395L294.53947368263215,276.0916786013745L294.49042069077234,276.01075105962576L294.44137960703426,275.91364504036704L294.39233877273193,275.8165389579532L294.3555759156811,275.7194417330719L294.33106744824926,275.6547102300617L293.7306959825574,273.9878913937869L293.64494839098506,273.7289728232491L293.4489028558094,273.2111166879572L293.3509064103042,272.9198314110634L293.10587277781207,272.25633077171136L293.02012101764177,272.0135892046462L292.6526347378985,270.96170999808777L292.4198892617631,270.3143928117671L292.24839166798387,269.84508480049334L292.2239031919337,269.76417352237064L292.2116906098168,269.683271838563L292.1872023157478,269.6023605366561L292.18725294450013,269.5376468744409L292.175053175682,269.44056676300625L292.162866136941,269.32730823189337L292.1629421427761,269.230237738151L292.16317016104375,268.9390262559774L292.1634361838009,268.5992795250293L292.16379088323094,268.14628388081053" stroke="rgb(255,255,255)" transform="translate(0, 1) translate(0,0) scale(1)" style="stroke-width: 0.45; stroke-linejoin: round; stroke-linecap: round; fill: none; mix-blend-mode: normal;"/><g id="labels-svg"><g id="Lakewood-svg"><text transform="translate(310.1194763183594, 100.21410369873047)" fill="undefined" style="stroke: rgb(255, 255, 255); stroke-width: 4; stroke-linejoin: round; stroke-linecap: butt; opacity: 0.5; font-family: BentonSans; font-weight: 400; font-size: 10px;"><tspan x="3.828125" dy="10">Lakewood</tspan></text><text transform="translate(310.1194763183594, 100.21410369873047)" fill="rgb(26, 63, 19)" style="opacity: 1; font-family: BentonSans; font-weight: 400; font-size: 10px;"><tspan x="3.828125" dy="10">Lakewood</tspan></text></g><g id="Homecroft-svg"><text transform="translate(267.5560607910156, 207.8865966796875)" fill="undefined" style="stroke: rgb(255, 255, 255); stroke-width: 4; stroke-linejoin: round; stroke-linecap: butt; opacity: 0.5; font-family: BentonSans; font-weight: 400; font-size: 10px;"><tspan x="4.8203125" dy="10">Homecroft</tspan></text><text transform="translate(267.5560607910156, 207.8865966796875)" fill="rgb(26, 63, 19)" style="opacity: 1; font-family: BentonSans; font-weight: 400; font-size: 10px;"><tspan x="4.8203125" dy="10">Homecroft</tspan></text></g><g id="Stowe-svg"><text transform="translate(231.71835327148438, 355.00848388671875)" fill="undefined" style="stroke: rgb(255, 255, 255); stroke-width: 4; stroke-linejoin: round; stroke-linecap: butt; opacity: 0.5; font-family: BentonSans; font-weight: 400; font-size: 10px;"><tspan x="3.421875" dy="10">Stowe</tspan></text><text transform="translate(231.71835327148438, 355.00848388671875)" fill="rgb(26, 63, 19)" style="opacity: 1; font-family: BentonSans; font-weight: 400; font-size: 10px;"><tspan x="3.421875" dy="10">Stowe</tspan></text></g><g id="Myers-Wilkins-svg"><text transform="translate(283.2450866699219, 300.6670227050781)" fill="undefined" style="stroke: rgb(255, 255, 255); stroke-width: 4; stroke-linejoin: round; stroke-linecap: butt; opacity: 0.5; font-family: BentonSans; font-weight: 400; font-size: 10px;"><tspan x="3.625" dy="10">Myers-Wilkins</tspan></text><text transform="translate(283.2450866699219, 300.6670227050781)" fill="rgb(26, 63, 19)" style="opacity: 1; font-family: BentonSans; font-weight: 400; font-size: 10px;"><tspan x="3.625" dy="10">Myers-Wilkins</tspan></text></g><g id="Lester-svg Park-svg"><text transform="translate(329.40228271484375, 243.09007263183594)" fill="undefined" style="stroke: rgb(255, 255, 255); stroke-width: 4; stroke-linejoin: round; stroke-linecap: butt; opacity: 0.5; font-family: BentonSans; font-weight: 400; font-size: 10px;"><tspan x="4.8046875" dy="10">Lester Park</tspan></text><text transform="translate(329.40228271484375, 243.09007263183594)" fill="rgb(26, 63, 19)" style="opacity: 1; font-family: BentonSans; font-weight: 400; font-size: 10px;"><tspan x="4.8046875" dy="10">Lester Park</tspan></text></g><g id="Piedmont-svg"><text transform="translate(258.2765197753906, 283.5006103515625)" fill="undefined" style="stroke: rgb(255, 255, 255); stroke-width: 4; stroke-linejoin: round; stroke-linecap: butt; opacity: 0.5; font-family: BentonSans; font-weight: 400; font-size: 10px;"><tspan x="4.8984375" dy="10">Piedmont</tspan></text><text transform="translate(258.2765197753906, 283.5006103515625)" fill="rgb(26, 63, 19)" style="opacity: 1; font-family: BentonSans; font-weight: 400; font-size: 10px;"><tspan x="4.8984375" dy="10">Piedmont</tspan></text></g><g id="MacArthur-svg"><text transform="translate(257.5151672363281, 311.9380798339844)" fill="undefined" style="stroke: rgb(255, 255, 255); stroke-width: 4; stroke-linejoin: round; stroke-linecap: butt; opacity: 0.5; font-family: BentonSans; font-weight: 400; font-size: 10px;"><tspan x="4.234375" dy="10">MacArthur</tspan></text><text transform="translate(257.5151672363281, 311.9380798339844)" fill="rgb(26, 63, 19)" style="opacity: 1; font-family: BentonSans; font-weight: 400; font-size: 10px;"><tspan x="4.234375" dy="10">MacArthur</tspan></text></g><g id="Congdon-svg"><text transform="translate(301.8587951660156, 268.2145080566406)" fill="undefined" style="stroke: rgb(255, 255, 255); stroke-width: 4; stroke-linejoin: round; stroke-linecap: butt; opacity: 0.5; font-family: BentonSans; font-weight: 400; font-size: 10px;"><tspan x="4.1328125" dy="10">Congdon</tspan></text><text transform="translate(301.8587951660156, 268.2145080566406)" fill="rgb(26, 63, 19)" style="opacity: 1; font-family: BentonSans; font-weight: 400; font-size: 10px;"><tspan x="4.1328125" dy="10">Congdon</tspan></text></g></g></g></g><g id="footer-svg"><g id="footer-inner-svg"><g id="footer-main-svg"/></g></g></g></svg>